%FSLAX45Y45*%
G04 Gerber Fmt 4.5, Leading zero omitted, Abs format (unit mm)*
G04 Created by KiCad (PCBNEW 5.1.9+dfsg1-1+deb11u1) date 2023-10-22 21:50:04*
%MOMM*%
%LPD*%
G01*
G04 APERTURE LIST*
%TA.AperFunction,Profile*%
%ADD10C,0.150000*%
%TD*%
%ADD11C,0.200000*%
%ADD12C,0.300000*%
G04 APERTURE END LIST*
D10*
X12395200Y-6705600D02*
X12395200Y-13055600D01*
X17678400Y-6705600D02*
X12395200Y-6705600D01*
X17678400Y-13055600D02*
X17678400Y-6705600D01*
X12395200Y-13055600D02*
X17678400Y-13055600D01*
D11*
X12680000Y-12045000D02*
X12720000Y-12085000D01*
X12720000Y-12045000D02*
X12680000Y-12085000D01*
X16744000Y-10394000D02*
X16784000Y-10434000D01*
X16784000Y-10394000D02*
X16744000Y-10434000D01*
X13375000Y-9144000D02*
G75*
G03*
X13375000Y-9144000I-40000J0D01*
G01*
X13375000Y-11176000D02*
G75*
G03*
X13375000Y-11176000I-40000J0D01*
G01*
X13629000Y-9144000D02*
G75*
G03*
X13629000Y-9144000I-40000J0D01*
G01*
X13629000Y-11176000D02*
G75*
G03*
X13629000Y-11176000I-40000J0D01*
G01*
X13883000Y-9144000D02*
G75*
G03*
X13883000Y-9144000I-40000J0D01*
G01*
X13883000Y-11176000D02*
G75*
G03*
X13883000Y-11176000I-40000J0D01*
G01*
X14137000Y-9144000D02*
G75*
G03*
X14137000Y-9144000I-40000J0D01*
G01*
X14137000Y-11176000D02*
G75*
G03*
X14137000Y-11176000I-40000J0D01*
G01*
X14391000Y-9144000D02*
G75*
G03*
X14391000Y-9144000I-40000J0D01*
G01*
X14391000Y-11176000D02*
G75*
G03*
X14391000Y-11176000I-40000J0D01*
G01*
X14645000Y-9144000D02*
G75*
G03*
X14645000Y-9144000I-40000J0D01*
G01*
X14645000Y-11176000D02*
G75*
G03*
X14645000Y-11176000I-40000J0D01*
G01*
X14645000Y-12700000D02*
G75*
G03*
X14645000Y-12700000I-40000J0D01*
G01*
X14899000Y-9144000D02*
G75*
G03*
X14899000Y-9144000I-40000J0D01*
G01*
X14899000Y-11176000D02*
G75*
G03*
X14899000Y-11176000I-40000J0D01*
G01*
X14899000Y-12700000D02*
G75*
G03*
X14899000Y-12700000I-40000J0D01*
G01*
X15153000Y-9144000D02*
G75*
G03*
X15153000Y-9144000I-40000J0D01*
G01*
X15153000Y-11176000D02*
G75*
G03*
X15153000Y-11176000I-40000J0D01*
G01*
X15153000Y-12700000D02*
G75*
G03*
X15153000Y-12700000I-40000J0D01*
G01*
X15407000Y-9144000D02*
G75*
G03*
X15407000Y-9144000I-40000J0D01*
G01*
X15407000Y-11176000D02*
G75*
G03*
X15407000Y-11176000I-40000J0D01*
G01*
X15407000Y-12700000D02*
G75*
G03*
X15407000Y-12700000I-40000J0D01*
G01*
X15661000Y-9144000D02*
G75*
G03*
X15661000Y-9144000I-40000J0D01*
G01*
X15661000Y-11176000D02*
G75*
G03*
X15661000Y-11176000I-40000J0D01*
G01*
X16550000Y-9525000D02*
G75*
G03*
X16550000Y-9525000I-40000J0D01*
G01*
X16740500Y-11620500D02*
G75*
G03*
X16740500Y-11620500I-40000J0D01*
G01*
X16740500Y-11970500D02*
G75*
G03*
X16740500Y-11970500I-40000J0D01*
G01*
X17050000Y-9525000D02*
G75*
G03*
X17050000Y-9525000I-40000J0D01*
G01*
X13843000Y-11766000D02*
X13843000Y-11856000D01*
X13798000Y-11811000D02*
X13888000Y-11811000D01*
X13843000Y-12020000D02*
X13843000Y-12110000D01*
X13798000Y-12065000D02*
X13888000Y-12065000D01*
X14351000Y-11766000D02*
X14351000Y-11856000D01*
X14306000Y-11811000D02*
X14396000Y-11811000D01*
X14351000Y-12020000D02*
X14351000Y-12110000D01*
X14306000Y-12065000D02*
X14396000Y-12065000D01*
X14859000Y-11766000D02*
X14859000Y-11856000D01*
X14814000Y-11811000D02*
X14904000Y-11811000D01*
X14859000Y-12020000D02*
X14859000Y-12110000D01*
X14814000Y-12065000D02*
X14904000Y-12065000D01*
X15367000Y-11766000D02*
X15367000Y-11856000D01*
X15322000Y-11811000D02*
X15412000Y-11811000D01*
X15367000Y-12020000D02*
X15367000Y-12110000D01*
X15322000Y-12065000D02*
X15412000Y-12065000D01*
X15875000Y-11766000D02*
X15875000Y-11856000D01*
X15830000Y-11811000D02*
X15920000Y-11811000D01*
X15875000Y-12020000D02*
X15875000Y-12110000D01*
X15830000Y-12065000D02*
X15920000Y-12065000D01*
X12735356Y-7655356D02*
X12735356Y-7584644D01*
X12664644Y-7584644D01*
X12664644Y-7655356D01*
X12735356Y-7655356D01*
X12735356Y-7909356D02*
X12735356Y-7838644D01*
X12664644Y-7838644D01*
X12664644Y-7909356D01*
X12735356Y-7909356D01*
X12735356Y-8163356D02*
X12735356Y-8092644D01*
X12664644Y-8092644D01*
X12664644Y-8163356D01*
X12735356Y-8163356D01*
X12735356Y-8417356D02*
X12735356Y-8346644D01*
X12664644Y-8346644D01*
X12664644Y-8417356D01*
X12735356Y-8417356D01*
X13116356Y-10068356D02*
X13116356Y-9997644D01*
X13045644Y-9997644D01*
X13045644Y-10068356D01*
X13116356Y-10068356D01*
X13116356Y-10449356D02*
X13116356Y-10378644D01*
X13045644Y-10378644D01*
X13045644Y-10449356D01*
X13116356Y-10449356D01*
X13116356Y-12735356D02*
X13116356Y-12664644D01*
X13045644Y-12664644D01*
X13045644Y-12735356D01*
X13116356Y-12735356D01*
X13878356Y-12735356D02*
X13878356Y-12664644D01*
X13807644Y-12664644D01*
X13807644Y-12735356D01*
X13878356Y-12735356D01*
X14132356Y-10068356D02*
X14132356Y-9997644D01*
X14061644Y-9997644D01*
X14061644Y-10068356D01*
X14132356Y-10068356D01*
X14132356Y-10449356D02*
X14132356Y-10378644D01*
X14061644Y-10378644D01*
X14061644Y-10449356D01*
X14132356Y-10449356D01*
X15148356Y-9687356D02*
X15148356Y-9616644D01*
X15077644Y-9616644D01*
X15077644Y-9687356D01*
X15148356Y-9687356D01*
X15148356Y-10068356D02*
X15148356Y-9997644D01*
X15077644Y-9997644D01*
X15077644Y-10068356D01*
X15148356Y-10068356D01*
X15148356Y-10449356D02*
X15148356Y-10378644D01*
X15077644Y-10378644D01*
X15077644Y-10449356D01*
X15148356Y-10449356D01*
X15148356Y-10830356D02*
X15148356Y-10759644D01*
X15077644Y-10759644D01*
X15077644Y-10830356D01*
X15148356Y-10830356D01*
X15910356Y-9687356D02*
X15910356Y-9616644D01*
X15839644Y-9616644D01*
X15839644Y-9687356D01*
X15910356Y-9687356D01*
X15910356Y-10068356D02*
X15910356Y-9997644D01*
X15839644Y-9997644D01*
X15839644Y-10068356D01*
X15910356Y-10068356D01*
X15910356Y-10449356D02*
X15910356Y-10378644D01*
X15839644Y-10378644D01*
X15839644Y-10449356D01*
X15910356Y-10449356D01*
X15910356Y-10830356D02*
X15910356Y-10759644D01*
X15839644Y-10759644D01*
X15839644Y-10830356D01*
X15910356Y-10830356D01*
X16164356Y-12735356D02*
X16164356Y-12664644D01*
X16093644Y-12664644D01*
X16093644Y-12735356D01*
X16164356Y-12735356D01*
X16545356Y-11084356D02*
X16545356Y-11013644D01*
X16474644Y-11013644D01*
X16474644Y-11084356D01*
X16545356Y-11084356D01*
X16799356Y-11084356D02*
X16799356Y-11013644D01*
X16728644Y-11013644D01*
X16728644Y-11084356D01*
X16799356Y-11084356D01*
X16926356Y-12735356D02*
X16926356Y-12664644D01*
X16855644Y-12664644D01*
X16855644Y-12735356D01*
X16926356Y-12735356D01*
X17434356Y-9433356D02*
X17434356Y-9362644D01*
X17363644Y-9362644D01*
X17363644Y-9433356D01*
X17434356Y-9433356D01*
X17434356Y-9687356D02*
X17434356Y-9616644D01*
X17363644Y-9616644D01*
X17363644Y-9687356D01*
X17434356Y-9687356D01*
X17434610Y-11084356D02*
X17434610Y-11013644D01*
X17363898Y-11013644D01*
X17363898Y-11084356D01*
X17434610Y-11084356D01*
X17434610Y-12100356D02*
X17434610Y-12029644D01*
X17363898Y-12029644D01*
X17363898Y-12100356D01*
X17434610Y-12100356D01*
X12598400Y-7033800D02*
X12723400Y-6908800D01*
X12598400Y-6783800D01*
X12473400Y-6908800D01*
X12598400Y-7033800D01*
X12598400Y-12977400D02*
X12723400Y-12852400D01*
X12598400Y-12727400D01*
X12473400Y-12852400D01*
X12598400Y-12977400D01*
X17475200Y-7033800D02*
X17600200Y-6908800D01*
X17475200Y-6783800D01*
X17350200Y-6908800D01*
X17475200Y-7033800D01*
X17475200Y-12977400D02*
X17600200Y-12852400D01*
X17475200Y-12727400D01*
X17350200Y-12852400D01*
X17475200Y-12977400D01*
D12*
X12674128Y-13528814D02*
X12674128Y-13228814D01*
X12745557Y-13228814D01*
X12788414Y-13243100D01*
X12816986Y-13271671D01*
X12831271Y-13300243D01*
X12845557Y-13357386D01*
X12845557Y-13400243D01*
X12831271Y-13457386D01*
X12816986Y-13485957D01*
X12788414Y-13514529D01*
X12745557Y-13528814D01*
X12674128Y-13528814D01*
X12974128Y-13528814D02*
X12974128Y-13328814D01*
X12974128Y-13385957D02*
X12988414Y-13357386D01*
X13002700Y-13343100D01*
X13031271Y-13328814D01*
X13059843Y-13328814D01*
X13159843Y-13528814D02*
X13159843Y-13328814D01*
X13159843Y-13228814D02*
X13145557Y-13243100D01*
X13159843Y-13257386D01*
X13174128Y-13243100D01*
X13159843Y-13228814D01*
X13159843Y-13257386D01*
X13345557Y-13528814D02*
X13316986Y-13514529D01*
X13302700Y-13485957D01*
X13302700Y-13228814D01*
X13502700Y-13528814D02*
X13474128Y-13514529D01*
X13459843Y-13485957D01*
X13459843Y-13228814D01*
X13845557Y-13528814D02*
X13845557Y-13228814D01*
X13945557Y-13443100D01*
X14045557Y-13228814D01*
X14045557Y-13528814D01*
X14316986Y-13528814D02*
X14316986Y-13371671D01*
X14302700Y-13343100D01*
X14274128Y-13328814D01*
X14216986Y-13328814D01*
X14188414Y-13343100D01*
X14316986Y-13514529D02*
X14288414Y-13528814D01*
X14216986Y-13528814D01*
X14188414Y-13514529D01*
X14174128Y-13485957D01*
X14174128Y-13457386D01*
X14188414Y-13428814D01*
X14216986Y-13414529D01*
X14288414Y-13414529D01*
X14316986Y-13400243D01*
X14459843Y-13328814D02*
X14459843Y-13628814D01*
X14459843Y-13343100D02*
X14488414Y-13328814D01*
X14545557Y-13328814D01*
X14574128Y-13343100D01*
X14588414Y-13357386D01*
X14602700Y-13385957D01*
X14602700Y-13471671D01*
X14588414Y-13500243D01*
X14574128Y-13514529D01*
X14545557Y-13528814D01*
X14488414Y-13528814D01*
X14459843Y-13514529D01*
X14731271Y-13500243D02*
X14745557Y-13514529D01*
X14731271Y-13528814D01*
X14716986Y-13514529D01*
X14731271Y-13500243D01*
X14731271Y-13528814D01*
X14731271Y-13343100D02*
X14745557Y-13357386D01*
X14731271Y-13371671D01*
X14716986Y-13357386D01*
X14731271Y-13343100D01*
X14731271Y-13371671D01*
X12347700Y-14003100D02*
X12387700Y-14043100D01*
X12387700Y-14003100D02*
X12347700Y-14043100D01*
X12731271Y-13858814D02*
X12759843Y-13858814D01*
X12788414Y-13873100D01*
X12802700Y-13887386D01*
X12816986Y-13915957D01*
X12831271Y-13973100D01*
X12831271Y-14044529D01*
X12816986Y-14101671D01*
X12802700Y-14130243D01*
X12788414Y-14144529D01*
X12759843Y-14158814D01*
X12731271Y-14158814D01*
X12702700Y-14144529D01*
X12688414Y-14130243D01*
X12674128Y-14101671D01*
X12659843Y-14044529D01*
X12659843Y-13973100D01*
X12674128Y-13915957D01*
X12688414Y-13887386D01*
X12702700Y-13873100D01*
X12731271Y-13858814D01*
X12959843Y-14130243D02*
X12974128Y-14144529D01*
X12959843Y-14158814D01*
X12945557Y-14144529D01*
X12959843Y-14130243D01*
X12959843Y-14158814D01*
X13231271Y-13958814D02*
X13231271Y-14158814D01*
X13159843Y-13844529D02*
X13088414Y-14058814D01*
X13274128Y-14058814D01*
X13445557Y-13858814D02*
X13474128Y-13858814D01*
X13502700Y-13873100D01*
X13516986Y-13887386D01*
X13531271Y-13915957D01*
X13545557Y-13973100D01*
X13545557Y-14044529D01*
X13531271Y-14101671D01*
X13516986Y-14130243D01*
X13502700Y-14144529D01*
X13474128Y-14158814D01*
X13445557Y-14158814D01*
X13416986Y-14144529D01*
X13402700Y-14130243D01*
X13388414Y-14101671D01*
X13374128Y-14044529D01*
X13374128Y-13973100D01*
X13388414Y-13915957D01*
X13402700Y-13887386D01*
X13416986Y-13873100D01*
X13445557Y-13858814D01*
X13674128Y-14158814D02*
X13674128Y-13958814D01*
X13674128Y-13987386D02*
X13688414Y-13973100D01*
X13716986Y-13958814D01*
X13759843Y-13958814D01*
X13788414Y-13973100D01*
X13802700Y-14001671D01*
X13802700Y-14158814D01*
X13802700Y-14001671D02*
X13816986Y-13973100D01*
X13845557Y-13958814D01*
X13888414Y-13958814D01*
X13916986Y-13973100D01*
X13931271Y-14001671D01*
X13931271Y-14158814D01*
X14074128Y-14158814D02*
X14074128Y-13958814D01*
X14074128Y-13987386D02*
X14088414Y-13973100D01*
X14116986Y-13958814D01*
X14159843Y-13958814D01*
X14188414Y-13973100D01*
X14202700Y-14001671D01*
X14202700Y-14158814D01*
X14202700Y-14001671D02*
X14216986Y-13973100D01*
X14245557Y-13958814D01*
X14288414Y-13958814D01*
X14316986Y-13973100D01*
X14331271Y-14001671D01*
X14331271Y-14158814D01*
X14916986Y-13844529D02*
X14659843Y-14230243D01*
X15302700Y-13858814D02*
X15331271Y-13858814D01*
X15359843Y-13873100D01*
X15374128Y-13887386D01*
X15388414Y-13915957D01*
X15402700Y-13973100D01*
X15402700Y-14044529D01*
X15388414Y-14101671D01*
X15374128Y-14130243D01*
X15359843Y-14144529D01*
X15331271Y-14158814D01*
X15302700Y-14158814D01*
X15274128Y-14144529D01*
X15259843Y-14130243D01*
X15245557Y-14101671D01*
X15231271Y-14044529D01*
X15231271Y-13973100D01*
X15245557Y-13915957D01*
X15259843Y-13887386D01*
X15274128Y-13873100D01*
X15302700Y-13858814D01*
X15531271Y-14130243D02*
X15545557Y-14144529D01*
X15531271Y-14158814D01*
X15516986Y-14144529D01*
X15531271Y-14130243D01*
X15531271Y-14158814D01*
X15731271Y-13858814D02*
X15759843Y-13858814D01*
X15788414Y-13873100D01*
X15802700Y-13887386D01*
X15816986Y-13915957D01*
X15831271Y-13973100D01*
X15831271Y-14044529D01*
X15816986Y-14101671D01*
X15802700Y-14130243D01*
X15788414Y-14144529D01*
X15759843Y-14158814D01*
X15731271Y-14158814D01*
X15702700Y-14144529D01*
X15688414Y-14130243D01*
X15674128Y-14101671D01*
X15659843Y-14044529D01*
X15659843Y-13973100D01*
X15674128Y-13915957D01*
X15688414Y-13887386D01*
X15702700Y-13873100D01*
X15731271Y-13858814D01*
X16116986Y-14158814D02*
X15945557Y-14158814D01*
X16031271Y-14158814D02*
X16031271Y-13858814D01*
X16002700Y-13901671D01*
X15974128Y-13930243D01*
X15945557Y-13944529D01*
X16374128Y-13858814D02*
X16316986Y-13858814D01*
X16288414Y-13873100D01*
X16274128Y-13887386D01*
X16245557Y-13930243D01*
X16231271Y-13987386D01*
X16231271Y-14101671D01*
X16245557Y-14130243D01*
X16259843Y-14144529D01*
X16288414Y-14158814D01*
X16345557Y-14158814D01*
X16374128Y-14144529D01*
X16388414Y-14130243D01*
X16402700Y-14101671D01*
X16402700Y-14030243D01*
X16388414Y-14001671D01*
X16374128Y-13987386D01*
X16345557Y-13973100D01*
X16288414Y-13973100D01*
X16259843Y-13987386D01*
X16245557Y-14001671D01*
X16231271Y-14030243D01*
X16516986Y-13858814D02*
X16516986Y-13915957D01*
X16631271Y-13858814D02*
X16631271Y-13915957D01*
X17074128Y-14273100D02*
X17059843Y-14258814D01*
X17031271Y-14215957D01*
X17016986Y-14187386D01*
X17002700Y-14144529D01*
X16988414Y-14073100D01*
X16988414Y-14015957D01*
X17002700Y-13944529D01*
X17016986Y-13901671D01*
X17031271Y-13873100D01*
X17059843Y-13830243D01*
X17074128Y-13815957D01*
X17174128Y-13887386D02*
X17188414Y-13873100D01*
X17216986Y-13858814D01*
X17288414Y-13858814D01*
X17316986Y-13873100D01*
X17331271Y-13887386D01*
X17345557Y-13915957D01*
X17345557Y-13944529D01*
X17331271Y-13987386D01*
X17159843Y-14158814D01*
X17345557Y-14158814D01*
X17702700Y-14158814D02*
X17702700Y-13858814D01*
X17831271Y-14158814D02*
X17831271Y-14001671D01*
X17816986Y-13973100D01*
X17788414Y-13958814D01*
X17745557Y-13958814D01*
X17716986Y-13973100D01*
X17702700Y-13987386D01*
X18016986Y-14158814D02*
X17988414Y-14144529D01*
X17974128Y-14130243D01*
X17959843Y-14101671D01*
X17959843Y-14015957D01*
X17974128Y-13987386D01*
X17988414Y-13973100D01*
X18016986Y-13958814D01*
X18059843Y-13958814D01*
X18088414Y-13973100D01*
X18102700Y-13987386D01*
X18116986Y-14015957D01*
X18116986Y-14101671D01*
X18102700Y-14130243D01*
X18088414Y-14144529D01*
X18059843Y-14158814D01*
X18016986Y-14158814D01*
X18288414Y-14158814D02*
X18259843Y-14144529D01*
X18245557Y-14115957D01*
X18245557Y-13858814D01*
X18516986Y-14144529D02*
X18488414Y-14158814D01*
X18431271Y-14158814D01*
X18402700Y-14144529D01*
X18388414Y-14115957D01*
X18388414Y-14001671D01*
X18402700Y-13973100D01*
X18431271Y-13958814D01*
X18488414Y-13958814D01*
X18516986Y-13973100D01*
X18531271Y-14001671D01*
X18531271Y-14030243D01*
X18388414Y-14058814D01*
X18645557Y-14144529D02*
X18674128Y-14158814D01*
X18731271Y-14158814D01*
X18759843Y-14144529D01*
X18774128Y-14115957D01*
X18774128Y-14101671D01*
X18759843Y-14073100D01*
X18731271Y-14058814D01*
X18688414Y-14058814D01*
X18659843Y-14044529D01*
X18645557Y-14015957D01*
X18645557Y-14001671D01*
X18659843Y-13973100D01*
X18688414Y-13958814D01*
X18731271Y-13958814D01*
X18759843Y-13973100D01*
X18874128Y-14273100D02*
X18888414Y-14258814D01*
X18916986Y-14215957D01*
X18931271Y-14187386D01*
X18945557Y-14144529D01*
X18959843Y-14073100D01*
X18959843Y-14015957D01*
X18945557Y-13944529D01*
X18931271Y-13901671D01*
X18916986Y-13873100D01*
X18888414Y-13830243D01*
X18874128Y-13815957D01*
X12387700Y-14419100D02*
G75*
G03*
X12387700Y-14419100I-40000J0D01*
G01*
X12731271Y-14254814D02*
X12759843Y-14254814D01*
X12788414Y-14269100D01*
X12802700Y-14283386D01*
X12816986Y-14311957D01*
X12831271Y-14369100D01*
X12831271Y-14440529D01*
X12816986Y-14497671D01*
X12802700Y-14526243D01*
X12788414Y-14540529D01*
X12759843Y-14554814D01*
X12731271Y-14554814D01*
X12702700Y-14540529D01*
X12688414Y-14526243D01*
X12674128Y-14497671D01*
X12659843Y-14440529D01*
X12659843Y-14369100D01*
X12674128Y-14311957D01*
X12688414Y-14283386D01*
X12702700Y-14269100D01*
X12731271Y-14254814D01*
X12959843Y-14526243D02*
X12974128Y-14540529D01*
X12959843Y-14554814D01*
X12945557Y-14540529D01*
X12959843Y-14526243D01*
X12959843Y-14554814D01*
X13145557Y-14383386D02*
X13116986Y-14369100D01*
X13102700Y-14354814D01*
X13088414Y-14326243D01*
X13088414Y-14311957D01*
X13102700Y-14283386D01*
X13116986Y-14269100D01*
X13145557Y-14254814D01*
X13202700Y-14254814D01*
X13231271Y-14269100D01*
X13245557Y-14283386D01*
X13259843Y-14311957D01*
X13259843Y-14326243D01*
X13245557Y-14354814D01*
X13231271Y-14369100D01*
X13202700Y-14383386D01*
X13145557Y-14383386D01*
X13116986Y-14397671D01*
X13102700Y-14411957D01*
X13088414Y-14440529D01*
X13088414Y-14497671D01*
X13102700Y-14526243D01*
X13116986Y-14540529D01*
X13145557Y-14554814D01*
X13202700Y-14554814D01*
X13231271Y-14540529D01*
X13245557Y-14526243D01*
X13259843Y-14497671D01*
X13259843Y-14440529D01*
X13245557Y-14411957D01*
X13231271Y-14397671D01*
X13202700Y-14383386D01*
X13445557Y-14254814D02*
X13474128Y-14254814D01*
X13502700Y-14269100D01*
X13516986Y-14283386D01*
X13531271Y-14311957D01*
X13545557Y-14369100D01*
X13545557Y-14440529D01*
X13531271Y-14497671D01*
X13516986Y-14526243D01*
X13502700Y-14540529D01*
X13474128Y-14554814D01*
X13445557Y-14554814D01*
X13416986Y-14540529D01*
X13402700Y-14526243D01*
X13388414Y-14497671D01*
X13374128Y-14440529D01*
X13374128Y-14369100D01*
X13388414Y-14311957D01*
X13402700Y-14283386D01*
X13416986Y-14269100D01*
X13445557Y-14254814D01*
X13674128Y-14554814D02*
X13674128Y-14354814D01*
X13674128Y-14383386D02*
X13688414Y-14369100D01*
X13716986Y-14354814D01*
X13759843Y-14354814D01*
X13788414Y-14369100D01*
X13802700Y-14397671D01*
X13802700Y-14554814D01*
X13802700Y-14397671D02*
X13816986Y-14369100D01*
X13845557Y-14354814D01*
X13888414Y-14354814D01*
X13916986Y-14369100D01*
X13931271Y-14397671D01*
X13931271Y-14554814D01*
X14074128Y-14554814D02*
X14074128Y-14354814D01*
X14074128Y-14383386D02*
X14088414Y-14369100D01*
X14116986Y-14354814D01*
X14159843Y-14354814D01*
X14188414Y-14369100D01*
X14202700Y-14397671D01*
X14202700Y-14554814D01*
X14202700Y-14397671D02*
X14216986Y-14369100D01*
X14245557Y-14354814D01*
X14288414Y-14354814D01*
X14316986Y-14369100D01*
X14331271Y-14397671D01*
X14331271Y-14554814D01*
X14916986Y-14240529D02*
X14659843Y-14626243D01*
X15302700Y-14254814D02*
X15331271Y-14254814D01*
X15359843Y-14269100D01*
X15374128Y-14283386D01*
X15388414Y-14311957D01*
X15402700Y-14369100D01*
X15402700Y-14440529D01*
X15388414Y-14497671D01*
X15374128Y-14526243D01*
X15359843Y-14540529D01*
X15331271Y-14554814D01*
X15302700Y-14554814D01*
X15274128Y-14540529D01*
X15259843Y-14526243D01*
X15245557Y-14497671D01*
X15231271Y-14440529D01*
X15231271Y-14369100D01*
X15245557Y-14311957D01*
X15259843Y-14283386D01*
X15274128Y-14269100D01*
X15302700Y-14254814D01*
X15531271Y-14526243D02*
X15545557Y-14540529D01*
X15531271Y-14554814D01*
X15516986Y-14540529D01*
X15531271Y-14526243D01*
X15531271Y-14554814D01*
X15731271Y-14254814D02*
X15759843Y-14254814D01*
X15788414Y-14269100D01*
X15802700Y-14283386D01*
X15816986Y-14311957D01*
X15831271Y-14369100D01*
X15831271Y-14440529D01*
X15816986Y-14497671D01*
X15802700Y-14526243D01*
X15788414Y-14540529D01*
X15759843Y-14554814D01*
X15731271Y-14554814D01*
X15702700Y-14540529D01*
X15688414Y-14526243D01*
X15674128Y-14497671D01*
X15659843Y-14440529D01*
X15659843Y-14369100D01*
X15674128Y-14311957D01*
X15688414Y-14283386D01*
X15702700Y-14269100D01*
X15731271Y-14254814D01*
X15931271Y-14254814D02*
X16116986Y-14254814D01*
X16016986Y-14369100D01*
X16059843Y-14369100D01*
X16088414Y-14383386D01*
X16102700Y-14397671D01*
X16116986Y-14426243D01*
X16116986Y-14497671D01*
X16102700Y-14526243D01*
X16088414Y-14540529D01*
X16059843Y-14554814D01*
X15974128Y-14554814D01*
X15945557Y-14540529D01*
X15931271Y-14526243D01*
X16402700Y-14554814D02*
X16231271Y-14554814D01*
X16316986Y-14554814D02*
X16316986Y-14254814D01*
X16288414Y-14297671D01*
X16259843Y-14326243D01*
X16231271Y-14340529D01*
X16516986Y-14254814D02*
X16516986Y-14311957D01*
X16631271Y-14254814D02*
X16631271Y-14311957D01*
X17074128Y-14669100D02*
X17059843Y-14654814D01*
X17031271Y-14611957D01*
X17016986Y-14583386D01*
X17002700Y-14540529D01*
X16988414Y-14469100D01*
X16988414Y-14411957D01*
X17002700Y-14340529D01*
X17016986Y-14297671D01*
X17031271Y-14269100D01*
X17059843Y-14226243D01*
X17074128Y-14211957D01*
X17174128Y-14283386D02*
X17188414Y-14269100D01*
X17216986Y-14254814D01*
X17288414Y-14254814D01*
X17316986Y-14269100D01*
X17331271Y-14283386D01*
X17345557Y-14311957D01*
X17345557Y-14340529D01*
X17331271Y-14383386D01*
X17159843Y-14554814D01*
X17345557Y-14554814D01*
X17516986Y-14383386D02*
X17488414Y-14369100D01*
X17474128Y-14354814D01*
X17459843Y-14326243D01*
X17459843Y-14311957D01*
X17474128Y-14283386D01*
X17488414Y-14269100D01*
X17516986Y-14254814D01*
X17574128Y-14254814D01*
X17602700Y-14269100D01*
X17616986Y-14283386D01*
X17631271Y-14311957D01*
X17631271Y-14326243D01*
X17616986Y-14354814D01*
X17602700Y-14369100D01*
X17574128Y-14383386D01*
X17516986Y-14383386D01*
X17488414Y-14397671D01*
X17474128Y-14411957D01*
X17459843Y-14440529D01*
X17459843Y-14497671D01*
X17474128Y-14526243D01*
X17488414Y-14540529D01*
X17516986Y-14554814D01*
X17574128Y-14554814D01*
X17602700Y-14540529D01*
X17616986Y-14526243D01*
X17631271Y-14497671D01*
X17631271Y-14440529D01*
X17616986Y-14411957D01*
X17602700Y-14397671D01*
X17574128Y-14383386D01*
X17988414Y-14554814D02*
X17988414Y-14254814D01*
X18116986Y-14554814D02*
X18116986Y-14397671D01*
X18102700Y-14369100D01*
X18074128Y-14354814D01*
X18031271Y-14354814D01*
X18002700Y-14369100D01*
X17988414Y-14383386D01*
X18302700Y-14554814D02*
X18274128Y-14540529D01*
X18259843Y-14526243D01*
X18245557Y-14497671D01*
X18245557Y-14411957D01*
X18259843Y-14383386D01*
X18274128Y-14369100D01*
X18302700Y-14354814D01*
X18345557Y-14354814D01*
X18374128Y-14369100D01*
X18388414Y-14383386D01*
X18402700Y-14411957D01*
X18402700Y-14497671D01*
X18388414Y-14526243D01*
X18374128Y-14540529D01*
X18345557Y-14554814D01*
X18302700Y-14554814D01*
X18574128Y-14554814D02*
X18545557Y-14540529D01*
X18531271Y-14511957D01*
X18531271Y-14254814D01*
X18802700Y-14540529D02*
X18774128Y-14554814D01*
X18716986Y-14554814D01*
X18688414Y-14540529D01*
X18674128Y-14511957D01*
X18674128Y-14397671D01*
X18688414Y-14369100D01*
X18716986Y-14354814D01*
X18774128Y-14354814D01*
X18802700Y-14369100D01*
X18816986Y-14397671D01*
X18816986Y-14426243D01*
X18674128Y-14454814D01*
X18931271Y-14540529D02*
X18959843Y-14554814D01*
X19016986Y-14554814D01*
X19045557Y-14540529D01*
X19059843Y-14511957D01*
X19059843Y-14497671D01*
X19045557Y-14469100D01*
X19016986Y-14454814D01*
X18974128Y-14454814D01*
X18945557Y-14440529D01*
X18931271Y-14411957D01*
X18931271Y-14397671D01*
X18945557Y-14369100D01*
X18974128Y-14354814D01*
X19016986Y-14354814D01*
X19045557Y-14369100D01*
X19159843Y-14669100D02*
X19174128Y-14654814D01*
X19202700Y-14611957D01*
X19216986Y-14583386D01*
X19231271Y-14540529D01*
X19245557Y-14469100D01*
X19245557Y-14411957D01*
X19231271Y-14340529D01*
X19216986Y-14297671D01*
X19202700Y-14269100D01*
X19174128Y-14226243D01*
X19159843Y-14211957D01*
X12342700Y-14770100D02*
X12342700Y-14860100D01*
X12297700Y-14815100D02*
X12387700Y-14815100D01*
X12731271Y-14650814D02*
X12759843Y-14650814D01*
X12788414Y-14665100D01*
X12802700Y-14679386D01*
X12816986Y-14707957D01*
X12831271Y-14765100D01*
X12831271Y-14836529D01*
X12816986Y-14893671D01*
X12802700Y-14922243D01*
X12788414Y-14936529D01*
X12759843Y-14950814D01*
X12731271Y-14950814D01*
X12702700Y-14936529D01*
X12688414Y-14922243D01*
X12674128Y-14893671D01*
X12659843Y-14836529D01*
X12659843Y-14765100D01*
X12674128Y-14707957D01*
X12688414Y-14679386D01*
X12702700Y-14665100D01*
X12731271Y-14650814D01*
X12959843Y-14922243D02*
X12974128Y-14936529D01*
X12959843Y-14950814D01*
X12945557Y-14936529D01*
X12959843Y-14922243D01*
X12959843Y-14950814D01*
X13116986Y-14950814D02*
X13174128Y-14950814D01*
X13202700Y-14936529D01*
X13216986Y-14922243D01*
X13245557Y-14879386D01*
X13259843Y-14822243D01*
X13259843Y-14707957D01*
X13245557Y-14679386D01*
X13231271Y-14665100D01*
X13202700Y-14650814D01*
X13145557Y-14650814D01*
X13116986Y-14665100D01*
X13102700Y-14679386D01*
X13088414Y-14707957D01*
X13088414Y-14779386D01*
X13102700Y-14807957D01*
X13116986Y-14822243D01*
X13145557Y-14836529D01*
X13202700Y-14836529D01*
X13231271Y-14822243D01*
X13245557Y-14807957D01*
X13259843Y-14779386D01*
X13445557Y-14650814D02*
X13474128Y-14650814D01*
X13502700Y-14665100D01*
X13516986Y-14679386D01*
X13531271Y-14707957D01*
X13545557Y-14765100D01*
X13545557Y-14836529D01*
X13531271Y-14893671D01*
X13516986Y-14922243D01*
X13502700Y-14936529D01*
X13474128Y-14950814D01*
X13445557Y-14950814D01*
X13416986Y-14936529D01*
X13402700Y-14922243D01*
X13388414Y-14893671D01*
X13374128Y-14836529D01*
X13374128Y-14765100D01*
X13388414Y-14707957D01*
X13402700Y-14679386D01*
X13416986Y-14665100D01*
X13445557Y-14650814D01*
X13674128Y-14950814D02*
X13674128Y-14750814D01*
X13674128Y-14779386D02*
X13688414Y-14765100D01*
X13716986Y-14750814D01*
X13759843Y-14750814D01*
X13788414Y-14765100D01*
X13802700Y-14793671D01*
X13802700Y-14950814D01*
X13802700Y-14793671D02*
X13816986Y-14765100D01*
X13845557Y-14750814D01*
X13888414Y-14750814D01*
X13916986Y-14765100D01*
X13931271Y-14793671D01*
X13931271Y-14950814D01*
X14074128Y-14950814D02*
X14074128Y-14750814D01*
X14074128Y-14779386D02*
X14088414Y-14765100D01*
X14116986Y-14750814D01*
X14159843Y-14750814D01*
X14188414Y-14765100D01*
X14202700Y-14793671D01*
X14202700Y-14950814D01*
X14202700Y-14793671D02*
X14216986Y-14765100D01*
X14245557Y-14750814D01*
X14288414Y-14750814D01*
X14316986Y-14765100D01*
X14331271Y-14793671D01*
X14331271Y-14950814D01*
X14916986Y-14636529D02*
X14659843Y-15022243D01*
X15302700Y-14650814D02*
X15331271Y-14650814D01*
X15359843Y-14665100D01*
X15374128Y-14679386D01*
X15388414Y-14707957D01*
X15402700Y-14765100D01*
X15402700Y-14836529D01*
X15388414Y-14893671D01*
X15374128Y-14922243D01*
X15359843Y-14936529D01*
X15331271Y-14950814D01*
X15302700Y-14950814D01*
X15274128Y-14936529D01*
X15259843Y-14922243D01*
X15245557Y-14893671D01*
X15231271Y-14836529D01*
X15231271Y-14765100D01*
X15245557Y-14707957D01*
X15259843Y-14679386D01*
X15274128Y-14665100D01*
X15302700Y-14650814D01*
X15531271Y-14922243D02*
X15545557Y-14936529D01*
X15531271Y-14950814D01*
X15516986Y-14936529D01*
X15531271Y-14922243D01*
X15531271Y-14950814D01*
X15731271Y-14650814D02*
X15759843Y-14650814D01*
X15788414Y-14665100D01*
X15802700Y-14679386D01*
X15816986Y-14707957D01*
X15831271Y-14765100D01*
X15831271Y-14836529D01*
X15816986Y-14893671D01*
X15802700Y-14922243D01*
X15788414Y-14936529D01*
X15759843Y-14950814D01*
X15731271Y-14950814D01*
X15702700Y-14936529D01*
X15688414Y-14922243D01*
X15674128Y-14893671D01*
X15659843Y-14836529D01*
X15659843Y-14765100D01*
X15674128Y-14707957D01*
X15688414Y-14679386D01*
X15702700Y-14665100D01*
X15731271Y-14650814D01*
X15931271Y-14650814D02*
X16116986Y-14650814D01*
X16016986Y-14765100D01*
X16059843Y-14765100D01*
X16088414Y-14779386D01*
X16102700Y-14793671D01*
X16116986Y-14822243D01*
X16116986Y-14893671D01*
X16102700Y-14922243D01*
X16088414Y-14936529D01*
X16059843Y-14950814D01*
X15974128Y-14950814D01*
X15945557Y-14936529D01*
X15931271Y-14922243D01*
X16388414Y-14650814D02*
X16245557Y-14650814D01*
X16231271Y-14793671D01*
X16245557Y-14779386D01*
X16274128Y-14765100D01*
X16345557Y-14765100D01*
X16374128Y-14779386D01*
X16388414Y-14793671D01*
X16402700Y-14822243D01*
X16402700Y-14893671D01*
X16388414Y-14922243D01*
X16374128Y-14936529D01*
X16345557Y-14950814D01*
X16274128Y-14950814D01*
X16245557Y-14936529D01*
X16231271Y-14922243D01*
X16516986Y-14650814D02*
X16516986Y-14707957D01*
X16631271Y-14650814D02*
X16631271Y-14707957D01*
X17074128Y-15065100D02*
X17059843Y-15050814D01*
X17031271Y-15007957D01*
X17016986Y-14979386D01*
X17002700Y-14936529D01*
X16988414Y-14865100D01*
X16988414Y-14807957D01*
X17002700Y-14736529D01*
X17016986Y-14693671D01*
X17031271Y-14665100D01*
X17059843Y-14622243D01*
X17074128Y-14607957D01*
X17345557Y-14950814D02*
X17174128Y-14950814D01*
X17259843Y-14950814D02*
X17259843Y-14650814D01*
X17231271Y-14693671D01*
X17202700Y-14722243D01*
X17174128Y-14736529D01*
X17531271Y-14650814D02*
X17559843Y-14650814D01*
X17588414Y-14665100D01*
X17602700Y-14679386D01*
X17616986Y-14707957D01*
X17631271Y-14765100D01*
X17631271Y-14836529D01*
X17616986Y-14893671D01*
X17602700Y-14922243D01*
X17588414Y-14936529D01*
X17559843Y-14950814D01*
X17531271Y-14950814D01*
X17502700Y-14936529D01*
X17488414Y-14922243D01*
X17474128Y-14893671D01*
X17459843Y-14836529D01*
X17459843Y-14765100D01*
X17474128Y-14707957D01*
X17488414Y-14679386D01*
X17502700Y-14665100D01*
X17531271Y-14650814D01*
X17988414Y-14950814D02*
X17988414Y-14650814D01*
X18116986Y-14950814D02*
X18116986Y-14793671D01*
X18102700Y-14765100D01*
X18074128Y-14750814D01*
X18031271Y-14750814D01*
X18002700Y-14765100D01*
X17988414Y-14779386D01*
X18302700Y-14950814D02*
X18274128Y-14936529D01*
X18259843Y-14922243D01*
X18245557Y-14893671D01*
X18245557Y-14807957D01*
X18259843Y-14779386D01*
X18274128Y-14765100D01*
X18302700Y-14750814D01*
X18345557Y-14750814D01*
X18374128Y-14765100D01*
X18388414Y-14779386D01*
X18402700Y-14807957D01*
X18402700Y-14893671D01*
X18388414Y-14922243D01*
X18374128Y-14936529D01*
X18345557Y-14950814D01*
X18302700Y-14950814D01*
X18574128Y-14950814D02*
X18545557Y-14936529D01*
X18531271Y-14907957D01*
X18531271Y-14650814D01*
X18802700Y-14936529D02*
X18774128Y-14950814D01*
X18716986Y-14950814D01*
X18688414Y-14936529D01*
X18674128Y-14907957D01*
X18674128Y-14793671D01*
X18688414Y-14765100D01*
X18716986Y-14750814D01*
X18774128Y-14750814D01*
X18802700Y-14765100D01*
X18816986Y-14793671D01*
X18816986Y-14822243D01*
X18674128Y-14850814D01*
X18931271Y-14936529D02*
X18959843Y-14950814D01*
X19016986Y-14950814D01*
X19045557Y-14936529D01*
X19059843Y-14907957D01*
X19059843Y-14893671D01*
X19045557Y-14865100D01*
X19016986Y-14850814D01*
X18974128Y-14850814D01*
X18945557Y-14836529D01*
X18931271Y-14807957D01*
X18931271Y-14793671D01*
X18945557Y-14765100D01*
X18974128Y-14750814D01*
X19016986Y-14750814D01*
X19045557Y-14765100D01*
X19159843Y-15065100D02*
X19174128Y-15050814D01*
X19202700Y-15007957D01*
X19216986Y-14979386D01*
X19231271Y-14936529D01*
X19245557Y-14865100D01*
X19245557Y-14807957D01*
X19231271Y-14736529D01*
X19216986Y-14693671D01*
X19202700Y-14665100D01*
X19174128Y-14622243D01*
X19159843Y-14607957D01*
X12373056Y-15246456D02*
X12373056Y-15175744D01*
X12302344Y-15175744D01*
X12302344Y-15246456D01*
X12373056Y-15246456D01*
X12831271Y-15346814D02*
X12659843Y-15346814D01*
X12745557Y-15346814D02*
X12745557Y-15046814D01*
X12716986Y-15089671D01*
X12688414Y-15118243D01*
X12659843Y-15132529D01*
X12959843Y-15318243D02*
X12974128Y-15332529D01*
X12959843Y-15346814D01*
X12945557Y-15332529D01*
X12959843Y-15318243D01*
X12959843Y-15346814D01*
X13159843Y-15046814D02*
X13188414Y-15046814D01*
X13216986Y-15061100D01*
X13231271Y-15075386D01*
X13245557Y-15103957D01*
X13259843Y-15161100D01*
X13259843Y-15232529D01*
X13245557Y-15289671D01*
X13231271Y-15318243D01*
X13216986Y-15332529D01*
X13188414Y-15346814D01*
X13159843Y-15346814D01*
X13131271Y-15332529D01*
X13116986Y-15318243D01*
X13102700Y-15289671D01*
X13088414Y-15232529D01*
X13088414Y-15161100D01*
X13102700Y-15103957D01*
X13116986Y-15075386D01*
X13131271Y-15061100D01*
X13159843Y-15046814D01*
X13445557Y-15046814D02*
X13474128Y-15046814D01*
X13502700Y-15061100D01*
X13516986Y-15075386D01*
X13531271Y-15103957D01*
X13545557Y-15161100D01*
X13545557Y-15232529D01*
X13531271Y-15289671D01*
X13516986Y-15318243D01*
X13502700Y-15332529D01*
X13474128Y-15346814D01*
X13445557Y-15346814D01*
X13416986Y-15332529D01*
X13402700Y-15318243D01*
X13388414Y-15289671D01*
X13374128Y-15232529D01*
X13374128Y-15161100D01*
X13388414Y-15103957D01*
X13402700Y-15075386D01*
X13416986Y-15061100D01*
X13445557Y-15046814D01*
X13674128Y-15346814D02*
X13674128Y-15146814D01*
X13674128Y-15175386D02*
X13688414Y-15161100D01*
X13716986Y-15146814D01*
X13759843Y-15146814D01*
X13788414Y-15161100D01*
X13802700Y-15189671D01*
X13802700Y-15346814D01*
X13802700Y-15189671D02*
X13816986Y-15161100D01*
X13845557Y-15146814D01*
X13888414Y-15146814D01*
X13916986Y-15161100D01*
X13931271Y-15189671D01*
X13931271Y-15346814D01*
X14074128Y-15346814D02*
X14074128Y-15146814D01*
X14074128Y-15175386D02*
X14088414Y-15161100D01*
X14116986Y-15146814D01*
X14159843Y-15146814D01*
X14188414Y-15161100D01*
X14202700Y-15189671D01*
X14202700Y-15346814D01*
X14202700Y-15189671D02*
X14216986Y-15161100D01*
X14245557Y-15146814D01*
X14288414Y-15146814D01*
X14316986Y-15161100D01*
X14331271Y-15189671D01*
X14331271Y-15346814D01*
X14916986Y-15032529D02*
X14659843Y-15418243D01*
X15302700Y-15046814D02*
X15331271Y-15046814D01*
X15359843Y-15061100D01*
X15374128Y-15075386D01*
X15388414Y-15103957D01*
X15402700Y-15161100D01*
X15402700Y-15232529D01*
X15388414Y-15289671D01*
X15374128Y-15318243D01*
X15359843Y-15332529D01*
X15331271Y-15346814D01*
X15302700Y-15346814D01*
X15274128Y-15332529D01*
X15259843Y-15318243D01*
X15245557Y-15289671D01*
X15231271Y-15232529D01*
X15231271Y-15161100D01*
X15245557Y-15103957D01*
X15259843Y-15075386D01*
X15274128Y-15061100D01*
X15302700Y-15046814D01*
X15531271Y-15318243D02*
X15545557Y-15332529D01*
X15531271Y-15346814D01*
X15516986Y-15332529D01*
X15531271Y-15318243D01*
X15531271Y-15346814D01*
X15731271Y-15046814D02*
X15759843Y-15046814D01*
X15788414Y-15061100D01*
X15802700Y-15075386D01*
X15816986Y-15103957D01*
X15831271Y-15161100D01*
X15831271Y-15232529D01*
X15816986Y-15289671D01*
X15802700Y-15318243D01*
X15788414Y-15332529D01*
X15759843Y-15346814D01*
X15731271Y-15346814D01*
X15702700Y-15332529D01*
X15688414Y-15318243D01*
X15674128Y-15289671D01*
X15659843Y-15232529D01*
X15659843Y-15161100D01*
X15674128Y-15103957D01*
X15688414Y-15075386D01*
X15702700Y-15061100D01*
X15731271Y-15046814D01*
X15931271Y-15046814D02*
X16116986Y-15046814D01*
X16016986Y-15161100D01*
X16059843Y-15161100D01*
X16088414Y-15175386D01*
X16102700Y-15189671D01*
X16116986Y-15218243D01*
X16116986Y-15289671D01*
X16102700Y-15318243D01*
X16088414Y-15332529D01*
X16059843Y-15346814D01*
X15974128Y-15346814D01*
X15945557Y-15332529D01*
X15931271Y-15318243D01*
X16259843Y-15346814D02*
X16316986Y-15346814D01*
X16345557Y-15332529D01*
X16359843Y-15318243D01*
X16388414Y-15275386D01*
X16402700Y-15218243D01*
X16402700Y-15103957D01*
X16388414Y-15075386D01*
X16374128Y-15061100D01*
X16345557Y-15046814D01*
X16288414Y-15046814D01*
X16259843Y-15061100D01*
X16245557Y-15075386D01*
X16231271Y-15103957D01*
X16231271Y-15175386D01*
X16245557Y-15203957D01*
X16259843Y-15218243D01*
X16288414Y-15232529D01*
X16345557Y-15232529D01*
X16374128Y-15218243D01*
X16388414Y-15203957D01*
X16402700Y-15175386D01*
X16516986Y-15046814D02*
X16516986Y-15103957D01*
X16631271Y-15046814D02*
X16631271Y-15103957D01*
X17074128Y-15461100D02*
X17059843Y-15446814D01*
X17031271Y-15403957D01*
X17016986Y-15375386D01*
X17002700Y-15332529D01*
X16988414Y-15261100D01*
X16988414Y-15203957D01*
X17002700Y-15132529D01*
X17016986Y-15089671D01*
X17031271Y-15061100D01*
X17059843Y-15018243D01*
X17074128Y-15003957D01*
X17174128Y-15075386D02*
X17188414Y-15061100D01*
X17216986Y-15046814D01*
X17288414Y-15046814D01*
X17316986Y-15061100D01*
X17331271Y-15075386D01*
X17345557Y-15103957D01*
X17345557Y-15132529D01*
X17331271Y-15175386D01*
X17159843Y-15346814D01*
X17345557Y-15346814D01*
X17602700Y-15046814D02*
X17545557Y-15046814D01*
X17516986Y-15061100D01*
X17502700Y-15075386D01*
X17474128Y-15118243D01*
X17459843Y-15175386D01*
X17459843Y-15289671D01*
X17474128Y-15318243D01*
X17488414Y-15332529D01*
X17516986Y-15346814D01*
X17574128Y-15346814D01*
X17602700Y-15332529D01*
X17616986Y-15318243D01*
X17631271Y-15289671D01*
X17631271Y-15218243D01*
X17616986Y-15189671D01*
X17602700Y-15175386D01*
X17574128Y-15161100D01*
X17516986Y-15161100D01*
X17488414Y-15175386D01*
X17474128Y-15189671D01*
X17459843Y-15218243D01*
X17988414Y-15346814D02*
X17988414Y-15046814D01*
X18116986Y-15346814D02*
X18116986Y-15189671D01*
X18102700Y-15161100D01*
X18074128Y-15146814D01*
X18031271Y-15146814D01*
X18002700Y-15161100D01*
X17988414Y-15175386D01*
X18302700Y-15346814D02*
X18274128Y-15332529D01*
X18259843Y-15318243D01*
X18245557Y-15289671D01*
X18245557Y-15203957D01*
X18259843Y-15175386D01*
X18274128Y-15161100D01*
X18302700Y-15146814D01*
X18345557Y-15146814D01*
X18374128Y-15161100D01*
X18388414Y-15175386D01*
X18402700Y-15203957D01*
X18402700Y-15289671D01*
X18388414Y-15318243D01*
X18374128Y-15332529D01*
X18345557Y-15346814D01*
X18302700Y-15346814D01*
X18574128Y-15346814D02*
X18545557Y-15332529D01*
X18531271Y-15303957D01*
X18531271Y-15046814D01*
X18802700Y-15332529D02*
X18774128Y-15346814D01*
X18716986Y-15346814D01*
X18688414Y-15332529D01*
X18674128Y-15303957D01*
X18674128Y-15189671D01*
X18688414Y-15161100D01*
X18716986Y-15146814D01*
X18774128Y-15146814D01*
X18802700Y-15161100D01*
X18816986Y-15189671D01*
X18816986Y-15218243D01*
X18674128Y-15246814D01*
X18931271Y-15332529D02*
X18959843Y-15346814D01*
X19016986Y-15346814D01*
X19045557Y-15332529D01*
X19059843Y-15303957D01*
X19059843Y-15289671D01*
X19045557Y-15261100D01*
X19016986Y-15246814D01*
X18974128Y-15246814D01*
X18945557Y-15232529D01*
X18931271Y-15203957D01*
X18931271Y-15189671D01*
X18945557Y-15161100D01*
X18974128Y-15146814D01*
X19016986Y-15146814D01*
X19045557Y-15161100D01*
X19159843Y-15461100D02*
X19174128Y-15446814D01*
X19202700Y-15403957D01*
X19216986Y-15375386D01*
X19231271Y-15332529D01*
X19245557Y-15261100D01*
X19245557Y-15203957D01*
X19231271Y-15132529D01*
X19216986Y-15089671D01*
X19202700Y-15061100D01*
X19174128Y-15018243D01*
X19159843Y-15003957D01*
X12262700Y-15732100D02*
X12387700Y-15607100D01*
X12262700Y-15482100D01*
X12137700Y-15607100D01*
X12262700Y-15732100D01*
X12659843Y-15471386D02*
X12674128Y-15457100D01*
X12702700Y-15442814D01*
X12774128Y-15442814D01*
X12802700Y-15457100D01*
X12816986Y-15471386D01*
X12831271Y-15499957D01*
X12831271Y-15528529D01*
X12816986Y-15571386D01*
X12645557Y-15742814D01*
X12831271Y-15742814D01*
X12959843Y-15714243D02*
X12974128Y-15728529D01*
X12959843Y-15742814D01*
X12945557Y-15728529D01*
X12959843Y-15714243D01*
X12959843Y-15742814D01*
X13245557Y-15442814D02*
X13102700Y-15442814D01*
X13088414Y-15585671D01*
X13102700Y-15571386D01*
X13131271Y-15557100D01*
X13202700Y-15557100D01*
X13231271Y-15571386D01*
X13245557Y-15585671D01*
X13259843Y-15614243D01*
X13259843Y-15685671D01*
X13245557Y-15714243D01*
X13231271Y-15728529D01*
X13202700Y-15742814D01*
X13131271Y-15742814D01*
X13102700Y-15728529D01*
X13088414Y-15714243D01*
X13445557Y-15442814D02*
X13474128Y-15442814D01*
X13502700Y-15457100D01*
X13516986Y-15471386D01*
X13531271Y-15499957D01*
X13545557Y-15557100D01*
X13545557Y-15628529D01*
X13531271Y-15685671D01*
X13516986Y-15714243D01*
X13502700Y-15728529D01*
X13474128Y-15742814D01*
X13445557Y-15742814D01*
X13416986Y-15728529D01*
X13402700Y-15714243D01*
X13388414Y-15685671D01*
X13374128Y-15628529D01*
X13374128Y-15557100D01*
X13388414Y-15499957D01*
X13402700Y-15471386D01*
X13416986Y-15457100D01*
X13445557Y-15442814D01*
X13674128Y-15742814D02*
X13674128Y-15542814D01*
X13674128Y-15571386D02*
X13688414Y-15557100D01*
X13716986Y-15542814D01*
X13759843Y-15542814D01*
X13788414Y-15557100D01*
X13802700Y-15585671D01*
X13802700Y-15742814D01*
X13802700Y-15585671D02*
X13816986Y-15557100D01*
X13845557Y-15542814D01*
X13888414Y-15542814D01*
X13916986Y-15557100D01*
X13931271Y-15585671D01*
X13931271Y-15742814D01*
X14074128Y-15742814D02*
X14074128Y-15542814D01*
X14074128Y-15571386D02*
X14088414Y-15557100D01*
X14116986Y-15542814D01*
X14159843Y-15542814D01*
X14188414Y-15557100D01*
X14202700Y-15585671D01*
X14202700Y-15742814D01*
X14202700Y-15585671D02*
X14216986Y-15557100D01*
X14245557Y-15542814D01*
X14288414Y-15542814D01*
X14316986Y-15557100D01*
X14331271Y-15585671D01*
X14331271Y-15742814D01*
X14916986Y-15428529D02*
X14659843Y-15814243D01*
X15302700Y-15442814D02*
X15331271Y-15442814D01*
X15359843Y-15457100D01*
X15374128Y-15471386D01*
X15388414Y-15499957D01*
X15402700Y-15557100D01*
X15402700Y-15628529D01*
X15388414Y-15685671D01*
X15374128Y-15714243D01*
X15359843Y-15728529D01*
X15331271Y-15742814D01*
X15302700Y-15742814D01*
X15274128Y-15728529D01*
X15259843Y-15714243D01*
X15245557Y-15685671D01*
X15231271Y-15628529D01*
X15231271Y-15557100D01*
X15245557Y-15499957D01*
X15259843Y-15471386D01*
X15274128Y-15457100D01*
X15302700Y-15442814D01*
X15531271Y-15714243D02*
X15545557Y-15728529D01*
X15531271Y-15742814D01*
X15516986Y-15728529D01*
X15531271Y-15714243D01*
X15531271Y-15742814D01*
X15731271Y-15442814D02*
X15759843Y-15442814D01*
X15788414Y-15457100D01*
X15802700Y-15471386D01*
X15816986Y-15499957D01*
X15831271Y-15557100D01*
X15831271Y-15628529D01*
X15816986Y-15685671D01*
X15802700Y-15714243D01*
X15788414Y-15728529D01*
X15759843Y-15742814D01*
X15731271Y-15742814D01*
X15702700Y-15728529D01*
X15688414Y-15714243D01*
X15674128Y-15685671D01*
X15659843Y-15628529D01*
X15659843Y-15557100D01*
X15674128Y-15499957D01*
X15688414Y-15471386D01*
X15702700Y-15457100D01*
X15731271Y-15442814D01*
X15974128Y-15742814D02*
X16031271Y-15742814D01*
X16059843Y-15728529D01*
X16074128Y-15714243D01*
X16102700Y-15671386D01*
X16116986Y-15614243D01*
X16116986Y-15499957D01*
X16102700Y-15471386D01*
X16088414Y-15457100D01*
X16059843Y-15442814D01*
X16002700Y-15442814D01*
X15974128Y-15457100D01*
X15959843Y-15471386D01*
X15945557Y-15499957D01*
X15945557Y-15571386D01*
X15959843Y-15599957D01*
X15974128Y-15614243D01*
X16002700Y-15628529D01*
X16059843Y-15628529D01*
X16088414Y-15614243D01*
X16102700Y-15599957D01*
X16116986Y-15571386D01*
X16288414Y-15571386D02*
X16259843Y-15557100D01*
X16245557Y-15542814D01*
X16231271Y-15514243D01*
X16231271Y-15499957D01*
X16245557Y-15471386D01*
X16259843Y-15457100D01*
X16288414Y-15442814D01*
X16345557Y-15442814D01*
X16374128Y-15457100D01*
X16388414Y-15471386D01*
X16402700Y-15499957D01*
X16402700Y-15514243D01*
X16388414Y-15542814D01*
X16374128Y-15557100D01*
X16345557Y-15571386D01*
X16288414Y-15571386D01*
X16259843Y-15585671D01*
X16245557Y-15599957D01*
X16231271Y-15628529D01*
X16231271Y-15685671D01*
X16245557Y-15714243D01*
X16259843Y-15728529D01*
X16288414Y-15742814D01*
X16345557Y-15742814D01*
X16374128Y-15728529D01*
X16388414Y-15714243D01*
X16402700Y-15685671D01*
X16402700Y-15628529D01*
X16388414Y-15599957D01*
X16374128Y-15585671D01*
X16345557Y-15571386D01*
X16516986Y-15442814D02*
X16516986Y-15499957D01*
X16631271Y-15442814D02*
X16631271Y-15499957D01*
X17074128Y-15857100D02*
X17059843Y-15842814D01*
X17031271Y-15799957D01*
X17016986Y-15771386D01*
X17002700Y-15728529D01*
X16988414Y-15657100D01*
X16988414Y-15599957D01*
X17002700Y-15528529D01*
X17016986Y-15485671D01*
X17031271Y-15457100D01*
X17059843Y-15414243D01*
X17074128Y-15399957D01*
X17316986Y-15542814D02*
X17316986Y-15742814D01*
X17245557Y-15428529D02*
X17174128Y-15642814D01*
X17359843Y-15642814D01*
X17702700Y-15742814D02*
X17702700Y-15442814D01*
X17831271Y-15742814D02*
X17831271Y-15585671D01*
X17816986Y-15557100D01*
X17788414Y-15542814D01*
X17745557Y-15542814D01*
X17716986Y-15557100D01*
X17702700Y-15571386D01*
X18016986Y-15742814D02*
X17988414Y-15728529D01*
X17974128Y-15714243D01*
X17959843Y-15685671D01*
X17959843Y-15599957D01*
X17974128Y-15571386D01*
X17988414Y-15557100D01*
X18016986Y-15542814D01*
X18059843Y-15542814D01*
X18088414Y-15557100D01*
X18102700Y-15571386D01*
X18116986Y-15599957D01*
X18116986Y-15685671D01*
X18102700Y-15714243D01*
X18088414Y-15728529D01*
X18059843Y-15742814D01*
X18016986Y-15742814D01*
X18288414Y-15742814D02*
X18259843Y-15728529D01*
X18245557Y-15699957D01*
X18245557Y-15442814D01*
X18516986Y-15728529D02*
X18488414Y-15742814D01*
X18431271Y-15742814D01*
X18402700Y-15728529D01*
X18388414Y-15699957D01*
X18388414Y-15585671D01*
X18402700Y-15557100D01*
X18431271Y-15542814D01*
X18488414Y-15542814D01*
X18516986Y-15557100D01*
X18531271Y-15585671D01*
X18531271Y-15614243D01*
X18388414Y-15642814D01*
X18645557Y-15728529D02*
X18674128Y-15742814D01*
X18731271Y-15742814D01*
X18759843Y-15728529D01*
X18774128Y-15699957D01*
X18774128Y-15685671D01*
X18759843Y-15657100D01*
X18731271Y-15642814D01*
X18688414Y-15642814D01*
X18659843Y-15628529D01*
X18645557Y-15599957D01*
X18645557Y-15585671D01*
X18659843Y-15557100D01*
X18688414Y-15542814D01*
X18731271Y-15542814D01*
X18759843Y-15557100D01*
X18874128Y-15857100D02*
X18888414Y-15842814D01*
X18916986Y-15799957D01*
X18931271Y-15771386D01*
X18945557Y-15728529D01*
X18959843Y-15657100D01*
X18959843Y-15599957D01*
X18945557Y-15528529D01*
X18931271Y-15485671D01*
X18916986Y-15457100D01*
X18888414Y-15414243D01*
X18874128Y-15399957D01*
M02*
