%TF.GenerationSoftware,KiCad,Pcbnew,5.1.9+dfsg1-1+deb11u1*%
%TF.CreationDate,2023-10-13T11:59:52+02:00*%
%TF.ProjectId,mm17d,6d6d3137-642e-46b6-9963-61645f706362,231006*%
%TF.SameCoordinates,Original*%
%TF.FileFunction,Copper,L1,Top*%
%TF.FilePolarity,Positive*%
%FSLAX46Y46*%
G04 Gerber Fmt 4.6, Leading zero omitted, Abs format (unit mm)*
G04 Created by KiCad (PCBNEW 5.1.9+dfsg1-1+deb11u1) date 2023-10-13 11:59:52*
%MOMM*%
%LPD*%
G01*
G04 APERTURE LIST*
%TA.AperFunction,Profile*%
%ADD10C,0.150000*%
%TD*%
%TA.AperFunction,ComponentPad*%
%ADD11R,1.700000X1.700000*%
%TD*%
%TA.AperFunction,ComponentPad*%
%ADD12O,1.700000X1.700000*%
%TD*%
%TA.AperFunction,ComponentPad*%
%ADD13O,1.600000X2.400000*%
%TD*%
%TA.AperFunction,ComponentPad*%
%ADD14R,1.600000X2.400000*%
%TD*%
%TA.AperFunction,ComponentPad*%
%ADD15C,1.998980*%
%TD*%
%TA.AperFunction,ComponentPad*%
%ADD16R,1.998980X1.998980*%
%TD*%
%TA.AperFunction,ComponentPad*%
%ADD17R,1.600000X1.600000*%
%TD*%
%TA.AperFunction,ComponentPad*%
%ADD18C,1.600000*%
%TD*%
%TA.AperFunction,ComponentPad*%
%ADD19R,1.800000X1.800000*%
%TD*%
%TA.AperFunction,ComponentPad*%
%ADD20C,1.800000*%
%TD*%
%TA.AperFunction,ComponentPad*%
%ADD21R,1.500000X1.500000*%
%TD*%
%TA.AperFunction,ComponentPad*%
%ADD22C,1.500000*%
%TD*%
%TA.AperFunction,ViaPad*%
%ADD23C,0.600000*%
%TD*%
%TA.AperFunction,Conductor*%
%ADD24C,1.000000*%
%TD*%
%TA.AperFunction,Conductor*%
%ADD25C,0.500000*%
%TD*%
G04 APERTURE END LIST*
D10*
X123952000Y-67056000D02*
X123952000Y-130556000D01*
X176784000Y-67056000D02*
X123952000Y-67056000D01*
X176784000Y-130556000D02*
X176784000Y-67056000D01*
X123952000Y-130556000D02*
X176784000Y-130556000D01*
D11*
%TO.P,P103,1*%
%TO.N,Net-(C101-Pad1)*%
X127000000Y-76200000D03*
D12*
%TO.P,P103,2*%
%TO.N,GND*%
X127000000Y-78740000D03*
%TO.P,P103,3*%
%TO.N,Net-(P103-Pad3)*%
X127000000Y-81280000D03*
%TO.P,P103,4*%
%TO.N,Net-(P103-Pad4)*%
X127000000Y-83820000D03*
%TD*%
D13*
%TO.P,U101,20*%
%TO.N,Net-(U101-Pad20)*%
X156210000Y-111760000D03*
%TO.P,U101,10*%
%TO.N,GND*%
X133350000Y-91440000D03*
%TO.P,U101,19*%
%TO.N,Net-(U101-Pad19)*%
X153670000Y-111760000D03*
%TO.P,U101,9*%
%TO.N,Net-(U101-Pad9)*%
X135890000Y-91440000D03*
%TO.P,U101,18*%
%TO.N,Net-(R105-Pad1)*%
X151130000Y-111760000D03*
%TO.P,U101,8*%
%TO.N,Net-(C101-Pad1)*%
X138430000Y-91440000D03*
%TO.P,U101,17*%
%TO.N,Net-(R104-Pad1)*%
X148590000Y-111760000D03*
%TO.P,U101,7*%
%TO.N,Net-(U101-Pad7)*%
X140970000Y-91440000D03*
%TO.P,U101,16*%
%TO.N,Net-(R103-Pad1)*%
X146050000Y-111760000D03*
%TO.P,U101,6*%
%TO.N,Net-(R106-Pad2)*%
X143510000Y-91440000D03*
%TO.P,U101,15*%
%TO.N,Net-(R102-Pad2)*%
X143510000Y-111760000D03*
%TO.P,U101,5*%
%TO.N,Net-(C102-Pad1)*%
X146050000Y-91440000D03*
%TO.P,U101,14*%
%TO.N,Net-(U101-Pad14)*%
X140970000Y-111760000D03*
%TO.P,U101,4*%
%TO.N,Net-(U101-Pad4)*%
X148590000Y-91440000D03*
%TO.P,U101,13*%
%TO.N,Net-(R101-Pad2)*%
X138430000Y-111760000D03*
%TO.P,U101,3*%
%TO.N,Net-(U101-Pad3)*%
X151130000Y-91440000D03*
%TO.P,U101,12*%
%TO.N,Net-(U101-Pad12)*%
X135890000Y-111760000D03*
%TO.P,U101,2*%
%TO.N,Net-(R107-Pad2)*%
X153670000Y-91440000D03*
%TO.P,U101,11*%
%TO.N,Net-(U101-Pad11)*%
X133350000Y-111760000D03*
D14*
%TO.P,U101,1*%
%TO.N,Net-(U101-Pad1)*%
X156210000Y-91440000D03*
%TD*%
D15*
%TO.P,R102,1*%
%TO.N,Net-(D103-Pad2)*%
X158750000Y-96520000D03*
%TO.P,R102,2*%
%TO.N,Net-(R102-Pad2)*%
X151130000Y-96520000D03*
%TD*%
%TO.P,R103,1*%
%TO.N,Net-(R103-Pad1)*%
X151130000Y-100330000D03*
%TO.P,R103,2*%
%TO.N,Net-(D104-Pad2)*%
X158750000Y-100330000D03*
%TD*%
%TO.P,R105,1*%
%TO.N,Net-(R105-Pad1)*%
X151130000Y-107950000D03*
%TO.P,R105,2*%
%TO.N,Net-(D106-Pad2)*%
X158750000Y-107950000D03*
%TD*%
%TO.P,R104,1*%
%TO.N,Net-(R104-Pad1)*%
X151130000Y-104140000D03*
%TO.P,R104,2*%
%TO.N,Net-(D105-Pad2)*%
X158750000Y-104140000D03*
%TD*%
%TO.P,R106,1*%
%TO.N,Net-(R101-Pad2)*%
X130810000Y-127000000D03*
%TO.P,R106,2*%
%TO.N,Net-(R106-Pad2)*%
X138430000Y-127000000D03*
%TD*%
%TO.P,R107,1*%
%TO.N,Net-(P103-Pad4)*%
X130810000Y-100330000D03*
%TO.P,R107,2*%
%TO.N,Net-(R107-Pad2)*%
X140970000Y-100330000D03*
%TD*%
%TO.P,R108,1*%
%TO.N,Net-(R107-Pad2)*%
X130810000Y-104140000D03*
%TO.P,R108,2*%
%TO.N,GND*%
X140970000Y-104140000D03*
%TD*%
%TO.P,R101,1*%
%TO.N,Net-(D102-Pad2)*%
X168910000Y-127000000D03*
%TO.P,R101,2*%
%TO.N,Net-(R101-Pad2)*%
X161290000Y-127000000D03*
%TD*%
%TO.P,D101,2*%
%TO.N,GND*%
X173992540Y-120650000D03*
D16*
%TO.P,D101,1*%
%TO.N,Net-(C101-Pad1)*%
X173992540Y-110490000D03*
%TD*%
D17*
%TO.P,C101,1*%
%TO.N,Net-(C101-Pad1)*%
X167005000Y-116205000D03*
D18*
%TO.P,C101,2*%
%TO.N,GND*%
X167005000Y-119705000D03*
%TD*%
%TO.P,C102,1*%
%TO.N,Net-(C102-Pad1)*%
X165100000Y-95250000D03*
%TO.P,C102,2*%
%TO.N,Net-(C102-Pad2)*%
X170100000Y-95250000D03*
%TD*%
D19*
%TO.P,D102,1*%
%TO.N,GND*%
X158750000Y-120650000D03*
D20*
%TO.P,D102,2*%
%TO.N,Net-(D102-Pad2)*%
X158750000Y-118110000D03*
%TD*%
%TO.P,D103,2*%
%TO.N,Net-(D103-Pad2)*%
X153670000Y-118110000D03*
D19*
%TO.P,D103,1*%
%TO.N,GND*%
X153670000Y-120650000D03*
%TD*%
%TO.P,D104,1*%
%TO.N,GND*%
X148590000Y-120650000D03*
D20*
%TO.P,D104,2*%
%TO.N,Net-(D104-Pad2)*%
X148590000Y-118110000D03*
%TD*%
D19*
%TO.P,D105,1*%
%TO.N,GND*%
X143510000Y-120650000D03*
D20*
%TO.P,D105,2*%
%TO.N,Net-(D105-Pad2)*%
X143510000Y-118110000D03*
%TD*%
%TO.P,D106,2*%
%TO.N,Net-(D106-Pad2)*%
X138430000Y-118110000D03*
D19*
%TO.P,D106,1*%
%TO.N,GND*%
X138430000Y-120650000D03*
%TD*%
D11*
%TO.P,P101,1*%
%TO.N,GND*%
X165100000Y-110490000D03*
D12*
%TO.P,P101,2*%
%TO.N,Net-(C101-Pad1)*%
X167640000Y-110490000D03*
%TD*%
%TO.P,P102,2*%
%TO.N,Net-(C102-Pad2)*%
X173990000Y-93980000D03*
D11*
%TO.P,P102,1*%
%TO.N,GND*%
X173990000Y-96520000D03*
%TD*%
D21*
%TO.P,U102,1*%
%TO.N,Net-(R101-Pad2)*%
X146050000Y-127000000D03*
D22*
%TO.P,U102,2*%
%TO.N,Net-(R106-Pad2)*%
X148590000Y-127000000D03*
%TO.P,U102,3*%
%TO.N,Net-(U102-Pad3)*%
X151130000Y-127000000D03*
%TO.P,U102,4*%
%TO.N,GND*%
X153670000Y-127000000D03*
%TD*%
D23*
%TO.N,Net-(C101-Pad1)*%
X167640000Y-104140000D03*
%TO.N,GND*%
X127000000Y-120650000D03*
%TD*%
D24*
%TO.N,Net-(C101-Pad1)*%
X138430000Y-76200000D02*
X166370000Y-76200000D01*
X167640000Y-77470000D02*
X167640000Y-104140000D01*
X166370000Y-76200000D02*
X167640000Y-77470000D01*
X138430000Y-91440000D02*
X138430000Y-76200000D01*
X127000000Y-76200000D02*
X138430000Y-76200000D01*
X167640000Y-110490000D02*
X167640000Y-115570000D01*
X167640000Y-115570000D02*
X167005000Y-116205000D01*
X167640000Y-110490000D02*
X173992540Y-110490000D01*
%TO.N,GND*%
X143510000Y-120650000D02*
X138430000Y-120650000D01*
X148590000Y-120650000D02*
X143510000Y-120650000D01*
X153670000Y-120650000D02*
X148590000Y-120650000D01*
X133350000Y-91440000D02*
X133350000Y-93980000D01*
X133350000Y-93980000D02*
X132080000Y-95250000D01*
X132080000Y-95250000D02*
X128270000Y-95250000D01*
X128270000Y-95250000D02*
X127000000Y-96520000D01*
X127000000Y-96520000D02*
X127000000Y-106680000D01*
X140970000Y-104140000D02*
X140970000Y-105410000D01*
X127000000Y-106680000D02*
X127000000Y-120650000D01*
X139700000Y-106680000D02*
X127000000Y-106680000D01*
X140970000Y-105410000D02*
X139700000Y-106680000D01*
X133350000Y-91440000D02*
X133350000Y-80010000D01*
X133350000Y-80010000D02*
X132080000Y-78740000D01*
X132080000Y-78740000D02*
X127000000Y-78740000D01*
X165100000Y-120650000D02*
X158750000Y-120650000D01*
X158750000Y-120650000D02*
X153670000Y-120650000D01*
X165100000Y-110490000D02*
X165100000Y-107950000D01*
X173990000Y-105410000D02*
X173990000Y-96520000D01*
X172720000Y-106680000D02*
X173990000Y-105410000D01*
X166370000Y-106680000D02*
X172720000Y-106680000D01*
X165100000Y-107950000D02*
X166370000Y-106680000D01*
X153670000Y-127000000D02*
X153670000Y-120650000D01*
X165100000Y-110490000D02*
X165100000Y-120650000D01*
X167005000Y-119705000D02*
X167005000Y-120015000D01*
X167005000Y-120015000D02*
X167640000Y-120650000D01*
X167640000Y-120650000D02*
X173992540Y-120650000D01*
X165100000Y-120650000D02*
X166060000Y-120650000D01*
X166060000Y-120650000D02*
X167005000Y-119705000D01*
%TO.N,Net-(R101-Pad2)*%
X130810000Y-127000000D02*
X130810000Y-115570000D01*
X138430000Y-113030000D02*
X138430000Y-111760000D01*
X137160000Y-114300000D02*
X138430000Y-113030000D01*
X132080000Y-114300000D02*
X137160000Y-114300000D01*
X130810000Y-115570000D02*
X132080000Y-114300000D01*
X146050000Y-129540000D02*
X160020000Y-129540000D01*
X161290000Y-128270000D02*
X161290000Y-127000000D01*
X160020000Y-129540000D02*
X161290000Y-128270000D01*
X130810000Y-127000000D02*
X130810000Y-129540000D01*
X146050000Y-129540000D02*
X146050000Y-127000000D01*
X130810000Y-129540000D02*
X146050000Y-129540000D01*
D25*
%TO.N,Net-(D105-Pad2)*%
X143510000Y-118110000D02*
X143510000Y-116840000D01*
X161290000Y-104140000D02*
X158750000Y-104140000D01*
X162560000Y-105410000D02*
X161290000Y-104140000D01*
X162560000Y-114300000D02*
X162560000Y-105410000D01*
X161290000Y-115570000D02*
X162560000Y-114300000D01*
X144780000Y-115570000D02*
X161290000Y-115570000D01*
X143510000Y-116840000D02*
X144780000Y-115570000D01*
%TO.N,Net-(D106-Pad2)*%
X158750000Y-107950000D02*
X160020000Y-107950000D01*
X138430000Y-115570000D02*
X138430000Y-118110000D01*
X139700000Y-114300000D02*
X138430000Y-115570000D01*
X149860000Y-114300000D02*
X139700000Y-114300000D01*
X160020000Y-114300000D02*
X149860000Y-114300000D01*
X161290000Y-113030000D02*
X160020000Y-114300000D01*
X161290000Y-109220000D02*
X161290000Y-113030000D01*
X160020000Y-107950000D02*
X161290000Y-109220000D01*
%TD*%
M02*
