%TF.GenerationSoftware,KiCad,Pcbnew,5.1.9+dfsg1-1+deb11u1*%
%TF.CreationDate,2023-10-13T11:59:52+02:00*%
%TF.ProjectId,mm17d,6d6d3137-642e-46b6-9963-61645f706362,231006*%
%TF.SameCoordinates,Original*%
%TF.FileFunction,Copper,L2,Bot*%
%TF.FilePolarity,Positive*%
%FSLAX46Y46*%
G04 Gerber Fmt 4.6, Leading zero omitted, Abs format (unit mm)*
G04 Created by KiCad (PCBNEW 5.1.9+dfsg1-1+deb11u1) date 2023-10-13 11:59:52*
%MOMM*%
%LPD*%
G01*
G04 APERTURE LIST*
%TA.AperFunction,NonConductor*%
%ADD10C,0.300000*%
%TD*%
%TA.AperFunction,Profile*%
%ADD11C,0.150000*%
%TD*%
%TA.AperFunction,ComponentPad*%
%ADD12R,1.700000X1.700000*%
%TD*%
%TA.AperFunction,ComponentPad*%
%ADD13O,1.700000X1.700000*%
%TD*%
%TA.AperFunction,ComponentPad*%
%ADD14O,1.600000X2.400000*%
%TD*%
%TA.AperFunction,ComponentPad*%
%ADD15R,1.600000X2.400000*%
%TD*%
%TA.AperFunction,ComponentPad*%
%ADD16C,1.998980*%
%TD*%
%TA.AperFunction,ComponentPad*%
%ADD17R,1.998980X1.998980*%
%TD*%
%TA.AperFunction,ComponentPad*%
%ADD18C,2.500000*%
%TD*%
%TA.AperFunction,ComponentPad*%
%ADD19R,1.600000X1.600000*%
%TD*%
%TA.AperFunction,ComponentPad*%
%ADD20C,1.600000*%
%TD*%
%TA.AperFunction,ComponentPad*%
%ADD21R,1.800000X1.800000*%
%TD*%
%TA.AperFunction,ComponentPad*%
%ADD22C,1.800000*%
%TD*%
%TA.AperFunction,ComponentPad*%
%ADD23R,1.500000X1.500000*%
%TD*%
%TA.AperFunction,ComponentPad*%
%ADD24C,1.500000*%
%TD*%
%TA.AperFunction,ViaPad*%
%ADD25C,0.600000*%
%TD*%
%TA.AperFunction,Conductor*%
%ADD26C,1.000000*%
%TD*%
%TA.AperFunction,Conductor*%
%ADD27C,0.500000*%
%TD*%
G04 APERTURE END LIST*
D10*
X135921428Y-95841428D02*
X135850000Y-95770000D01*
X135707142Y-95698571D01*
X135350000Y-95698571D01*
X135207142Y-95770000D01*
X135135714Y-95841428D01*
X135064285Y-95984285D01*
X135064285Y-96127142D01*
X135135714Y-96341428D01*
X135992857Y-97198571D01*
X135064285Y-97198571D01*
X134135714Y-95698571D02*
X133992857Y-95698571D01*
X133850000Y-95770000D01*
X133778571Y-95841428D01*
X133707142Y-95984285D01*
X133635714Y-96270000D01*
X133635714Y-96627142D01*
X133707142Y-96912857D01*
X133778571Y-97055714D01*
X133850000Y-97127142D01*
X133992857Y-97198571D01*
X134135714Y-97198571D01*
X134278571Y-97127142D01*
X134350000Y-97055714D01*
X134421428Y-96912857D01*
X134492857Y-96627142D01*
X134492857Y-96270000D01*
X134421428Y-95984285D01*
X134350000Y-95841428D01*
X134278571Y-95770000D01*
X134135714Y-95698571D01*
X133064285Y-95841428D02*
X132992857Y-95770000D01*
X132850000Y-95698571D01*
X132492857Y-95698571D01*
X132350000Y-95770000D01*
X132278571Y-95841428D01*
X132207142Y-95984285D01*
X132207142Y-96127142D01*
X132278571Y-96341428D01*
X133135714Y-97198571D01*
X132207142Y-97198571D01*
X131707142Y-95698571D02*
X130778571Y-95698571D01*
X131278571Y-96270000D01*
X131064285Y-96270000D01*
X130921428Y-96341428D01*
X130850000Y-96412857D01*
X130778571Y-96555714D01*
X130778571Y-96912857D01*
X130850000Y-97055714D01*
X130921428Y-97127142D01*
X131064285Y-97198571D01*
X131492857Y-97198571D01*
X131635714Y-97127142D01*
X131707142Y-97055714D01*
D11*
X123952000Y-67056000D02*
X123952000Y-130556000D01*
X176784000Y-67056000D02*
X123952000Y-67056000D01*
X176784000Y-130556000D02*
X176784000Y-67056000D01*
X123952000Y-130556000D02*
X176784000Y-130556000D01*
D12*
%TO.P,P103,1*%
%TO.N,Net-(C101-Pad1)*%
X127000000Y-76200000D03*
D13*
%TO.P,P103,2*%
%TO.N,GND*%
X127000000Y-78740000D03*
%TO.P,P103,3*%
%TO.N,Net-(P103-Pad3)*%
X127000000Y-81280000D03*
%TO.P,P103,4*%
%TO.N,Net-(P103-Pad4)*%
X127000000Y-83820000D03*
%TD*%
D14*
%TO.P,U101,20*%
%TO.N,Net-(U101-Pad20)*%
X156210000Y-111760000D03*
%TO.P,U101,10*%
%TO.N,GND*%
X133350000Y-91440000D03*
%TO.P,U101,19*%
%TO.N,Net-(U101-Pad19)*%
X153670000Y-111760000D03*
%TO.P,U101,9*%
%TO.N,Net-(U101-Pad9)*%
X135890000Y-91440000D03*
%TO.P,U101,18*%
%TO.N,Net-(R105-Pad1)*%
X151130000Y-111760000D03*
%TO.P,U101,8*%
%TO.N,Net-(C101-Pad1)*%
X138430000Y-91440000D03*
%TO.P,U101,17*%
%TO.N,Net-(R104-Pad1)*%
X148590000Y-111760000D03*
%TO.P,U101,7*%
%TO.N,Net-(U101-Pad7)*%
X140970000Y-91440000D03*
%TO.P,U101,16*%
%TO.N,Net-(R103-Pad1)*%
X146050000Y-111760000D03*
%TO.P,U101,6*%
%TO.N,Net-(R106-Pad2)*%
X143510000Y-91440000D03*
%TO.P,U101,15*%
%TO.N,Net-(R102-Pad2)*%
X143510000Y-111760000D03*
%TO.P,U101,5*%
%TO.N,Net-(C102-Pad1)*%
X146050000Y-91440000D03*
%TO.P,U101,14*%
%TO.N,Net-(U101-Pad14)*%
X140970000Y-111760000D03*
%TO.P,U101,4*%
%TO.N,Net-(U101-Pad4)*%
X148590000Y-91440000D03*
%TO.P,U101,13*%
%TO.N,Net-(R101-Pad2)*%
X138430000Y-111760000D03*
%TO.P,U101,3*%
%TO.N,Net-(U101-Pad3)*%
X151130000Y-91440000D03*
%TO.P,U101,12*%
%TO.N,Net-(U101-Pad12)*%
X135890000Y-111760000D03*
%TO.P,U101,2*%
%TO.N,Net-(R107-Pad2)*%
X153670000Y-91440000D03*
%TO.P,U101,11*%
%TO.N,Net-(U101-Pad11)*%
X133350000Y-111760000D03*
D15*
%TO.P,U101,1*%
%TO.N,Net-(U101-Pad1)*%
X156210000Y-91440000D03*
%TD*%
D16*
%TO.P,R102,1*%
%TO.N,Net-(D103-Pad2)*%
X158750000Y-96520000D03*
%TO.P,R102,2*%
%TO.N,Net-(R102-Pad2)*%
X151130000Y-96520000D03*
%TD*%
%TO.P,R103,1*%
%TO.N,Net-(R103-Pad1)*%
X151130000Y-100330000D03*
%TO.P,R103,2*%
%TO.N,Net-(D104-Pad2)*%
X158750000Y-100330000D03*
%TD*%
%TO.P,R105,1*%
%TO.N,Net-(R105-Pad1)*%
X151130000Y-107950000D03*
%TO.P,R105,2*%
%TO.N,Net-(D106-Pad2)*%
X158750000Y-107950000D03*
%TD*%
%TO.P,R104,1*%
%TO.N,Net-(R104-Pad1)*%
X151130000Y-104140000D03*
%TO.P,R104,2*%
%TO.N,Net-(D105-Pad2)*%
X158750000Y-104140000D03*
%TD*%
%TO.P,R106,1*%
%TO.N,Net-(R101-Pad2)*%
X130810000Y-127000000D03*
%TO.P,R106,2*%
%TO.N,Net-(R106-Pad2)*%
X138430000Y-127000000D03*
%TD*%
%TO.P,R107,1*%
%TO.N,Net-(P103-Pad4)*%
X130810000Y-100330000D03*
%TO.P,R107,2*%
%TO.N,Net-(R107-Pad2)*%
X140970000Y-100330000D03*
%TD*%
%TO.P,R108,1*%
%TO.N,Net-(R107-Pad2)*%
X130810000Y-104140000D03*
%TO.P,R108,2*%
%TO.N,GND*%
X140970000Y-104140000D03*
%TD*%
%TO.P,R101,1*%
%TO.N,Net-(D102-Pad2)*%
X168910000Y-127000000D03*
%TO.P,R101,2*%
%TO.N,Net-(R101-Pad2)*%
X161290000Y-127000000D03*
%TD*%
%TO.P,D101,2*%
%TO.N,GND*%
X173992540Y-120650000D03*
D17*
%TO.P,D101,1*%
%TO.N,Net-(C101-Pad1)*%
X173992540Y-110490000D03*
%TD*%
D18*
%TO.P,REF\u002A\u002A,1*%
%TO.N,N/C*%
X174752000Y-69088000D03*
%TD*%
%TO.P,REF\u002A\u002A,1*%
%TO.N,N/C*%
X125984000Y-69088000D03*
%TD*%
%TO.P,REF\u002A\u002A,1*%
%TO.N,N/C*%
X174752000Y-128524000D03*
%TD*%
%TO.P,REF\u002A\u002A,1*%
%TO.N,N/C*%
X125984000Y-128524000D03*
%TD*%
D19*
%TO.P,C101,1*%
%TO.N,Net-(C101-Pad1)*%
X167005000Y-116205000D03*
D20*
%TO.P,C101,2*%
%TO.N,GND*%
X167005000Y-119705000D03*
%TD*%
%TO.P,C102,1*%
%TO.N,Net-(C102-Pad1)*%
X165100000Y-95250000D03*
%TO.P,C102,2*%
%TO.N,Net-(C102-Pad2)*%
X170100000Y-95250000D03*
%TD*%
D21*
%TO.P,D102,1*%
%TO.N,GND*%
X158750000Y-120650000D03*
D22*
%TO.P,D102,2*%
%TO.N,Net-(D102-Pad2)*%
X158750000Y-118110000D03*
%TD*%
%TO.P,D103,2*%
%TO.N,Net-(D103-Pad2)*%
X153670000Y-118110000D03*
D21*
%TO.P,D103,1*%
%TO.N,GND*%
X153670000Y-120650000D03*
%TD*%
%TO.P,D104,1*%
%TO.N,GND*%
X148590000Y-120650000D03*
D22*
%TO.P,D104,2*%
%TO.N,Net-(D104-Pad2)*%
X148590000Y-118110000D03*
%TD*%
D21*
%TO.P,D105,1*%
%TO.N,GND*%
X143510000Y-120650000D03*
D22*
%TO.P,D105,2*%
%TO.N,Net-(D105-Pad2)*%
X143510000Y-118110000D03*
%TD*%
%TO.P,D106,2*%
%TO.N,Net-(D106-Pad2)*%
X138430000Y-118110000D03*
D21*
%TO.P,D106,1*%
%TO.N,GND*%
X138430000Y-120650000D03*
%TD*%
D12*
%TO.P,P101,1*%
%TO.N,GND*%
X165100000Y-110490000D03*
D13*
%TO.P,P101,2*%
%TO.N,Net-(C101-Pad1)*%
X167640000Y-110490000D03*
%TD*%
%TO.P,P102,2*%
%TO.N,Net-(C102-Pad2)*%
X173990000Y-93980000D03*
D12*
%TO.P,P102,1*%
%TO.N,GND*%
X173990000Y-96520000D03*
%TD*%
D23*
%TO.P,U102,1*%
%TO.N,Net-(R101-Pad2)*%
X146050000Y-127000000D03*
D24*
%TO.P,U102,2*%
%TO.N,Net-(R106-Pad2)*%
X148590000Y-127000000D03*
%TO.P,U102,3*%
%TO.N,Net-(U102-Pad3)*%
X151130000Y-127000000D03*
%TO.P,U102,4*%
%TO.N,GND*%
X153670000Y-127000000D03*
%TD*%
D25*
%TO.N,Net-(C101-Pad1)*%
X167640000Y-104140000D03*
%TO.N,GND*%
X127000000Y-120650000D03*
%TD*%
D26*
%TO.N,Net-(C101-Pad1)*%
X167640000Y-104140000D02*
X167640000Y-110490000D01*
%TO.N,GND*%
X127000000Y-120650000D02*
X138430000Y-120650000D01*
D27*
%TO.N,Net-(C102-Pad1)*%
X146050000Y-90170000D02*
X147320000Y-88900000D01*
X163830000Y-88900000D02*
X165100000Y-90170000D01*
X147320000Y-88900000D02*
X163830000Y-88900000D01*
X165100000Y-95250000D02*
X165100000Y-90170000D01*
X146050000Y-90170000D02*
X146050000Y-91440000D01*
%TO.N,Net-(C102-Pad2)*%
X170100000Y-95250000D02*
X170180000Y-95250000D01*
X170180000Y-95250000D02*
X171450000Y-93980000D01*
X171450000Y-93980000D02*
X173990000Y-93980000D01*
%TO.N,Net-(D102-Pad2)*%
X158750000Y-118110000D02*
X162560000Y-118110000D01*
X165100000Y-127000000D02*
X168910000Y-127000000D01*
X163830000Y-125730000D02*
X165100000Y-127000000D01*
X163830000Y-124460000D02*
X163830000Y-125730000D01*
X163830000Y-119380000D02*
X163830000Y-124460000D01*
X162560000Y-118110000D02*
X163830000Y-119380000D01*
%TO.N,Net-(D103-Pad2)*%
X153670000Y-118110000D02*
X153670000Y-116840000D01*
X161290000Y-96520000D02*
X158750000Y-96520000D01*
X162560000Y-97790000D02*
X161290000Y-96520000D01*
X162560000Y-114300000D02*
X162560000Y-97790000D01*
X161290000Y-115570000D02*
X162560000Y-114300000D01*
X154940000Y-115570000D02*
X161290000Y-115570000D01*
X153670000Y-116840000D02*
X154940000Y-115570000D01*
%TO.N,Net-(D104-Pad2)*%
X158750000Y-100330000D02*
X160020000Y-100330000D01*
X148590000Y-115570000D02*
X148590000Y-118110000D01*
X149860000Y-114300000D02*
X148590000Y-115570000D01*
X151130000Y-114300000D02*
X149860000Y-114300000D01*
X153670000Y-114300000D02*
X151130000Y-114300000D01*
X160020000Y-114300000D02*
X153670000Y-114300000D01*
X161290000Y-113030000D02*
X160020000Y-114300000D01*
X161290000Y-101600000D02*
X161290000Y-113030000D01*
X160020000Y-100330000D02*
X161290000Y-101600000D01*
%TO.N,Net-(R102-Pad2)*%
X144780000Y-96520000D02*
X143510000Y-97790000D01*
X143510000Y-97790000D02*
X143510000Y-111760000D01*
X151130000Y-96520000D02*
X144780000Y-96520000D01*
%TO.N,Net-(R103-Pad1)*%
X146050000Y-111760000D02*
X146050000Y-101600000D01*
X147320000Y-100330000D02*
X151130000Y-100330000D01*
X146050000Y-101600000D02*
X147320000Y-100330000D01*
%TO.N,Net-(R104-Pad1)*%
X148590000Y-111760000D02*
X148590000Y-105410000D01*
X149860000Y-104140000D02*
X151130000Y-104140000D01*
X148590000Y-105410000D02*
X149860000Y-104140000D01*
%TO.N,Net-(R105-Pad1)*%
X151130000Y-111760000D02*
X151130000Y-107950000D01*
%TO.N,Net-(R106-Pad2)*%
X129540000Y-115570000D02*
X128270000Y-115570000D01*
X127000000Y-114300000D02*
X127000000Y-113030000D01*
X128270000Y-115570000D02*
X127000000Y-114300000D01*
X140970000Y-124460000D02*
X140970000Y-116840000D01*
X139700000Y-115570000D02*
X129540000Y-115570000D01*
X140970000Y-116840000D02*
X139700000Y-115570000D01*
X143510000Y-91440000D02*
X143510000Y-92710000D01*
X143510000Y-92710000D02*
X133985000Y-102235000D01*
X133985000Y-102235000D02*
X128270000Y-102235000D01*
X128270000Y-102235000D02*
X127000000Y-103505000D01*
X127000000Y-103505000D02*
X127000000Y-113030000D01*
X138430000Y-127000000D02*
X138430000Y-125730000D01*
X148590000Y-125730000D02*
X148590000Y-127000000D01*
X147320000Y-124460000D02*
X148590000Y-125730000D01*
X139700000Y-124460000D02*
X140970000Y-124460000D01*
X140970000Y-124460000D02*
X147320000Y-124460000D01*
X138430000Y-125730000D02*
X139700000Y-124460000D01*
%TO.N,Net-(P103-Pad4)*%
X130810000Y-100330000D02*
X128270000Y-100330000D01*
X127000000Y-99060000D02*
X127000000Y-83820000D01*
X128270000Y-100330000D02*
X127000000Y-99060000D01*
%TO.N,Net-(R107-Pad2)*%
X140970000Y-100330000D02*
X138430000Y-100330000D01*
X140970000Y-100330000D02*
X140970000Y-97790000D01*
X138430000Y-100330000D02*
X134620000Y-104140000D01*
X130810000Y-104140000D02*
X134620000Y-104140000D01*
X140970000Y-97790000D02*
X144780000Y-93980000D01*
X153670000Y-92710000D02*
X153670000Y-91440000D01*
X152400000Y-93980000D02*
X153670000Y-92710000D01*
X144780000Y-93980000D02*
X152400000Y-93980000D01*
%TD*%
M02*
