<?xml version="1.0" standalone="no"?>
 <!DOCTYPE svg PUBLIC "-//W3C//DTD SVG 1.1//EN" 
 "http://www.w3.org/Graphics/SVG/1.1/DTD/svg11.dtd"> 
<svg
  xmlns:svg="http://www.w3.org/2000/svg"
  xmlns="http://www.w3.org/2000/svg"
  xmlns:xlink="http://www.w3.org/1999/xlink"
  version="1.1"
  width="29.700220cm" height="21.000720cm" viewBox="0 0 116930 82680">
<title>SVG Picture created as mm17d-F_SilkS.svg date 2023/10/13 12:00:36 </title>
  <desc>Picture generated by PCBNEW </desc>
<g style="fill:#000000; fill-opacity:1;stroke:#000000; stroke-opacity:1;
stroke-linecap:round; stroke-linejoin:round;"
 transform="translate(0 0) scale(1 1)">
</g>
<g style="fill:#000000; fill-opacity:0.0; 
stroke:#000000; stroke-width:-0.000393701; stroke-opacity:1; 
stroke-linecap:round; stroke-linejoin:round;">
</g>
<g style="fill:#000000; fill-opacity:0.0; 
stroke:#000000; stroke-width:59.0551; stroke-opacity:1; 
stroke-linecap:round; stroke-linejoin:round;">
<rect x="69685.9" y="65357.2" width="42519.7" height="12598.4" rx="0" />
<rect x="3937.01" y="3937.01" width="109056" height="74806" rx="0" />
<rect x="4724.41" y="4724.41" width="107481" height="73231.2" rx="0" />
<path d="M23622 4724
L23622 3937
" />
<path d="M43307 4724
L43307 3937
" />
<path d="M62992 4724
L62992 3937
" />
<path d="M82677 4724
L82677 3937
" />
<path d="M102362 4724
L102362 3937
" />
<text x="13779.5" y="4586.61"
textLength="640.982" font-size="682.415" lengthAdjust="spacingAndGlyphs"
text-anchor="start" opacity="0">1</text>
<path d="M14199 4562
L13906 4562
" />
<path d="M14052 4562
L14052 4050
L14004 4123
L13955 4172
L13906 4196
" />
<text x="33464.6" y="4586.61"
textLength="546.494" font-size="682.415" lengthAdjust="spacingAndGlyphs"
text-anchor="start" opacity="0">2</text>
<path d="M33591 4099
L33615 4074
L33664 4050
L33786 4050
L33835 4074
L33859 4099
L33884 4147
L33884 4196
L33859 4269
L33567 4562
L33884 4562
" />
<text x="53149.6" y="4586.61"
textLength="546.494" font-size="682.415" lengthAdjust="spacingAndGlyphs"
text-anchor="start" opacity="0">3</text>
<path d="M53252 4050
L53569 4050
L53398 4245
L53471 4245
L53520 4269
L53544 4294
L53569 4342
L53569 4464
L53544 4513
L53520 4537
L53471 4562
L53325 4562
L53276 4537
L53252 4513
" />
<text x="72834.6" y="4586.61"
textLength="546.494" font-size="682.415" lengthAdjust="spacingAndGlyphs"
text-anchor="start" opacity="0">4</text>
<path d="M73205 4221
L73205 4562
" />
<path d="M73083 4026
L72961 4391
L73278 4391
" />
<text x="92519.7" y="4586.61"
textLength="546.494" font-size="682.415" lengthAdjust="spacingAndGlyphs"
text-anchor="start" opacity="0">5</text>
<path d="M92914 4050
L92671 4050
L92646 4294
L92671 4269
L92719 4245
L92841 4245
L92890 4269
L92914 4294
L92939 4342
L92939 4464
L92914 4513
L92890 4537
L92841 4562
L92719 4562
L92671 4537
L92646 4513
" />
<text x="112205" y="4586.61"
textLength="546.494" font-size="682.415" lengthAdjust="spacingAndGlyphs"
text-anchor="start" opacity="0">6</text>
<path d="M112575 4050
L112477 4050
L112429 4074
L112404 4099
L112356 4172
L112331 4269
L112331 4464
L112356 4513
L112380 4537
L112429 4562
L112526 4562
L112575 4537
L112599 4513
L112624 4464
L112624 4342
L112599 4294
L112575 4269
L112526 4245
L112429 4245
L112380 4269
L112356 4294
L112331 4342
" />
<path d="M23622 77955
L23622 78742
" />
<path d="M43307 77955
L43307 78742
" />
<path d="M62992 77955
L62992 78742
" />
<path d="M82677 77955
L82677 78742
" />
<path d="M102362 77955
L102362 78742
" />
<text x="13779.5" y="78605.2"
textLength="546.494" font-size="682.415" lengthAdjust="spacingAndGlyphs"
text-anchor="start" opacity="0">1</text>
<path d="M14199 78580
L13906 78580
" />
<path d="M14052 78580
L14052 78069
L14004 78142
L13955 78190
L13906 78215
" />
<text x="33464.6" y="78605.2"
textLength="546.494" font-size="682.415" lengthAdjust="spacingAndGlyphs"
text-anchor="start" opacity="0">2</text>
<path d="M33591 78117
L33615 78093
L33664 78069
L33786 78069
L33835 78093
L33859 78117
L33884 78166
L33884 78215
L33859 78288
L33567 78580
L33884 78580
" />
<text x="53149.6" y="78605.2"
textLength="546.494" font-size="682.415" lengthAdjust="spacingAndGlyphs"
text-anchor="start" opacity="0">3</text>
<path d="M53252 78069
L53569 78069
L53398 78263
L53471 78263
L53520 78288
L53544 78312
L53569 78361
L53569 78483
L53544 78532
L53520 78556
L53471 78580
L53325 78580
L53276 78556
L53252 78532
" />
<text x="72834.6" y="78605.2"
textLength="546.494" font-size="682.415" lengthAdjust="spacingAndGlyphs"
text-anchor="start" opacity="0">4</text>
<path d="M73205 78239
L73205 78580
" />
<path d="M73083 78044
L72961 78410
L73278 78410
" />
<text x="92519.7" y="78605.2"
textLength="546.494" font-size="682.415" lengthAdjust="spacingAndGlyphs"
text-anchor="start" opacity="0">5</text>
<path d="M92914 78069
L92671 78069
L92646 78312
L92671 78288
L92719 78263
L92841 78263
L92890 78288
L92914 78312
L92939 78361
L92939 78483
L92914 78532
L92890 78556
L92841 78580
L92719 78580
L92671 78556
L92646 78532
" />
<text x="112205" y="78605.2"
textLength="546.494" font-size="682.415" lengthAdjust="spacingAndGlyphs"
text-anchor="start" opacity="0">6</text>
<path d="M112575 78069
L112477 78069
L112429 78093
L112404 78117
L112356 78190
L112331 78288
L112331 78483
L112356 78532
L112380 78556
L112429 78580
L112526 78580
L112575 78556
L112599 78532
L112624 78483
L112624 78361
L112599 78312
L112575 78288
L112526 78263
L112429 78263
L112380 78288
L112356 78312
L112331 78361
" />
<path d="M3937 23622
L4724 23622
" />
<path d="M3937 43307
L4724 43307
" />
<path d="M3937 62992
L4724 62992
" />
<text x="4330.71" y="14035.4"
textLength="497.75" font-size="682.415" lengthAdjust="spacingAndGlyphs"
text-anchor="middle" opacity="0">A</text>
<path d="M4208 13864
L4452 13864
" />
<path d="M4160 14011
L4330 13499
L4501 14011
" />
<text x="4330.71" y="33720.5"
textLength="570.866" font-size="682.415" lengthAdjust="spacingAndGlyphs"
text-anchor="middle" opacity="0">B</text>
<path d="M4367 33428
L4440 33452
L4464 33476
L4489 33525
L4489 33598
L4464 33647
L4440 33671
L4391 33696
L4196 33696
L4196 33184
L4367 33184
L4416 33208
L4440 33233
L4464 33281
L4464 33330
L4440 33379
L4416 33403
L4367 33428
L4196 33428
" />
<text x="4330.71" y="53405.5"
textLength="570.866" font-size="682.415" lengthAdjust="spacingAndGlyphs"
text-anchor="middle" opacity="0">C</text>
<path d="M4489 53332
L4464 53356
L4391 53381
L4342 53381
L4269 53356
L4221 53308
L4196 53259
L4172 53161
L4172 53088
L4196 52991
L4221 52942
L4269 52893
L4342 52869
L4391 52869
L4464 52893
L4489 52918
" />
<text x="4330.71" y="73090.6"
textLength="570.866" font-size="682.415" lengthAdjust="spacingAndGlyphs"
text-anchor="middle" opacity="0">D</text>
<path d="M4196 73066
L4196 72554
L4318 72554
L4391 72578
L4440 72627
L4464 72676
L4489 72773
L4489 72846
L4464 72944
L4440 72993
L4391 73041
L4318 73066
L4196 73066
" />
<path d="M112992 23622
L112205 23622
" />
<path d="M112992 43307
L112205 43307
" />
<path d="M112992 62992
L112205 62992
" />
<text x="112599" y="14035.4"
textLength="497.75" font-size="682.415" lengthAdjust="spacingAndGlyphs"
text-anchor="middle" opacity="0">A</text>
<path d="M112477 13864
L112721 13864
" />
<path d="M112428 14011
L112599 13499
L112769 14011
" />
<text x="112599" y="33720.5"
textLength="570.866" font-size="682.415" lengthAdjust="spacingAndGlyphs"
text-anchor="middle" opacity="0">B</text>
<path d="M112635 33428
L112708 33452
L112733 33476
L112757 33525
L112757 33598
L112733 33647
L112708 33671
L112660 33696
L112465 33696
L112465 33184
L112635 33184
L112684 33208
L112708 33233
L112733 33281
L112733 33330
L112708 33379
L112684 33403
L112635 33428
L112465 33428
" />
<text x="112599" y="53405.5"
textLength="570.866" font-size="682.415" lengthAdjust="spacingAndGlyphs"
text-anchor="middle" opacity="0">C</text>
<path d="M112757 53332
L112733 53356
L112660 53381
L112611 53381
L112538 53356
L112489 53308
L112465 53259
L112440 53161
L112440 53088
L112465 52991
L112489 52942
L112538 52893
L112611 52869
L112660 52869
L112733 52893
L112757 52918
" />
<text x="112599" y="73090.6"
textLength="570.866" font-size="682.415" lengthAdjust="spacingAndGlyphs"
text-anchor="middle" opacity="0">D</text>
<path d="M112465 73066
L112465 72554
L112587 72554
L112660 72578
L112708 72627
L112733 72676
L112757 72773
L112757 72846
L112733 72944
L112708 72993
L112660 73041
L112587 73066
L112465 73066
" />
<text x="78741" y="76321.7"
textLength="8720.47" font-size="787.402" lengthAdjust="spacingAndGlyphs"
text-anchor="start" opacity="0">Date: 2023-10-06</text>
<path d="M78911 76293
L78911 75703
L79051 75703
L79136 75731
L79192 75787
L79220 75843
L79248 75956
L79248 76040
L79220 76153
L79192 76209
L79136 76265
L79051 76293
L78911 76293
" />
<path d="M79754 76293
L79754 75984
L79726 75928
L79670 75899
L79557 75899
L79501 75928
" />
<path d="M79754 76265
L79698 76293
L79557 76293
L79501 76265
L79473 76209
L79473 76153
L79501 76096
L79557 76068
L79698 76068
L79754 76040
" />
<path d="M79951 75899
L80176 75899
" />
<path d="M80036 75703
L80036 76209
L80064 76265
L80120 76293
L80176 76293
" />
<path d="M80598 76265
L80542 76293
L80429 76293
L80373 76265
L80345 76209
L80345 75984
L80373 75928
L80429 75899
L80542 75899
L80598 75928
L80626 75984
L80626 76040
L80345 76096
" />
<path d="M80879 76237
L80907 76265
L80879 76293
L80851 76265
L80879 76237
L80879 76293
" />
<path d="M80879 75928
L80907 75956
L80879 75984
L80851 75956
L80879 75928
L80879 75984
" />
<path d="M81582 75759
L81610 75731
L81667 75703
L81807 75703
L81863 75731
L81892 75759
L81920 75815
L81920 75871
L81892 75956
L81554 76293
L81920 76293
" />
<path d="M82285 75703
L82341 75703
L82398 75731
L82426 75759
L82454 75815
L82482 75928
L82482 76068
L82454 76181
L82426 76237
L82398 76265
L82341 76293
L82285 76293
L82229 76265
L82201 76237
L82173 76181
L82145 76068
L82145 75928
L82173 75815
L82201 75759
L82229 75731
L82285 75703
" />
<path d="M82707 75759
L82735 75731
L82791 75703
L82932 75703
L82988 75731
L83016 75759
L83045 75815
L83045 75871
L83016 75956
L82679 76293
L83045 76293
" />
<path d="M83241 75703
L83607 75703
L83410 75928
L83494 75928
L83551 75956
L83579 75984
L83607 76040
L83607 76181
L83579 76237
L83551 76265
L83494 76293
L83326 76293
L83269 76265
L83241 76237
" />
<path d="M83860 76068
L84310 76068
" />
<path d="M84901 76293
L84563 76293
" />
<path d="M84732 76293
L84732 75703
L84676 75787
L84619 75843
L84563 75871
" />
<path d="M85266 75703
L85322 75703
L85379 75731
L85407 75759
L85435 75815
L85463 75928
L85463 76068
L85435 76181
L85407 76237
L85379 76265
L85322 76293
L85266 76293
L85210 76265
L85182 76237
L85154 76181
L85126 76068
L85126 75928
L85154 75815
L85182 75759
L85210 75731
L85266 75703
" />
<path d="M85716 76068
L86166 76068
" />
<path d="M86560 75703
L86616 75703
L86672 75731
L86700 75759
L86728 75815
L86757 75928
L86757 76068
L86728 76181
L86700 76237
L86672 76265
L86616 76293
L86560 76293
L86503 76265
L86475 76237
L86447 76181
L86419 76068
L86419 75928
L86447 75815
L86475 75759
L86503 75731
L86560 75703
" />
<path d="M87263 75703
L87150 75703
L87094 75731
L87066 75759
L87010 75843
L86982 75956
L86982 76181
L87010 76237
L87038 76265
L87094 76293
L87206 76293
L87263 76265
L87291 76237
L87319 76181
L87319 76040
L87291 75984
L87263 75956
L87206 75928
L87094 75928
L87038 75956
L87010 75984
L86982 76040
" />
<path d="M69685 76577
L112205 76577
" />
<text x="70079.6" y="77424.1"
textLength="20447.1" font-size="787.402" lengthAdjust="spacingAndGlyphs"
text-anchor="start" opacity="0">KiCad E.D.A.  kicad 5.1.9+dfsg1-1+deb11u1</text>
<path d="M70249 77395
L70249 76805
" />
<path d="M70587 77395
L70334 77058
" />
<path d="M70587 76805
L70249 77142
" />
<path d="M70840 77395
L70840 77002
" />
<path d="M70840 76805
L70812 76833
L70840 76861
L70868 76833
L70840 76805
L70840 76861
" />
<path d="M71458 77339
L71430 77367
L71346 77395
L71290 77395
L71205 77367
L71149 77311
L71121 77255
L71093 77142
L71093 77058
L71121 76946
L71149 76889
L71205 76833
L71290 76805
L71346 76805
L71430 76833
L71458 76861
" />
<path d="M71965 77395
L71965 77086
L71937 77030
L71880 77002
L71768 77002
L71712 77030
" />
<path d="M71965 77367
L71908 77395
L71768 77395
L71712 77367
L71683 77311
L71683 77255
L71712 77199
L71768 77171
L71908 77171
L71965 77142
" />
<path d="M72499 77395
L72499 76805
" />
<path d="M72499 77367
L72443 77395
L72330 77395
L72274 77367
L72246 77339
L72218 77283
L72218 77114
L72246 77058
L72274 77030
L72330 77002
L72443 77002
L72499 77030
" />
<path d="M73230 77086
L73427 77086
" />
<path d="M73511 77395
L73230 77395
L73230 76805
L73511 76805
" />
<path d="M73764 77339
L73793 77367
L73764 77395
L73736 77367
L73764 77339
L73764 77395
" />
<path d="M74046 77395
L74046 76805
L74186 76805
L74271 76833
L74327 76889
L74355 76946
L74383 77058
L74383 77142
L74355 77255
L74327 77311
L74271 77367
L74186 77395
L74046 77395
" />
<path d="M74636 77339
L74664 77367
L74636 77395
L74608 77367
L74636 77339
L74636 77395
" />
<path d="M74889 77227
L75171 77227
" />
<path d="M74833 77395
L75030 76805
L75227 77395
" />
<path d="M75424 77339
L75452 77367
L75424 77395
L75395 77367
L75424 77339
L75424 77395
" />
<path d="M76605 77395
L76605 76805
" />
<path d="M76661 77171
L76830 77395
" />
<path d="M76830 77002
L76605 77227
" />
<path d="M77083 77395
L77083 77002
" />
<path d="M77083 76805
L77055 76833
L77083 76861
L77111 76833
L77083 76805
L77083 76861
" />
<path d="M77617 77367
L77561 77395
L77448 77395
L77392 77367
L77364 77339
L77336 77283
L77336 77114
L77364 77058
L77392 77030
L77448 77002
L77561 77002
L77617 77030
" />
<path d="M78123 77395
L78123 77086
L78095 77030
L78039 77002
L77926 77002
L77870 77030
" />
<path d="M78123 77367
L78067 77395
L77926 77395
L77870 77367
L77842 77311
L77842 77255
L77870 77199
L77926 77171
L78067 77171
L78123 77142
" />
<path d="M78658 77395
L78658 76805
" />
<path d="M78658 77367
L78601 77395
L78489 77395
L78433 77367
L78404 77339
L78376 77283
L78376 77114
L78404 77058
L78433 77030
L78489 77002
L78601 77002
L78658 77030
" />
<path d="M79670 76805
L79389 76805
L79361 77086
L79389 77058
L79445 77030
L79586 77030
L79642 77058
L79670 77086
L79698 77142
L79698 77283
L79670 77339
L79642 77367
L79586 77395
L79445 77395
L79389 77367
L79361 77339
" />
<path d="M79951 77339
L79979 77367
L79951 77395
L79923 77367
L79951 77339
L79951 77395
" />
<path d="M80542 77395
L80204 77395
" />
<path d="M80373 77395
L80373 76805
L80317 76889
L80260 76946
L80204 76974
" />
<path d="M80795 77339
L80823 77367
L80795 77395
L80767 77367
L80795 77339
L80795 77395
" />
<path d="M81104 77395
L81217 77395
L81273 77367
L81301 77339
L81357 77255
L81385 77142
L81385 76917
L81357 76861
L81329 76833
L81273 76805
L81160 76805
L81104 76833
L81076 76861
L81048 76917
L81048 77058
L81076 77114
L81104 77142
L81160 77171
L81273 77171
L81329 77142
L81357 77114
L81385 77058
" />
<path d="M81638 77171
L82088 77171
" />
<path d="M81863 77395
L81863 76946
" />
<path d="M82623 77395
L82623 76805
" />
<path d="M82623 77367
L82566 77395
L82454 77395
L82398 77367
L82370 77339
L82341 77283
L82341 77114
L82370 77058
L82398 77030
L82454 77002
L82566 77002
L82623 77030
" />
<path d="M82820 77002
L83045 77002
" />
<path d="M82904 77395
L82904 76889
L82932 76833
L82988 76805
L83045 76805
" />
<path d="M83213 77367
L83269 77395
L83382 77395
L83438 77367
L83466 77311
L83466 77283
L83438 77227
L83382 77199
L83298 77199
L83241 77171
L83213 77114
L83213 77086
L83241 77030
L83298 77002
L83382 77002
L83438 77030
" />
<path d="M83973 77002
L83973 77480
L83944 77536
L83916 77564
L83860 77592
L83776 77592
L83719 77564
" />
<path d="M83973 77367
L83916 77395
L83804 77395
L83748 77367
L83719 77339
L83691 77283
L83691 77114
L83719 77058
L83748 77030
L83804 77002
L83916 77002
L83973 77030
" />
<path d="M84563 77395
L84226 77395
" />
<path d="M84394 77395
L84394 76805
L84338 76889
L84282 76946
L84226 76974
" />
<path d="M84816 77171
L85266 77171
" />
<path d="M85857 77395
L85519 77395
" />
<path d="M85688 77395
L85688 76805
L85632 76889
L85575 76946
L85519 76974
" />
<path d="M86110 77171
L86560 77171
" />
<path d="M86335 77395
L86335 76946
" />
<path d="M87094 77395
L87094 76805
" />
<path d="M87094 77367
L87038 77395
L86925 77395
L86869 77367
L86841 77339
L86813 77283
L86813 77114
L86841 77058
L86869 77030
L86925 77002
L87038 77002
L87094 77030
" />
<path d="M87600 77367
L87544 77395
L87431 77395
L87375 77367
L87347 77311
L87347 77086
L87375 77030
L87431 77002
L87544 77002
L87600 77030
L87628 77086
L87628 77142
L87347 77199
" />
<path d="M87881 77395
L87881 76805
" />
<path d="M87881 77030
L87938 77002
L88050 77002
L88106 77030
L88135 77058
L88163 77114
L88163 77283
L88135 77339
L88106 77367
L88050 77395
L87938 77395
L87881 77367
" />
<path d="M88725 77395
L88388 77395
" />
<path d="M88556 77395
L88556 76805
L88500 76889
L88444 76946
L88388 76974
" />
<path d="M89287 77395
L88950 77395
" />
<path d="M89119 77395
L89119 76805
L89063 76889
L89006 76946
L88950 76974
" />
<path d="M89794 77002
L89794 77395
" />
<path d="M89541 77002
L89541 77311
L89569 77367
L89625 77395
L89709 77395
L89766 77367
L89794 77339
" />
<path d="M90384 77395
L90047 77395
" />
<path d="M90215 77395
L90215 76805
L90159 76889
L90103 76946
L90047 76974
" />
<path d="M69685 75396
L112205 75396
" />
</g>
<g style="fill:#000000; fill-opacity:0.0; 
stroke:#000000; stroke-width:118.11; stroke-opacity:1; 
stroke-linecap:round; stroke-linejoin:round;">
<text x="103544" y="76321.7"
textLength="5711.47" font-size="787.402" lengthAdjust="spacingAndGlyphs"
text-anchor="start" opacity="0">Rev: 231006</text>
<path d="M104099 76293
L103902 76012
" />
<path d="M103761 76293
L103761 75703
L103986 75703
L104042 75731
L104070 75759
L104099 75815
L104099 75899
L104070 75956
L104042 75984
L103986 76012
L103761 76012
" />
<path d="M104577 76265
L104520 76293
L104408 76293
L104352 76265
L104323 76209
L104323 75984
L104352 75928
L104408 75899
L104520 75899
L104577 75928
L104605 75984
L104605 76040
L104323 76096
" />
<path d="M104802 75899
L104942 76293
L105083 75899
" />
<path d="M105308 76237
L105336 76265
L105308 76293
L105280 76265
L105308 76237
L105308 76293
" />
<path d="M105308 75928
L105336 75956
L105308 75984
L105280 75956
L105308 75928
L105308 75984
" />
<path d="M106011 75759
L106039 75731
L106095 75703
L106236 75703
L106292 75731
L106320 75759
L106348 75815
L106348 75871
L106320 75956
L105983 76293
L106348 76293
" />
<path d="M106545 75703
L106911 75703
L106714 75928
L106798 75928
L106854 75956
L106883 75984
L106911 76040
L106911 76181
L106883 76237
L106854 76265
L106798 76293
L106629 76293
L106573 76265
L106545 76237
" />
<path d="M107473 76293
L107136 76293
" />
<path d="M107304 76293
L107304 75703
L107248 75787
L107192 75843
L107136 75871
" />
<path d="M107839 75703
L107895 75703
L107951 75731
L107979 75759
L108007 75815
L108036 75928
L108036 76068
L108007 76181
L107979 76237
L107951 76265
L107895 76293
L107839 76293
L107782 76265
L107754 76237
L107726 76181
L107698 76068
L107698 75928
L107726 75815
L107754 75759
L107782 75731
L107839 75703
" />
<path d="M108401 75703
L108457 75703
L108514 75731
L108542 75759
L108570 75815
L108598 75928
L108598 76068
L108570 76181
L108542 76237
L108514 76265
L108457 76293
L108401 76293
L108345 76265
L108317 76237
L108289 76181
L108260 76068
L108260 75928
L108289 75815
L108317 75759
L108345 75731
L108401 75703
" />
<path d="M109104 75703
L108992 75703
L108935 75731
L108907 75759
L108851 75843
L108823 75956
L108823 76181
L108851 76237
L108879 76265
L108935 76293
L109048 76293
L109104 76265
L109132 76237
L109160 76181
L109160 76040
L109132 75984
L109104 75956
L109048 75928
L108935 75928
L108879 75956
L108851 75984
L108823 76040
" />
</g>
<g style="fill:#000000; fill-opacity:0.0; 
stroke:#000000; stroke-width:59.0551; stroke-opacity:1; 
stroke-linecap:round; stroke-linejoin:round;">
<text x="70079.6" y="76321.7"
textLength="3781.21" font-size="787.402" lengthAdjust="spacingAndGlyphs"
text-anchor="start" opacity="0">Size: A4</text>
<path d="M70221 76265
L70305 76293
L70446 76293
L70502 76265
L70530 76237
L70559 76181
L70559 76124
L70530 76068
L70502 76040
L70446 76012
L70334 75984
L70277 75956
L70249 75928
L70221 75871
L70221 75815
L70249 75759
L70277 75731
L70334 75703
L70474 75703
L70559 75731
" />
<path d="M70812 76293
L70812 75899
" />
<path d="M70812 75703
L70784 75731
L70812 75759
L70840 75731
L70812 75703
L70812 75759
" />
<path d="M71037 75899
L71346 75899
L71037 76293
L71346 76293
" />
<path d="M71796 76265
L71740 76293
L71627 76293
L71571 76265
L71543 76209
L71543 75984
L71571 75928
L71627 75899
L71740 75899
L71796 75928
L71824 75984
L71824 76040
L71543 76096
" />
<path d="M72077 76237
L72105 76265
L72077 76293
L72049 76265
L72077 76237
L72077 76293
" />
<path d="M72077 75928
L72105 75956
L72077 75984
L72049 75956
L72077 75928
L72077 75984
" />
<path d="M72780 76124
L73061 76124
" />
<path d="M72724 76293
L72921 75703
L73118 76293
" />
<path d="M73568 75899
L73568 76293
" />
<path d="M73427 75674
L73286 76096
L73652 76096
" />
<text x="103544" y="77424.1"
textLength="3349.27" font-size="787.402" lengthAdjust="spacingAndGlyphs"
text-anchor="start" opacity="0">Id: 1/1</text>
<path d="M103714 77395
L103714 76805
" />
<path d="M104248 77395
L104248 76805
" />
<path d="M104248 77367
L104192 77395
L104079 77395
L104023 77367
L103995 77339
L103967 77283
L103967 77114
L103995 77058
L104023 77030
L104079 77002
L104192 77002
L104248 77030
" />
<path d="M104529 77339
L104557 77367
L104529 77395
L104501 77367
L104529 77339
L104529 77395
" />
<path d="M104529 77030
L104557 77058
L104529 77086
L104501 77058
L104529 77030
L104529 77086
" />
<path d="M105570 77395
L105232 77395
" />
<path d="M105401 77395
L105401 76805
L105345 76889
L105289 76946
L105232 76974
" />
<path d="M106245 76777
L105739 77536
" />
<path d="M106751 77395
L106413 77395
" />
<path d="M106582 77395
L106582 76805
L106526 76889
L106470 76946
L106413 76974
" />
<path d="M69685 73821
L112205 73821
" />
</g>
<g style="fill:#000000; fill-opacity:0.0; 
stroke:#000000; stroke-width:157.48; stroke-opacity:1; 
stroke-linecap:round; stroke-linejoin:round;">
<text x="70079.6" y="74924.1"
textLength="22411.3" font-size="1049.87" lengthAdjust="spacingAndGlyphs"
text-anchor="start" opacity="0">Title: MM17D RH/T measuring device</text>
<path d="M70360 74099
L70810 74099
" />
<path d="M70486 74886
L70585 74099
" />
<path d="M70974 74886
L71039 74361
" />
<path d="M71072 74099
L71030 74136
L71063 74174
L71105 74136
L71072 74099
L71063 74174
" />
<path d="M71302 74361
L71602 74361
" />
<path d="M71447 74099
L71363 74774
L71391 74849
L71461 74886
L71536 74886
" />
<path d="M71911 74886
L71841 74849
L71813 74774
L71897 74099
" />
<path d="M72516 74849
L72436 74886
L72286 74886
L72216 74849
L72187 74774
L72225 74474
L72272 74399
L72352 74361
L72501 74361
L72572 74399
L72600 74474
L72591 74549
L72206 74624
" />
<path d="M72895 74811
L72928 74849
L72886 74886
L72853 74849
L72895 74811
L72886 74886
" />
<path d="M72947 74399
L72980 74436
L72937 74474
L72905 74436
L72947 74399
L72937 74474
" />
<path d="M73861 74886
L73959 74099
L74151 74661
L74484 74099
L74386 74886
" />
<path d="M74761 74886
L74859 74099
L75051 74661
L75384 74099
L75286 74886
" />
<path d="M76073 74886
L75623 74886
" />
<path d="M75848 74886
L75946 74099
L75857 74211
L75773 74286
L75693 74324
" />
<path d="M76434 74099
L76959 74099
L76523 74886
" />
<path d="M77160 74886
L77259 74099
L77446 74099
L77554 74136
L77620 74211
L77648 74286
L77666 74436
L77652 74549
L77596 74699
L77549 74774
L77465 74849
L77348 74886
L77160 74886
" />
<path d="M78998 74886
L78782 74511
" />
<path d="M78548 74886
L78646 74099
L78946 74099
L79016 74136
L79049 74174
L79077 74249
L79063 74361
L79016 74436
L78974 74474
L78894 74511
L78594 74511
" />
<path d="M79335 74886
L79433 74099
" />
<path d="M79387 74474
L79837 74474
" />
<path d="M79785 74886
L79883 74099
" />
<path d="M80825 74061
L80024 75074
" />
<path d="M80971 74099
L81421 74099
" />
<path d="M81097 74886
L81196 74099
" />
<path d="M82185 74886
L82250 74361
" />
<path d="M82241 74436
L82283 74399
L82363 74361
L82475 74361
L82546 74399
L82574 74474
L82522 74886
" />
<path d="M82574 74474
L82621 74399
L82700 74361
L82813 74361
L82883 74399
L82911 74474
L82860 74886
" />
<path d="M83539 74849
L83459 74886
L83310 74886
L83239 74849
L83211 74774
L83249 74474
L83295 74399
L83375 74361
L83525 74361
L83595 74399
L83624 74474
L83614 74549
L83230 74624
" />
<path d="M84247 74886
L84298 74474
L84270 74399
L84200 74361
L84050 74361
L83970 74399
" />
<path d="M84252 74849
L84172 74886
L83984 74886
L83914 74849
L83886 74774
L83895 74699
L83942 74624
L84022 74586
L84209 74586
L84289 74549
" />
<path d="M84589 74849
L84659 74886
L84809 74886
L84889 74849
L84936 74774
L84941 74736
L84912 74661
L84842 74624
L84730 74624
L84659 74586
L84631 74511
L84636 74474
L84683 74399
L84762 74361
L84875 74361
L84945 74399
" />
<path d="M85662 74361
L85597 74886
" />
<path d="M85325 74361
L85273 74774
L85301 74849
L85372 74886
L85484 74886
L85564 74849
L85606 74811
" />
<path d="M85972 74886
L86037 74361
" />
<path d="M86019 74511
L86065 74436
L86108 74399
L86187 74361
L86262 74361
" />
<path d="M86459 74886
L86525 74361
" />
<path d="M86558 74099
L86515 74136
L86548 74174
L86590 74136
L86558 74099
L86548 74174
" />
<path d="M86900 74361
L86834 74886
" />
<path d="M86890 74436
L86932 74399
L87012 74361
L87125 74361
L87195 74399
L87223 74474
L87172 74886
" />
<path d="M87950 74361
L87870 74999
L87823 75074
L87781 75111
L87701 75149
L87589 75149
L87518 75111
" />
<path d="M87889 74849
L87809 74886
L87659 74886
L87589 74849
L87556 74811
L87528 74736
L87556 74511
L87603 74436
L87645 74399
L87725 74361
L87875 74361
L87945 74399
" />
<path d="M89196 74886
L89295 74099
" />
<path d="M89201 74849
L89121 74886
L88971 74886
L88901 74849
L88868 74811
L88840 74736
L88868 74511
L88915 74436
L88957 74399
L89037 74361
L89187 74361
L89257 74399
" />
<path d="M89876 74849
L89796 74886
L89646 74886
L89576 74849
L89548 74774
L89585 74474
L89632 74399
L89712 74361
L89862 74361
L89932 74399
L89960 74474
L89951 74549
L89567 74624
" />
<path d="M90237 74361
L90359 74886
L90612 74361
" />
<path d="M90846 74886
L90912 74361
" />
<path d="M90944 74099
L90902 74136
L90935 74174
L90977 74136
L90944 74099
L90935 74174
" />
<path d="M91563 74849
L91483 74886
L91334 74886
L91263 74849
L91230 74811
L91202 74736
L91230 74511
L91277 74436
L91319 74399
L91399 74361
L91549 74361
L91619 74399
" />
<path d="M92201 74849
L92121 74886
L91971 74886
L91901 74849
L91873 74774
L91910 74474
L91957 74399
L92037 74361
L92187 74361
L92257 74399
L92285 74474
L92276 74549
L91891 74624
" />
</g>
<g style="fill:#000000; fill-opacity:0.0; 
stroke:#000000; stroke-width:59.0551; stroke-opacity:1; 
stroke-linecap:round; stroke-linejoin:round;">
<text x="70079.6" y="73408.3"
textLength="10412.8" font-size="787.402" lengthAdjust="spacingAndGlyphs"
text-anchor="start" opacity="0">File: mm17d.kicad_pcb</text>
<path d="M70446 73070
L70249 73070
" />
<path d="M70249 73380
L70249 72789
L70530 72789
" />
<path d="M70755 73380
L70755 72986
" />
<path d="M70755 72789
L70727 72817
L70755 72845
L70784 72817
L70755 72789
L70755 72845
" />
<path d="M71121 73380
L71065 73352
L71037 73295
L71037 72789
" />
<path d="M71571 73352
L71515 73380
L71402 73380
L71346 73352
L71318 73295
L71318 73070
L71346 73014
L71402 72986
L71515 72986
L71571 73014
L71599 73070
L71599 73127
L71318 73183
" />
<path d="M71852 73323
L71880 73352
L71852 73380
L71824 73352
L71852 73323
L71852 73380
" />
<path d="M71852 73014
L71880 73042
L71852 73070
L71824 73042
L71852 73014
L71852 73070
" />
<path d="M72583 73380
L72583 72986
" />
<path d="M72583 73042
L72611 73014
L72668 72986
L72752 72986
L72808 73014
L72836 73070
L72836 73380
" />
<path d="M72836 73070
L72865 73014
L72921 72986
L73005 72986
L73061 73014
L73090 73070
L73090 73380
" />
<path d="M73371 73380
L73371 72986
" />
<path d="M73371 73042
L73399 73014
L73455 72986
L73539 72986
L73596 73014
L73624 73070
L73624 73380
" />
<path d="M73624 73070
L73652 73014
L73708 72986
L73793 72986
L73849 73014
L73877 73070
L73877 73380
" />
<path d="M74467 73380
L74130 73380
" />
<path d="M74299 73380
L74299 72789
L74242 72874
L74186 72930
L74130 72958
" />
<path d="M74664 72789
L75058 72789
L74805 73380
" />
<path d="M75536 73380
L75536 72789
" />
<path d="M75536 73352
L75480 73380
L75367 73380
L75311 73352
L75283 73323
L75255 73267
L75255 73099
L75283 73042
L75311 73014
L75367 72986
L75480 72986
L75536 73014
" />
<path d="M75817 73323
L75845 73352
L75817 73380
L75789 73352
L75817 73323
L75817 73380
" />
<path d="M76099 73380
L76099 72789
" />
<path d="M76155 73155
L76323 73380
" />
<path d="M76323 72986
L76099 73211
" />
<path d="M76577 73380
L76577 72986
" />
<path d="M76577 72789
L76548 72817
L76577 72845
L76605 72817
L76577 72789
L76577 72845
" />
<path d="M77111 73352
L77055 73380
L76942 73380
L76886 73352
L76858 73323
L76830 73267
L76830 73099
L76858 73042
L76886 73014
L76942 72986
L77055 72986
L77111 73014
" />
<path d="M77617 73380
L77617 73070
L77589 73014
L77533 72986
L77420 72986
L77364 73014
" />
<path d="M77617 73352
L77561 73380
L77420 73380
L77364 73352
L77336 73295
L77336 73239
L77364 73183
L77420 73155
L77561 73155
L77617 73127
" />
<path d="M78151 73380
L78151 72789
" />
<path d="M78151 73352
L78095 73380
L77983 73380
L77926 73352
L77898 73323
L77870 73267
L77870 73099
L77898 73042
L77926 73014
L77983 72986
L78095 72986
L78151 73014
" />
<path d="M78292 73436
L78742 73436
" />
<path d="M78883 72986
L78883 73577
" />
<path d="M78883 73014
L78939 72986
L79051 72986
L79108 73014
L79136 73042
L79164 73099
L79164 73267
L79136 73323
L79108 73352
L79051 73380
L78939 73380
L78883 73352
" />
<path d="M79670 73352
L79614 73380
L79501 73380
L79445 73352
L79417 73323
L79389 73267
L79389 73099
L79417 73042
L79445 73014
L79501 72986
L79614 72986
L79670 73014
" />
<path d="M79923 73380
L79923 72789
" />
<path d="M79923 73014
L79979 72986
L80092 72986
L80148 73014
L80176 73042
L80204 73099
L80204 73267
L80176 73323
L80148 73352
L80092 73380
L79979 73380
L79923 73352
" />
<path d="M69685 71459
L112205 71459
" />
<text x="70079.6" y="72345.4"
textLength="3236.78" font-size="787.402" lengthAdjust="spacingAndGlyphs"
text-anchor="start" opacity="0">Sheet: </text>
<path d="M70221 72289
L70305 72317
L70446 72317
L70502 72289
L70530 72260
L70559 72204
L70559 72148
L70530 72092
L70502 72064
L70446 72036
L70334 72007
L70277 71979
L70249 71951
L70221 71895
L70221 71839
L70249 71782
L70277 71754
L70334 71726
L70474 71726
L70559 71754
" />
<path d="M70812 72317
L70812 71726
" />
<path d="M71065 72317
L71065 72007
L71037 71951
L70980 71923
L70896 71923
L70840 71951
L70812 71979
" />
<path d="M71571 72289
L71515 72317
L71402 72317
L71346 72289
L71318 72232
L71318 72007
L71346 71951
L71402 71923
L71515 71923
L71571 71951
L71599 72007
L71599 72064
L71318 72120
" />
<path d="M72077 72289
L72021 72317
L71908 72317
L71852 72289
L71824 72232
L71824 72007
L71852 71951
L71908 71923
L72021 71923
L72077 71951
L72105 72007
L72105 72064
L71824 72120
" />
<path d="M72274 71923
L72499 71923
" />
<path d="M72358 71726
L72358 72232
L72386 72289
L72443 72317
L72499 72317
" />
<path d="M72696 72260
L72724 72289
L72696 72317
L72668 72289
L72696 72260
L72696 72317
" />
<path d="M72696 71951
L72724 71979
L72696 72007
L72668 71979
L72696 71951
L72696 72007
" />
</g>
<g style="fill:#000000; fill-opacity:0.0; 
stroke:#000000; stroke-width:118.11; stroke-opacity:1; 
stroke-linecap:round; stroke-linejoin:round;">
<text x="70079.6" y="71164.3"
textLength="17972.4" font-size="787.402" lengthAdjust="spacingAndGlyphs"
text-anchor="start" opacity="0">Pozsar Zsolt - http://www.pozsarzs.hu</text>
<path d="M70296 71136
L70296 70545
L70521 70545
L70578 70573
L70606 70601
L70634 70658
L70634 70742
L70606 70798
L70578 70826
L70521 70854
L70296 70854
" />
<path d="M70971 71136
L70915 71108
L70887 71079
L70859 71023
L70859 70854
L70887 70798
L70915 70770
L70971 70742
L71056 70742
L71112 70770
L71140 70798
L71168 70854
L71168 71023
L71140 71079
L71112 71108
L71056 71136
L70971 71136
" />
<path d="M71365 70742
L71674 70742
L71365 71136
L71674 71136
" />
<path d="M71871 71108
L71928 71136
L72040 71136
L72096 71108
L72124 71051
L72124 71023
L72096 70967
L72040 70939
L71956 70939
L71899 70911
L71871 70854
L71871 70826
L71899 70770
L71956 70742
L72040 70742
L72096 70770
" />
<path d="M72631 71136
L72631 70826
L72602 70770
L72546 70742
L72434 70742
L72377 70770
" />
<path d="M72631 71108
L72574 71136
L72434 71136
L72377 71108
L72349 71051
L72349 70995
L72377 70939
L72434 70911
L72574 70911
L72631 70883
" />
<path d="M72912 71136
L72912 70742
" />
<path d="M72912 70854
L72940 70798
L72968 70770
L73024 70742
L73081 70742
" />
<path d="M73671 70545
L74065 70545
L73671 71136
L74065 71136
" />
<path d="M74262 71108
L74318 71136
L74430 71136
L74487 71108
L74515 71051
L74515 71023
L74487 70967
L74430 70939
L74346 70939
L74290 70911
L74262 70854
L74262 70826
L74290 70770
L74346 70742
L74430 70742
L74487 70770
" />
<path d="M74852 71136
L74796 71108
L74768 71079
L74740 71023
L74740 70854
L74768 70798
L74796 70770
L74852 70742
L74937 70742
L74993 70770
L75021 70798
L75049 70854
L75049 71023
L75021 71079
L74993 71108
L74937 71136
L74852 71136
" />
<path d="M75386 71136
L75330 71108
L75302 71051
L75302 70545
" />
<path d="M75527 70742
L75752 70742
" />
<path d="M75611 70545
L75611 71051
L75640 71108
L75696 71136
L75752 71136
" />
<path d="M76399 70911
L76849 70911
" />
<path d="M77580 71136
L77580 70545
" />
<path d="M77833 71136
L77833 70826
L77805 70770
L77749 70742
L77664 70742
L77608 70770
L77580 70798
" />
<path d="M78030 70742
L78255 70742
" />
<path d="M78114 70545
L78114 71051
L78142 71108
L78199 71136
L78255 71136
" />
<path d="M78367 70742
L78592 70742
" />
<path d="M78452 70545
L78452 71051
L78480 71108
L78536 71136
L78592 71136
" />
<path d="M78789 70742
L78789 71332
" />
<path d="M78789 70770
L78845 70742
L78958 70742
L79014 70770
L79042 70798
L79070 70854
L79070 71023
L79042 71079
L79014 71108
L78958 71136
L78845 71136
L78789 71108
" />
<path d="M79323 71079
L79352 71108
L79323 71136
L79295 71108
L79323 71079
L79323 71136
" />
<path d="M79323 70770
L79352 70798
L79323 70826
L79295 70798
L79323 70770
L79323 70826
" />
<path d="M80027 70517
L79520 71276
" />
<path d="M80645 70517
L80139 71276
" />
<path d="M80786 70742
L80898 71136
L81011 70854
L81123 71136
L81236 70742
" />
<path d="M81404 70742
L81517 71136
L81629 70854
L81742 71136
L81854 70742
" />
<path d="M82023 70742
L82136 71136
L82248 70854
L82361 71136
L82473 70742
" />
<path d="M82698 71079
L82726 71108
L82698 71136
L82670 71108
L82698 71079
L82698 71136
" />
<path d="M82979 70742
L82979 71332
" />
<path d="M82979 70770
L83036 70742
L83148 70742
L83204 70770
L83232 70798
L83260 70854
L83260 71023
L83232 71079
L83204 71108
L83148 71136
L83036 71136
L82979 71108
" />
<path d="M83598 71136
L83542 71108
L83514 71079
L83485 71023
L83485 70854
L83514 70798
L83542 70770
L83598 70742
L83682 70742
L83739 70770
L83767 70798
L83795 70854
L83795 71023
L83767 71079
L83739 71108
L83682 71136
L83598 71136
" />
<path d="M83992 70742
L84301 70742
L83992 71136
L84301 71136
" />
<path d="M84498 71108
L84554 71136
L84667 71136
L84723 71108
L84751 71051
L84751 71023
L84723 70967
L84667 70939
L84582 70939
L84526 70911
L84498 70854
L84498 70826
L84526 70770
L84582 70742
L84667 70742
L84723 70770
" />
<path d="M85257 71136
L85257 70826
L85229 70770
L85173 70742
L85060 70742
L85004 70770
" />
<path d="M85257 71108
L85201 71136
L85060 71136
L85004 71108
L84976 71051
L84976 70995
L85004 70939
L85060 70911
L85201 70911
L85257 70883
" />
<path d="M85538 71136
L85538 70742
" />
<path d="M85538 70854
L85566 70798
L85595 70770
L85651 70742
L85707 70742
" />
<path d="M85848 70742
L86157 70742
L85848 71136
L86157 71136
" />
<path d="M86354 71108
L86410 71136
L86523 71136
L86579 71108
L86607 71051
L86607 71023
L86579 70967
L86523 70939
L86438 70939
L86382 70911
L86354 70854
L86354 70826
L86382 70770
L86438 70742
L86523 70742
L86579 70770
" />
<path d="M86860 71079
L86888 71108
L86860 71136
L86832 71108
L86860 71079
L86860 71136
" />
<path d="M87141 71136
L87141 70545
" />
<path d="M87394 71136
L87394 70826
L87366 70770
L87310 70742
L87226 70742
L87169 70770
L87141 70798
" />
<path d="M87929 70742
L87929 71136
" />
<path d="M87676 70742
L87676 71051
L87704 71108
L87760 71136
L87844 71136
L87901 71108
L87929 71079
" />
</g>
<g style="fill:#000000; fill-opacity:0.0; 
stroke:#000000; stroke-width:59.0551; stroke-opacity:1; 
stroke-linecap:round; stroke-linejoin:round;">
<path d="M77559 75396
L77559 76577
" />
<path d="M102756 75396
L102756 77955
" />
</g>
<g style="fill:#000000; fill-opacity:0.0; 
stroke:#000000; stroke-width:118.11; stroke-opacity:1; 
stroke-linecap:round; stroke-linejoin:round;">
<text x="51800" y="46795.3"
textLength="3218.79" font-size="787.402" lengthAdjust="spacingAndGlyphs"
text-anchor="middle" opacity="0">MM17D</text>
<path d="M50407 46767
L50407 46176
L50604 46598
L50801 46176
L50801 46767
" />
<path d="M51082 46767
L51082 46176
L51279 46598
L51476 46176
L51476 46767
" />
<path d="M52067 46767
L51729 46767
" />
<path d="M51898 46767
L51898 46176
L51842 46260
L51785 46317
L51729 46345
" />
<path d="M52264 46176
L52657 46176
L52404 46767
" />
<path d="M52882 46767
L52882 46176
L53023 46176
L53107 46204
L53163 46260
L53192 46317
L53220 46429
L53220 46514
L53192 46626
L53163 46682
L53107 46739
L53023 46767
L52882 46767
" />
</g>
<g style="fill:#000000; fill-opacity:0.0; 
stroke:#000000; stroke-width:59.0551; stroke-opacity:1; 
stroke-linecap:round; stroke-linejoin:round;">
<path d="M48800 26400
L48800 51400
" />
<path d="M69600 26400
L48800 26400
" />
<path d="M69600 51400
L69600 26400
" />
<path d="M48800 51400
L69600 51400
" />
</g>
<g style="fill:#000000; fill-opacity:0.0; 
stroke:#000000; stroke-width:78.7402; stroke-opacity:1; 
stroke-linecap:round; stroke-linejoin:round;">
<path d="M49600 48400
L68800 48400
" />
<path d="M68800 34250
L49550 34250
" />
</g>
<g style="fill:#000000; fill-opacity:0.0; 
stroke:#000000; stroke-width:47.2441; stroke-opacity:1; 
stroke-linecap:round; stroke-linejoin:round;">
<path d="M49476 29476
L50000 29476
" />
<path d="M49476 30000
L49476 29476
" />
<path d="M49476 30500
L50523 30500
" />
<path d="M50523 30500
L50523 33523
" />
<path d="M49476 30500
L49476 33523
" />
<path d="M49476 33523
L50523 33523
" />
<path d="M62047 37106
L62047 36566
" />
<path d="M62047 36566
L51952 36566
" />
<path d="M51952 36566
L51952 38433
" />
<path d="M51952 43433
L62047 43433
" />
<path d="M62047 38433
L62047 37893
" />
<path d="M62047 35452
L51952 35452
" />
<path d="M51952 35452
L51952 44547
" />
<path d="M51952 44547
L62047 44547
" />
<path d="M62050 44540
L62047 35452
" />
</g>
<g style="fill:#000000; fill-opacity:0.0; 
stroke:#000000; stroke-width:59.0551; stroke-opacity:1; 
stroke-linecap:round; stroke-linejoin:round;">
<path d="M62000 38500
L60000 38500
" />
<path d="M60000 38500
L60000 37500
" />
<path d="M60000 37500
L62000 37500
" />
<path d="M62000 37500
L62000 38500
" />
<path d="M60000 39000
L62000 39000
" />
<path d="M62000 39000
L62000 40000
" />
<path d="M62000 40000
L60000 40000
" />
<path d="M60000 40000
L60000 39000
" />
<path d="M60000 42000
L62000 42000
" />
<path d="M62000 42000
L62000 43000
" />
<path d="M62000 43000
L60000 43000
" />
<path d="M60000 43000
L60000 42000
" />
<path d="M60000 40500
L62000 40500
" />
<path d="M62000 40500
L62000 41500
" />
<path d="M62000 41500
L60000 41500
" />
<path d="M60000 41500
L60000 40500
" />
<path d="M52000 49500
L54000 49500
" />
<path d="M54000 49500
L54000 50500
" />
<path d="M54000 50500
L52000 50500
" />
<path d="M52000 50500
L52000 49500
" />
<path d="M52500 39000
L54500 39000
" />
<path d="M54500 39000
L54500 40000
" />
<path d="M54500 40000
L52500 40000
" />
<path d="M52500 40000
L52500 39000
" />
<path d="M52500 39500
L52000 39500
" />
<path d="M54500 39500
L55000 39500
" />
<path d="M52500 40500
L54500 40500
" />
<path d="M54500 40500
L54500 41500
" />
<path d="M54500 41500
L52500 41500
" />
<path d="M52500 41500
L52500 40500
" />
<path d="M52500 41000
L52000 41000
" />
<path d="M54500 41000
L55000 41000
" />
<path d="M66000 50500
L64000 50500
" />
<path d="M64000 50500
L64000 49500
" />
<path d="M64000 49500
L66000 49500
" />
<path d="M66000 49500
L66000 50500
" />
<path d="M68501 46500
L68501 46900
" />
<path d="M68501 44600
L68501 44100
" />
<path d="M69001 44700
L68001 44700
" />
<path d="M69001 44800
L68001 44800
" />
<path d="M69001 44900
L68001 44900
" />
<path d="M69001 44600
L68001 44600
" />
<path d="M69001 45000
L68001 44500
" />
<path d="M69001 44500
L68001 45000
" />
<path d="M69001 45000
L68001 45000
" />
<path d="M69001 44750
L68001 44750
" />
<path d="M68001 44500
L69001 44500
" />
<path d="M69001 44500
L69001 46500
" />
<path d="M69001 46500
L68001 46500
" />
<path d="M68001 46500
L68001 44500
" />
</g>
<g style="fill:#000000; fill-opacity:0.0; 
stroke:#000000; stroke-width:47.2441; stroke-opacity:1; 
stroke-linecap:round; stroke-linejoin:round;">
<path d="M66818 44860
L66503 44860
" />
<path d="M66661 44702
L66661 45017
" />
<path d="M65959 48045
L65540 48045
" />
<path d="M66052 48029
L65447 48029
" />
<path d="M66123 48014
L65376 48014
" />
<path d="M66182 47998
L65317 47998
" />
<path d="M66233 47982
L65266 47982
" />
<path d="M66279 47966
L65220 47966
" />
<path d="M66322 47951
L65177 47951
" />
<path d="M66361 47935
L65138 47935
" />
<path d="M66397 47919
L65102 47919
" />
<path d="M66431 47903
L65068 47903
" />
<path d="M66463 47888
L65036 47888
" />
<path d="M66494 47872
L65005 47872
" />
<path d="M66523 47856
L64976 47856
" />
<path d="M66550 47840
L64949 47840
" />
<path d="M66577 47825
L64922 47825
" />
<path d="M66602 47809
L64897 47809
" />
<path d="M66627 47793
L64872 47793
" />
<path d="M66650 47777
L64849 47777
" />
<path d="M66673 47762
L64826 47762
" />
<path d="M66694 47746
L64805 47746
" />
<path d="M66716 47730
L64783 47730
" />
<path d="M66736 47714
L64763 47714
" />
<path d="M66756 47699
L64743 47699
" />
<path d="M66775 47683
L64724 47683
" />
<path d="M66793 47667
L64706 47667
" />
<path d="M66811 47651
L64688 47651
" />
<path d="M66829 47636
L64670 47636
" />
<path d="M66846 47620
L64653 47620
" />
<path d="M66862 47604
L64637 47604
" />
<path d="M66878 47588
L64621 47588
" />
<path d="M66894 47573
L64605 47573
" />
<path d="M66909 47557
L64590 47557
" />
<path d="M66924 47541
L64575 47541
" />
<path d="M65340 47525
L64561 47525
" />
<path d="M66938 47525
L66159 47525
" />
<path d="M65340 47510
L64547 47510
" />
<path d="M66952 47510
L66159 47510
" />
<path d="M65340 47494
L64533 47494
" />
<path d="M66966 47494
L66159 47494
" />
<path d="M65340 47478
L64520 47478
" />
<path d="M66979 47478
L66159 47478
" />
<path d="M65340 47462
L64507 47462
" />
<path d="M66992 47462
L66159 47462
" />
<path d="M65340 47447
L64494 47447
" />
<path d="M67005 47447
L66159 47447
" />
<path d="M65340 47431
L64482 47431
" />
<path d="M67017 47431
L66159 47431
" />
<path d="M65340 47415
L64470 47415
" />
<path d="M67029 47415
L66159 47415
" />
<path d="M65340 47400
L64458 47400
" />
<path d="M67041 47400
L66159 47400
" />
<path d="M65340 47384
L64447 47384
" />
<path d="M67052 47384
L66159 47384
" />
<path d="M65340 47368
L64435 47368
" />
<path d="M67064 47368
L66159 47368
" />
<path d="M65340 47352
L64425 47352
" />
<path d="M67074 47352
L66159 47352
" />
<path d="M65340 47337
L64414 47337
" />
<path d="M67085 47337
L66159 47337
" />
<path d="M65340 47321
L64404 47321
" />
<path d="M67095 47321
L66159 47321
" />
<path d="M65340 47305
L64394 47305
" />
<path d="M67105 47305
L66159 47305
" />
<path d="M65340 47289
L64384 47289
" />
<path d="M67115 47289
L66159 47289
" />
<path d="M65340 47274
L64374 47274
" />
<path d="M67125 47274
L66159 47274
" />
<path d="M65340 47258
L64365 47258
" />
<path d="M67134 47258
L66159 47258
" />
<path d="M65340 47242
L64356 47242
" />
<path d="M67143 47242
L66159 47242
" />
<path d="M65340 47226
L64347 47226
" />
<path d="M67152 47226
L66159 47226
" />
<path d="M65340 47211
L64338 47211
" />
<path d="M67161 47211
L66159 47211
" />
<path d="M65340 47195
L64330 47195
" />
<path d="M67169 47195
L66159 47195
" />
<path d="M65340 47179
L64322 47179
" />
<path d="M67177 47179
L66159 47179
" />
<path d="M65340 47163
L64314 47163
" />
<path d="M67185 47163
L66159 47163
" />
<path d="M65340 47148
L64306 47148
" />
<path d="M67193 47148
L66159 47148
" />
<path d="M65340 47132
L64298 47132
" />
<path d="M67201 47132
L66159 47132
" />
<path d="M65340 47116
L64291 47116
" />
<path d="M67208 47116
L66159 47116
" />
<path d="M65340 47100
L64284 47100
" />
<path d="M67215 47100
L66159 47100
" />
<path d="M65340 47085
L64277 47085
" />
<path d="M67222 47085
L66159 47085
" />
<path d="M65340 47069
L64270 47069
" />
<path d="M67229 47069
L66159 47069
" />
<path d="M65340 47053
L64264 47053
" />
<path d="M67235 47053
L66159 47053
" />
<path d="M65340 47037
L64257 47037
" />
<path d="M67242 47037
L66159 47037
" />
<path d="M65340 47022
L64251 47022
" />
<path d="M67248 47022
L66159 47022
" />
<path d="M65340 47006
L64245 47006
" />
<path d="M67254 47006
L66159 47006
" />
<path d="M65340 46990
L64240 46990
" />
<path d="M67259 46990
L66159 46990
" />
<path d="M65340 46974
L64234 46974
" />
<path d="M67265 46974
L66159 46974
" />
<path d="M65340 46959
L64229 46959
" />
<path d="M67270 46959
L66159 46959
" />
<path d="M65340 46943
L64223 46943
" />
<path d="M67276 46943
L66159 46943
" />
<path d="M65340 46927
L64218 46927
" />
<path d="M67281 46927
L66159 46927
" />
<path d="M65340 46911
L64213 46911
" />
<path d="M67286 46911
L66159 46911
" />
<path d="M65340 46896
L64209 46896
" />
<path d="M67290 46896
L66159 46896
" />
<path d="M65340 46880
L64204 46880
" />
<path d="M67295 46880
L66159 46880
" />
<path d="M65340 46864
L64200 46864
" />
<path d="M67299 46864
L66159 46864
" />
<path d="M65340 46848
L64196 46848
" />
<path d="M67303 46848
L66159 46848
" />
<path d="M65340 46833
L64192 46833
" />
<path d="M67307 46833
L66159 46833
" />
<path d="M65340 46817
L64188 46817
" />
<path d="M67311 46817
L66159 46817
" />
<path d="M65340 46801
L64184 46801
" />
<path d="M67315 46801
L66159 46801
" />
<path d="M65340 46785
L64181 46785
" />
<path d="M67318 46785
L66159 46785
" />
<path d="M65340 46770
L64177 46770
" />
<path d="M67322 46770
L66159 46770
" />
<path d="M65340 46754
L64174 46754
" />
<path d="M67325 46754
L66159 46754
" />
<path d="M65340 46738
L64171 46738
" />
<path d="M67328 46738
L66159 46738
" />
<path d="M65340 46722
L64168 46722
" />
<path d="M67331 46722
L66159 46722
" />
<path d="M67334 46706
L64165 46706
" />
<path d="M67336 46690
L64163 46690
" />
<path d="M67339 46675
L64160 46675
" />
<path d="M67341 46659
L64158 46659
" />
<path d="M67343 46643
L64156 46643
" />
<path d="M67345 46627
L64154 46627
" />
<path d="M67347 46612
L64152 46612
" />
<path d="M67348 46596
L64151 46596
" />
<path d="M67350 46580
L64149 46580
" />
<path d="M67351 46564
L64148 46564
" />
<path d="M67352 46549
L64147 46549
" />
<path d="M67353 46533
L64146 46533
" />
<path d="M67354 46517
L64145 46517
" />
<path d="M67355 46501
L64144 46501
" />
<path d="M67355 46486
L64144 46486
" />
<path d="M67356 46470
L64143 46470
" />
<path d="M67356 46454
L64143 46454
" />
<path d="M67356 46438
L64143 46438
" />
<circle cx="65750" cy="46439" r="1622.05" /> 
<path d="M67409 36566
L67409 38433
" />
<path d="M64559 36566
L64559 38433
" />
<path d="M64559 38433
L67409 38433
" />
<path d="M64559 36566
L67409 36566
" />
<path d="M62925 47614
L62986 47614
" />
<path d="M62013 47614
L62074 47614
" />
<path d="M62075.4 46341.6 A783.465 783.465 0.0 0 0 62013.6 47614.2" />
<path d="M62986.4 47614.2 A783.465 783.465 0.0 0 0 62924.6 46341.6" />
<path d="M62074.9 46590.1 A590.551 590.551 0.0 0 0 62074.8 47409.8" />
<path d="M62925.2 47409.8 A590.551 590.551 0.0 0 0 62925.1 46590.1" />
<path d="M60925.2 47409.8 A590.551 590.551 0.0 0 0 60925.1 46590.1" />
<path d="M60074.9 46590.1 A590.551 590.551 0.0 0 0 60074.8 47409.8" />
<path d="M60986.4 47614.2 A783.465 783.465 0.0 0 0 60924.6 46341.6" />
<path d="M60075.4 46341.6 A783.465 783.465 0.0 0 0 60013.6 47614.2" />
<path d="M60013 47614
L60074 47614
" />
<path d="M60925 47614
L60986 47614
" />
<path d="M58925 47614
L58986 47614
" />
<path d="M58013 47614
L58074 47614
" />
<path d="M58075.4 46341.6 A783.465 783.465 0.0 0 0 58013.6 47614.2" />
<path d="M58986.4 47614.2 A783.465 783.465 0.0 0 0 58924.6 46341.6" />
<path d="M58074.9 46590.1 A590.551 590.551 0.0 0 0 58074.8 47409.8" />
<path d="M58925.2 47409.8 A590.551 590.551 0.0 0 0 58925.1 46590.1" />
<path d="M56925 47614
L56986 47614
" />
<path d="M56013 47614
L56074 47614
" />
<path d="M56075.4 46341.6 A783.465 783.465 0.0 0 0 56013.6 47614.2" />
<path d="M56986.4 47614.2 A783.465 783.465 0.0 0 0 56924.6 46341.6" />
<path d="M56074.9 46590.1 A590.551 590.551 0.0 0 0 56074.8 47409.8" />
<path d="M56925.2 47409.8 A590.551 590.551 0.0 0 0 56925.1 46590.1" />
<path d="M54925.2 47409.8 A590.551 590.551 0.0 0 0 54925.1 46590.1" />
<path d="M54074.9 46590.1 A590.551 590.551 0.0 0 0 54074.8 47409.8" />
<path d="M54986.4 47614.2 A783.465 783.465 0.0 0 0 54924.6 46341.6" />
<path d="M54075.4 46341.6 A783.465 783.465 0.0 0 0 54013.6 47614.2" />
<path d="M54013 47614
L54074 47614
" />
<path d="M54925 47614
L54986 47614
" />
<path d="M64476 44023
L64476 43500
" />
<path d="M65000 44023
L64476 44023
" />
<path d="M65500 44023
L65500 42976
" />
<path d="M65500 42976
L66523 42976
" />
<path d="M65500 44023
L66523 44023
" />
<path d="M66523 44023
L66523 42976
" />
<path d="M69023 36476
L67976 36476
" />
<path d="M69023 37500
L69023 36476
" />
<path d="M67976 37500
L67976 36476
" />
<path d="M69023 37500
L67976 37500
" />
<path d="M69023 38000
L69023 38523
" />
<path d="M69023 38523
L68500 38523
" />
<path d="M56476 51244
L56476 50610
" />
<path d="M56476 51244
L57263 51244
" />
<path d="M61413 51133
L56590 51133
" />
<path d="M61413 48866
L61413 51133
" />
<path d="M56586 48866
L61413 48866
" />
<path d="M56586 51129
L56586 48870
" />
<g >
</g>
<g >
</g>
<g >
</g>
<g >
</g>
<g >
</g>
<g >
</g>
<g >
</g>
<g >
</g>
<g >
</g>
<g >
</g>
<g >
</g>
<g >
</g>
<g >
</g>
<g >
</g>
<g >
</g>
<g >
</g>
<g >
</g>
<g >
</g>
<g >
</g>
<g >
</g>
<g >
</g>
<g >
</g>
<g >
</g>
<g >
</g>
<g >
</g>
</g>
<g style="fill:#000000; fill-opacity:0.0; 
stroke:#000000; stroke-width:47.2441; stroke-opacity:1; 
stroke-linecap:round; stroke-linejoin:round;">
</g>
<g style="fill:#000000; fill-opacity:0.0; 
stroke:#000000; stroke-width:59.0551; stroke-opacity:1; 
stroke-linecap:round; stroke-linejoin:round;">
<g transform="rotate(-90 51250 31750)">
<text x="51250" y="31946.9"
textLength="1672.1" font-size="524.934" lengthAdjust="spacingAndGlyphs"
text-anchor="middle" opacity="0">P103</text>
</g>
<path d="M51428 32415
L51034 32415
L51034 32265
L51053 32228
L51071 32209
L51109 32190
L51165 32190
L51203 32209
L51221 32228
L51240 32265
L51240 32415
" />
<path d="M51428 31815
L51428 32040
" />
<path d="M51428 31928
L51034 31928
L51090 31965
L51128 32003
L51146 32040
" />
<path d="M51034 31571
L51034 31534
L51053 31496
L51071 31478
L51109 31459
L51184 31440
L51278 31440
L51353 31459
L51390 31478
L51409 31496
L51428 31534
L51428 31571
L51409 31609
L51390 31628
L51353 31646
L51278 31665
L51184 31665
L51109 31646
L51071 31628
L51053 31609
L51034 31571
" />
<path d="M51034 31309
L51034 31065
L51184 31196
L51184 31140
L51203 31103
L51221 31084
L51259 31065
L51353 31065
L51390 31084
L51409 31103
L51428 31140
L51428 31253
L51409 31290
L51390 31309
" />
<g transform="rotate(-90 51500 43750)">
<text x="51500" y="43946.9"
textLength="1614.08" font-size="524.934" lengthAdjust="spacingAndGlyphs"
text-anchor="middle" opacity="0">U101</text>
</g>
<path d="M51284 44424
L51603 44424
L51640 44406
L51659 44387
L51678 44349
L51678 44274
L51659 44237
L51640 44218
L51603 44199
L51284 44199
" />
<path d="M51678 43806
L51678 44031
" />
<path d="M51678 43918
L51284 43918
L51340 43956
L51378 43993
L51396 44031
" />
<path d="M51284 43562
L51284 43525
L51303 43487
L51321 43468
L51359 43450
L51434 43431
L51528 43431
L51603 43450
L51640 43468
L51659 43487
L51678 43525
L51678 43562
L51659 43600
L51640 43618
L51603 43637
L51528 43656
L51434 43656
L51359 43637
L51321 43618
L51303 43600
L51284 43562
" />
<path d="M51678 43056
L51678 43281
" />
<path d="M51678 43168
L51284 43168
L51340 43206
L51378 43243
L51396 43281
" />
<text x="61000" y="38196.9"
textLength="1595.33" font-size="524.934" lengthAdjust="spacingAndGlyphs"
text-anchor="middle" opacity="0">R102</text>
<path d="M60559 38178
L60428 37990
" />
<path d="M60334 38178
L60334 37784
L60484 37784
L60521 37803
L60540 37821
L60559 37859
L60559 37915
L60540 37953
L60521 37971
L60484 37990
L60334 37990
" />
<path d="M60934 38178
L60709 38178
" />
<path d="M60821 38178
L60821 37784
L60784 37840
L60746 37878
L60709 37896
" />
<path d="M61178 37784
L61215 37784
L61253 37803
L61271 37821
L61290 37859
L61309 37934
L61309 38028
L61290 38103
L61271 38140
L61253 38159
L61215 38178
L61178 38178
L61140 38159
L61121 38140
L61103 38103
L61084 38028
L61084 37934
L61103 37859
L61121 37821
L61140 37803
L61178 37784
" />
<path d="M61459 37821
L61478 37803
L61515 37784
L61609 37784
L61646 37803
L61665 37821
L61684 37859
L61684 37896
L61665 37953
L61440 38178
L61684 38178
" />
<text x="61000" y="39696.9"
textLength="1595.33" font-size="524.934" lengthAdjust="spacingAndGlyphs"
text-anchor="middle" opacity="0">R103</text>
<path d="M60559 39678
L60428 39490
" />
<path d="M60334 39678
L60334 39284
L60484 39284
L60521 39303
L60540 39321
L60559 39359
L60559 39415
L60540 39453
L60521 39471
L60484 39490
L60334 39490
" />
<path d="M60934 39678
L60709 39678
" />
<path d="M60821 39678
L60821 39284
L60784 39340
L60746 39378
L60709 39396
" />
<path d="M61178 39284
L61215 39284
L61253 39303
L61271 39321
L61290 39359
L61309 39434
L61309 39528
L61290 39603
L61271 39640
L61253 39659
L61215 39678
L61178 39678
L61140 39659
L61121 39640
L61103 39603
L61084 39528
L61084 39434
L61103 39359
L61121 39321
L61140 39303
L61178 39284
" />
<path d="M61440 39284
L61684 39284
L61553 39434
L61609 39434
L61646 39453
L61665 39471
L61684 39509
L61684 39603
L61665 39640
L61646 39659
L61609 39678
L61496 39678
L61459 39659
L61440 39640
" />
<text x="61000" y="42696.9"
textLength="1595.33" font-size="524.934" lengthAdjust="spacingAndGlyphs"
text-anchor="middle" opacity="0">R105</text>
<path d="M60559 42678
L60428 42490
" />
<path d="M60334 42678
L60334 42284
L60484 42284
L60521 42303
L60540 42321
L60559 42359
L60559 42415
L60540 42453
L60521 42471
L60484 42490
L60334 42490
" />
<path d="M60934 42678
L60709 42678
" />
<path d="M60821 42678
L60821 42284
L60784 42340
L60746 42378
L60709 42396
" />
<path d="M61178 42284
L61215 42284
L61253 42303
L61271 42321
L61290 42359
L61309 42434
L61309 42528
L61290 42603
L61271 42640
L61253 42659
L61215 42678
L61178 42678
L61140 42659
L61121 42640
L61103 42603
L61084 42528
L61084 42434
L61103 42359
L61121 42321
L61140 42303
L61178 42284
" />
<path d="M61665 42284
L61478 42284
L61459 42471
L61478 42453
L61515 42434
L61609 42434
L61646 42453
L61665 42471
L61684 42509
L61684 42603
L61665 42640
L61646 42659
L61609 42678
L61515 42678
L61478 42659
L61459 42640
" />
<text x="61000" y="41196.9"
textLength="1595.33" font-size="524.934" lengthAdjust="spacingAndGlyphs"
text-anchor="middle" opacity="0">R104</text>
<path d="M60559 41178
L60428 40990
" />
<path d="M60334 41178
L60334 40784
L60484 40784
L60521 40803
L60540 40821
L60559 40859
L60559 40915
L60540 40953
L60521 40971
L60484 40990
L60334 40990
" />
<path d="M60934 41178
L60709 41178
" />
<path d="M60821 41178
L60821 40784
L60784 40840
L60746 40878
L60709 40896
" />
<path d="M61178 40784
L61215 40784
L61253 40803
L61271 40821
L61290 40859
L61309 40934
L61309 41028
L61290 41103
L61271 41140
L61253 41159
L61215 41178
L61178 41178
L61140 41159
L61121 41140
L61103 41103
L61084 41028
L61084 40934
L61103 40859
L61121 40821
L61140 40803
L61178 40784
" />
<path d="M61646 40915
L61646 41178
" />
<path d="M61553 40765
L61459 41046
L61703 41046
" />
<text x="53000" y="49196.9"
textLength="1595.33" font-size="524.934" lengthAdjust="spacingAndGlyphs"
text-anchor="middle" opacity="0">R106</text>
<path d="M52559 49178
L52428 48990
" />
<path d="M52334 49178
L52334 48784
L52484 48784
L52521 48803
L52540 48821
L52559 48859
L52559 48915
L52540 48953
L52521 48971
L52484 48990
L52334 48990
" />
<path d="M52934 49178
L52709 49178
" />
<path d="M52821 49178
L52821 48784
L52784 48840
L52746 48878
L52709 48896
" />
<path d="M53178 48784
L53215 48784
L53253 48803
L53271 48821
L53290 48859
L53309 48934
L53309 49028
L53290 49103
L53271 49140
L53253 49159
L53215 49178
L53178 49178
L53140 49159
L53121 49140
L53103 49103
L53084 49028
L53084 48934
L53103 48859
L53121 48821
L53140 48803
L53178 48784
" />
<path d="M53646 48784
L53571 48784
L53534 48803
L53515 48821
L53478 48878
L53459 48953
L53459 49103
L53478 49140
L53496 49159
L53534 49178
L53609 49178
L53646 49159
L53665 49140
L53684 49103
L53684 49009
L53665 48971
L53646 48953
L53609 48934
L53534 48934
L53496 48953
L53478 48971
L53459 49009
" />
<text x="53500" y="39696.9"
textLength="1595.33" font-size="524.934" lengthAdjust="spacingAndGlyphs"
text-anchor="middle" opacity="0">R107</text>
<path d="M53059 39678
L52928 39490
" />
<path d="M52834 39678
L52834 39284
L52984 39284
L53021 39303
L53040 39321
L53059 39359
L53059 39415
L53040 39453
L53021 39471
L52984 39490
L52834 39490
" />
<path d="M53434 39678
L53209 39678
" />
<path d="M53321 39678
L53321 39284
L53284 39340
L53246 39378
L53209 39396
" />
<path d="M53678 39284
L53715 39284
L53753 39303
L53771 39321
L53790 39359
L53809 39434
L53809 39528
L53790 39603
L53771 39640
L53753 39659
L53715 39678
L53678 39678
L53640 39659
L53621 39640
L53603 39603
L53584 39528
L53584 39434
L53603 39359
L53621 39321
L53640 39303
L53678 39284
" />
<path d="M53940 39284
L54203 39284
L54034 39678
" />
<text x="53500" y="41196.9"
textLength="1595.33" font-size="524.934" lengthAdjust="spacingAndGlyphs"
text-anchor="middle" opacity="0">R108</text>
<path d="M53059 41178
L52928 40990
" />
<path d="M52834 41178
L52834 40784
L52984 40784
L53021 40803
L53040 40821
L53059 40859
L53059 40915
L53040 40953
L53021 40971
L52984 40990
L52834 40990
" />
<path d="M53434 41178
L53209 41178
" />
<path d="M53321 41178
L53321 40784
L53284 40840
L53246 40878
L53209 40896
" />
<path d="M53678 40784
L53715 40784
L53753 40803
L53771 40821
L53790 40859
L53809 40934
L53809 41028
L53790 41103
L53771 41140
L53753 41159
L53715 41178
L53678 41178
L53640 41159
L53621 41140
L53603 41103
L53584 41028
L53584 40934
L53603 40859
L53621 40821
L53640 40803
L53678 40784
" />
<path d="M54034 40953
L53996 40934
L53978 40915
L53959 40878
L53959 40859
L53978 40821
L53996 40803
L54034 40784
L54109 40784
L54146 40803
L54165 40821
L54184 40859
L54184 40878
L54165 40915
L54146 40934
L54109 40953
L54034 40953
L53996 40971
L53978 40990
L53959 41028
L53959 41103
L53978 41140
L53996 41159
L54034 41178
L54109 41178
L54146 41159
L54165 41140
L54184 41103
L54184 41028
L54165 40990
L54146 40971
L54109 40953
" />
<text x="65000" y="49196.9"
textLength="1595.33" font-size="524.934" lengthAdjust="spacingAndGlyphs"
text-anchor="middle" opacity="0">R101</text>
<path d="M64559 49178
L64428 48990
" />
<path d="M64334 49178
L64334 48784
L64484 48784
L64521 48803
L64540 48821
L64559 48859
L64559 48915
L64540 48953
L64521 48971
L64484 48990
L64334 48990
" />
<path d="M64934 49178
L64709 49178
" />
<path d="M64821 49178
L64821 48784
L64784 48840
L64746 48878
L64709 48896
" />
<path d="M65178 48784
L65215 48784
L65253 48803
L65271 48821
L65290 48859
L65309 48934
L65309 49028
L65290 49103
L65271 49140
L65253 49159
L65215 49178
L65178 49178
L65140 49159
L65121 49140
L65103 49103
L65084 49028
L65084 48934
L65103 48859
L65121 48821
L65140 48803
L65178 48784
" />
<path d="M65684 49178
L65459 49178
" />
<path d="M65571 49178
L65571 48784
L65534 48840
L65496 48878
L65459 48896
" />
<g transform="rotate(-90 67501 44500)">
<text x="67501" y="44696.9"
textLength="1595.33" font-size="524.934" lengthAdjust="spacingAndGlyphs"
text-anchor="middle" opacity="0">D101</text>
</g>
<path d="M67679 45165
L67285 45165
L67285 45071
L67304 45015
L67341 44978
L67379 44959
L67454 44940
L67510 44940
L67585 44959
L67622 44978
L67660 45015
L67679 45071
L67679 45165
" />
<path d="M67679 44565
L67679 44790
" />
<path d="M67679 44678
L67285 44678
L67341 44715
L67379 44753
L67397 44790
" />
<path d="M67285 44321
L67285 44284
L67304 44246
L67322 44228
L67360 44209
L67435 44190
L67529 44190
L67604 44209
L67641 44228
L67660 44246
L67679 44284
L67679 44321
L67660 44359
L67641 44378
L67604 44396
L67529 44415
L67435 44415
L67360 44396
L67322 44378
L67304 44359
L67285 44321
" />
<path d="M67679 43815
L67679 44040
" />
<path d="M67679 43928
L67285 43928
L67341 43965
L67379 44003
L67397 44040
" />
<g transform="rotate(-90 63750 47500)">
<text x="63750" y="47696.9"
textLength="1595.33" font-size="524.934" lengthAdjust="spacingAndGlyphs"
text-anchor="middle" opacity="0">C101</text>
</g>
<path d="M63890 47940
L63909 47959
L63928 48015
L63928 48053
L63909 48109
L63871 48146
L63834 48165
L63759 48184
L63703 48184
L63628 48165
L63590 48146
L63553 48109
L63534 48053
L63534 48015
L63553 47959
L63571 47940
" />
<path d="M63928 47565
L63928 47790
" />
<path d="M63928 47678
L63534 47678
L63590 47715
L63628 47753
L63646 47790
" />
<path d="M63534 47321
L63534 47284
L63553 47246
L63571 47228
L63609 47209
L63684 47190
L63778 47190
L63853 47209
L63890 47228
L63909 47246
L63928 47284
L63928 47321
L63909 47359
L63890 47378
L63853 47396
L63778 47415
L63684 47415
L63609 47396
L63571 47378
L63553 47359
L63534 47321
" />
<path d="M63928 46815
L63928 47040
" />
<path d="M63928 46928
L63534 46928
L63590 46965
L63628 47003
L63646 47040
" />
<text x="65984.3" y="36318.9"
textLength="1595.33" font-size="524.934" lengthAdjust="spacingAndGlyphs"
text-anchor="middle" opacity="0">C102</text>
<path d="M65543 36262
L65524 36281
L65468 36300
L65431 36300
L65374 36281
L65337 36243
L65318 36206
L65299 36131
L65299 36075
L65318 36000
L65337 35962
L65374 35925
L65431 35906
L65468 35906
L65524 35925
L65543 35943
" />
<path d="M65918 36300
L65693 36300
" />
<path d="M65806 36300
L65806 35906
L65768 35962
L65731 36000
L65693 36018
" />
<path d="M66162 35906
L66199 35906
L66237 35925
L66256 35943
L66274 35981
L66293 36056
L66293 36150
L66274 36225
L66256 36262
L66237 36281
L66199 36300
L66162 36300
L66124 36281
L66106 36262
L66087 36225
L66068 36150
L66068 36056
L66087 35981
L66106 35943
L66124 35925
L66162 35906
" />
<path d="M66443 35943
L66462 35925
L66499 35906
L66593 35906
L66631 35925
L66649 35943
L66668 35981
L66668 36018
L66649 36075
L66424 36300
L66668 36300
" />
<text x="62500" y="45696.9"
textLength="1595.33" font-size="524.934" lengthAdjust="spacingAndGlyphs"
text-anchor="middle" opacity="0">D102</text>
<path d="M61834 45678
L61834 45284
L61928 45284
L61984 45303
L62021 45340
L62040 45378
L62059 45453
L62059 45509
L62040 45584
L62021 45621
L61984 45659
L61928 45678
L61834 45678
" />
<path d="M62434 45678
L62209 45678
" />
<path d="M62321 45678
L62321 45284
L62284 45340
L62246 45378
L62209 45396
" />
<path d="M62678 45284
L62715 45284
L62753 45303
L62771 45321
L62790 45359
L62809 45434
L62809 45528
L62790 45603
L62771 45640
L62753 45659
L62715 45678
L62678 45678
L62640 45659
L62621 45640
L62603 45603
L62584 45528
L62584 45434
L62603 45359
L62621 45321
L62640 45303
L62678 45284
" />
<path d="M62959 45321
L62978 45303
L63015 45284
L63109 45284
L63146 45303
L63165 45321
L63184 45359
L63184 45396
L63165 45453
L62940 45678
L63184 45678
" />
<text x="60500" y="45696.9"
textLength="1595.33" font-size="524.934" lengthAdjust="spacingAndGlyphs"
text-anchor="middle" opacity="0">D103</text>
<path d="M59834 45678
L59834 45284
L59928 45284
L59984 45303
L60021 45340
L60040 45378
L60059 45453
L60059 45509
L60040 45584
L60021 45621
L59984 45659
L59928 45678
L59834 45678
" />
<path d="M60434 45678
L60209 45678
" />
<path d="M60321 45678
L60321 45284
L60284 45340
L60246 45378
L60209 45396
" />
<path d="M60678 45284
L60715 45284
L60753 45303
L60771 45321
L60790 45359
L60809 45434
L60809 45528
L60790 45603
L60771 45640
L60753 45659
L60715 45678
L60678 45678
L60640 45659
L60621 45640
L60603 45603
L60584 45528
L60584 45434
L60603 45359
L60621 45321
L60640 45303
L60678 45284
" />
<path d="M60940 45284
L61184 45284
L61053 45434
L61109 45434
L61146 45453
L61165 45471
L61184 45509
L61184 45603
L61165 45640
L61146 45659
L61109 45678
L60996 45678
L60959 45659
L60940 45640
" />
<text x="58500" y="45696.9"
textLength="1595.33" font-size="524.934" lengthAdjust="spacingAndGlyphs"
text-anchor="middle" opacity="0">D104</text>
<path d="M57834 45678
L57834 45284
L57928 45284
L57984 45303
L58021 45340
L58040 45378
L58059 45453
L58059 45509
L58040 45584
L58021 45621
L57984 45659
L57928 45678
L57834 45678
" />
<path d="M58434 45678
L58209 45678
" />
<path d="M58321 45678
L58321 45284
L58284 45340
L58246 45378
L58209 45396
" />
<path d="M58678 45284
L58715 45284
L58753 45303
L58771 45321
L58790 45359
L58809 45434
L58809 45528
L58790 45603
L58771 45640
L58753 45659
L58715 45678
L58678 45678
L58640 45659
L58621 45640
L58603 45603
L58584 45528
L58584 45434
L58603 45359
L58621 45321
L58640 45303
L58678 45284
" />
<path d="M59146 45415
L59146 45678
" />
<path d="M59053 45265
L58959 45546
L59203 45546
" />
<text x="56500" y="45696.9"
textLength="1595.33" font-size="524.934" lengthAdjust="spacingAndGlyphs"
text-anchor="middle" opacity="0">D105</text>
<path d="M55834 45678
L55834 45284
L55928 45284
L55984 45303
L56021 45340
L56040 45378
L56059 45453
L56059 45509
L56040 45584
L56021 45621
L55984 45659
L55928 45678
L55834 45678
" />
<path d="M56434 45678
L56209 45678
" />
<path d="M56321 45678
L56321 45284
L56284 45340
L56246 45378
L56209 45396
" />
<path d="M56678 45284
L56715 45284
L56753 45303
L56771 45321
L56790 45359
L56809 45434
L56809 45528
L56790 45603
L56771 45640
L56753 45659
L56715 45678
L56678 45678
L56640 45659
L56621 45640
L56603 45603
L56584 45528
L56584 45434
L56603 45359
L56621 45321
L56640 45303
L56678 45284
" />
<path d="M57165 45284
L56978 45284
L56959 45471
L56978 45453
L57015 45434
L57109 45434
L57146 45453
L57165 45471
L57184 45509
L57184 45603
L57165 45640
L57146 45659
L57109 45678
L57015 45678
L56978 45659
L56959 45640
" />
<text x="54500" y="45696.9"
textLength="1595.33" font-size="524.934" lengthAdjust="spacingAndGlyphs"
text-anchor="middle" opacity="0">D106</text>
<path d="M53834 45678
L53834 45284
L53928 45284
L53984 45303
L54021 45340
L54040 45378
L54059 45453
L54059 45509
L54040 45584
L54021 45621
L53984 45659
L53928 45678
L53834 45678
" />
<path d="M54434 45678
L54209 45678
" />
<path d="M54321 45678
L54321 45284
L54284 45340
L54246 45378
L54209 45396
" />
<path d="M54678 45284
L54715 45284
L54753 45303
L54771 45321
L54790 45359
L54809 45434
L54809 45528
L54790 45603
L54771 45640
L54753 45659
L54715 45678
L54678 45678
L54640 45659
L54621 45640
L54603 45603
L54584 45528
L54584 45434
L54603 45359
L54621 45321
L54640 45303
L54678 45284
" />
<path d="M55146 45284
L55071 45284
L55034 45303
L55015 45321
L54978 45378
L54959 45453
L54959 45603
L54978 45640
L54996 45659
L55034 45678
L55109 45678
L55146 45659
L55165 45640
L55184 45603
L55184 45509
L55165 45471
L55146 45453
L55109 45434
L55034 45434
L54996 45453
L54978 45471
L54959 45509
" />
<text x="65500" y="42696.9"
textLength="1595.33" font-size="524.934" lengthAdjust="spacingAndGlyphs"
text-anchor="middle" opacity="0">P101</text>
<path d="M64834 42678
L64834 42284
L64984 42284
L65021 42303
L65040 42321
L65059 42359
L65059 42415
L65040 42453
L65021 42471
L64984 42490
L64834 42490
" />
<path d="M65434 42678
L65209 42678
" />
<path d="M65321 42678
L65321 42284
L65284 42340
L65246 42378
L65209 42396
" />
<path d="M65678 42284
L65715 42284
L65753 42303
L65771 42321
L65790 42359
L65809 42434
L65809 42528
L65790 42603
L65771 42640
L65753 42659
L65715 42678
L65678 42678
L65640 42659
L65621 42640
L65603 42603
L65584 42528
L65584 42434
L65603 42359
L65621 42321
L65640 42303
L65678 42284
" />
<path d="M66184 42678
L65959 42678
" />
<path d="M66071 42678
L66071 42284
L66034 42340
L65996 42378
L65959 42396
" />
<g transform="rotate(-90 68500 39750)">
<text x="68500" y="39946.9"
textLength="1595.33" font-size="524.934" lengthAdjust="spacingAndGlyphs"
text-anchor="middle" opacity="0">P102</text>
</g>
<path d="M68678 40415
L68284 40415
L68284 40265
L68303 40228
L68321 40209
L68359 40190
L68415 40190
L68453 40209
L68471 40228
L68490 40265
L68490 40415
" />
<path d="M68678 39815
L68678 40040
" />
<path d="M68678 39928
L68284 39928
L68340 39965
L68378 40003
L68396 40040
" />
<path d="M68284 39571
L68284 39534
L68303 39496
L68321 39478
L68359 39459
L68434 39440
L68528 39440
L68603 39459
L68640 39478
L68659 39496
L68678 39534
L68678 39571
L68659 39609
L68640 39628
L68603 39646
L68528 39665
L68434 39665
L68359 39646
L68321 39628
L68303 39609
L68284 39571
" />
<path d="M68321 39290
L68303 39271
L68284 39234
L68284 39140
L68303 39103
L68321 39084
L68359 39065
L68396 39065
L68453 39084
L68678 39309
L68678 39065
" />
<g transform="rotate(-90 56000 50000)">
<text x="56000" y="50196.9"
textLength="1614.08" font-size="524.934" lengthAdjust="spacingAndGlyphs"
text-anchor="middle" opacity="0">U102</text>
</g>
<path d="M55784 50674
L56103 50674
L56140 50656
L56159 50637
L56178 50599
L56178 50524
L56159 50487
L56140 50468
L56103 50449
L55784 50449
" />
<path d="M56178 50056
L56178 50281
" />
<path d="M56178 50168
L55784 50168
L55840 50206
L55878 50243
L55896 50281
" />
<path d="M55784 49812
L55784 49775
L55803 49737
L55821 49718
L55859 49700
L55934 49681
L56028 49681
L56103 49700
L56140 49718
L56159 49737
L56178 49775
L56178 49812
L56159 49850
L56140 49868
L56103 49887
L56028 49906
L55934 49906
L55859 49887
L55821 49868
L55803 49850
L55784 49812
" />
<path d="M55821 49531
L55803 49512
L55784 49475
L55784 49381
L55803 49343
L55821 49325
L55859 49306
L55896 49306
L55953 49325
L56178 49550
L56178 49306
" />
<g >
</g>
</g> 
</svg>
