<?xml version="1.0" standalone="no"?>
 <!DOCTYPE svg PUBLIC "-//W3C//DTD SVG 1.1//EN" 
 "http://www.w3.org/Graphics/SVG/1.1/DTD/svg11.dtd"> 
<svg
  xmlns:svg="http://www.w3.org/2000/svg"
  xmlns="http://www.w3.org/2000/svg"
  xmlns:xlink="http://www.w3.org/1999/xlink"
  version="1.1"
  width="29.700220cm" height="21.000720cm" viewBox="0 0 116930 82680">
<title>SVG Picture created as wiring.svg date 2023/10/13 11:12:20 </title>
  <desc>Picture generated by Eeschema-SVG </desc>
<g style="fill:#000000; fill-opacity:1;stroke:#000000; stroke-opacity:1;
stroke-linecap:round; stroke-linejoin:round;"
 transform="translate(0 0) scale(1 1)">
</g>
<g style="fill:#000000; fill-opacity:0.0; 
stroke:#000000; stroke-width:-10; stroke-opacity:1; 
stroke-linecap:round; stroke-linejoin:round;">
</g>
<g style="fill:#000000; fill-opacity:0.0; 
stroke:#000000; stroke-width:100; stroke-opacity:1; 
stroke-linecap:round; stroke-linejoin:round;">
</g>
<g style="fill:#000000; fill-opacity:0.0; 
stroke:#000000; stroke-width:60; stroke-opacity:1; 
stroke-linecap:round; stroke-linejoin:round;">
<rect x="69690" y="65360" width="42520" height="12600" rx="0" />
</g>
<g style="fill:#000000; fill-opacity:0.0; 
stroke:#000000; stroke-width:100; stroke-opacity:1; 
stroke-linecap:round; stroke-linejoin:round;">
</g>
<g style="fill:#000000; fill-opacity:0.0; 
stroke:#000000; stroke-width:60; stroke-opacity:1; 
stroke-linecap:round; stroke-linejoin:round;">
<rect x="3940" y="3940" width="109050" height="74800" rx="0" />
</g>
<g style="fill:#000000; fill-opacity:0.0; 
stroke:#000000; stroke-width:100; stroke-opacity:1; 
stroke-linecap:round; stroke-linejoin:round;">
</g>
<g style="fill:#000000; fill-opacity:0.0; 
stroke:#000000; stroke-width:60; stroke-opacity:1; 
stroke-linecap:round; stroke-linejoin:round;">
<rect x="4720" y="4720" width="107490" height="73240" rx="0" />
</g>
<g style="fill:#000000; fill-opacity:0.0; 
stroke:#000000; stroke-width:100; stroke-opacity:1; 
stroke-linecap:round; stroke-linejoin:round;">
</g>
<g style="fill:#000000; fill-opacity:0.0; 
stroke:#000000; stroke-width:60; stroke-opacity:1; 
stroke-linecap:round; stroke-linejoin:round;">
<path d="M23620 4720
L23620 3940
" />
</g>
<g style="fill:#000000; fill-opacity:0.0; 
stroke:#000000; stroke-width:100; stroke-opacity:1; 
stroke-linecap:round; stroke-linejoin:round;">
</g>
<g style="fill:#000000; fill-opacity:0.0; 
stroke:#000000; stroke-width:60; stroke-opacity:1; 
stroke-linecap:round; stroke-linejoin:round;">
<path d="M43310 4720
L43310 3940
" />
</g>
<g style="fill:#000000; fill-opacity:0.0; 
stroke:#000000; stroke-width:100; stroke-opacity:1; 
stroke-linecap:round; stroke-linejoin:round;">
</g>
<g style="fill:#000000; fill-opacity:0.0; 
stroke:#000000; stroke-width:60; stroke-opacity:1; 
stroke-linecap:round; stroke-linejoin:round;">
<path d="M62990 4720
L62990 3940
" />
</g>
<g style="fill:#000000; fill-opacity:0.0; 
stroke:#000000; stroke-width:100; stroke-opacity:1; 
stroke-linecap:round; stroke-linejoin:round;">
</g>
<g style="fill:#000000; fill-opacity:0.0; 
stroke:#000000; stroke-width:60; stroke-opacity:1; 
stroke-linecap:round; stroke-linejoin:round;">
<path d="M82680 4720
L82680 3940
" />
</g>
<g style="fill:#000000; fill-opacity:0.0; 
stroke:#000000; stroke-width:100; stroke-opacity:1; 
stroke-linecap:round; stroke-linejoin:round;">
</g>
<g style="fill:#000000; fill-opacity:0.0; 
stroke:#000000; stroke-width:60; stroke-opacity:1; 
stroke-linecap:round; stroke-linejoin:round;">
<path d="M102360 4720
L102360 3940
" />
</g>
<g style="fill:#000000; fill-opacity:0.0; 
stroke:#000000; stroke-width:100; stroke-opacity:1; 
stroke-linecap:round; stroke-linejoin:round;">
</g>
<g style="fill:#000000; fill-opacity:0.0; 
stroke:#000000; stroke-width:60; stroke-opacity:1; 
stroke-linecap:round; stroke-linejoin:round;">
<text x="13780" y="4580"
textLength="550" font-size="680" lengthAdjust="spacingAndGlyphs"
text-anchor="start" opacity="0">1</text>
<path d="M14190 4560
L13900 4560
" />
<path d="M14050 4560
L14050 4050
L14000 4120
L13950 4170
L13900 4190
" />
</g>
<g style="fill:#000000; fill-opacity:0.0; 
stroke:#000000; stroke-width:100; stroke-opacity:1; 
stroke-linecap:round; stroke-linejoin:round;">
</g>
<g style="fill:#000000; fill-opacity:0.0; 
stroke:#000000; stroke-width:60; stroke-opacity:1; 
stroke-linecap:round; stroke-linejoin:round;">
<text x="33460" y="4580"
textLength="550" font-size="680" lengthAdjust="spacingAndGlyphs"
text-anchor="start" opacity="0">2</text>
<path d="M33580 4090
L33610 4070
L33660 4050
L33780 4050
L33830 4070
L33850 4090
L33870 4140
L33870 4190
L33850 4260
L33560 4560
L33870 4560
" />
</g>
<g style="fill:#000000; fill-opacity:0.0; 
stroke:#000000; stroke-width:100; stroke-opacity:1; 
stroke-linecap:round; stroke-linejoin:round;">
</g>
<g style="fill:#000000; fill-opacity:0.0; 
stroke:#000000; stroke-width:60; stroke-opacity:1; 
stroke-linecap:round; stroke-linejoin:round;">
<text x="53150" y="4580"
textLength="550" font-size="680" lengthAdjust="spacingAndGlyphs"
text-anchor="start" opacity="0">3</text>
<path d="M53250 4050
L53560 4050
L53390 4240
L53470 4240
L53520 4260
L53540 4290
L53560 4340
L53560 4460
L53540 4510
L53520 4530
L53470 4560
L53320 4560
L53270 4530
L53250 4510
" />
</g>
<g style="fill:#000000; fill-opacity:0.0; 
stroke:#000000; stroke-width:100; stroke-opacity:1; 
stroke-linecap:round; stroke-linejoin:round;">
</g>
<g style="fill:#000000; fill-opacity:0.0; 
stroke:#000000; stroke-width:60; stroke-opacity:1; 
stroke-linecap:round; stroke-linejoin:round;">
<text x="72830" y="4580"
textLength="550" font-size="680" lengthAdjust="spacingAndGlyphs"
text-anchor="start" opacity="0">4</text>
<path d="M73200 4220
L73200 4560
" />
<path d="M73070 4020
L72950 4390
L73270 4390
" />
</g>
<g style="fill:#000000; fill-opacity:0.0; 
stroke:#000000; stroke-width:100; stroke-opacity:1; 
stroke-linecap:round; stroke-linejoin:round;">
</g>
<g style="fill:#000000; fill-opacity:0.0; 
stroke:#000000; stroke-width:60; stroke-opacity:1; 
stroke-linecap:round; stroke-linejoin:round;">
<text x="92520" y="4580"
textLength="550" font-size="680" lengthAdjust="spacingAndGlyphs"
text-anchor="start" opacity="0">5</text>
<path d="M92910 4050
L92670 4050
L92640 4290
L92670 4260
L92720 4240
L92840 4240
L92890 4260
L92910 4290
L92930 4340
L92930 4460
L92910 4510
L92890 4530
L92840 4560
L92720 4560
L92670 4530
L92640 4510
" />
</g>
<g style="fill:#000000; fill-opacity:0.0; 
stroke:#000000; stroke-width:100; stroke-opacity:1; 
stroke-linecap:round; stroke-linejoin:round;">
</g>
<g style="fill:#000000; fill-opacity:0.0; 
stroke:#000000; stroke-width:60; stroke-opacity:1; 
stroke-linecap:round; stroke-linejoin:round;">
<text x="112200" y="4580"
textLength="550" font-size="680" lengthAdjust="spacingAndGlyphs"
text-anchor="start" opacity="0">6</text>
<path d="M112570 4050
L112470 4050
L112420 4070
L112400 4090
L112350 4170
L112320 4260
L112320 4460
L112350 4510
L112370 4530
L112420 4560
L112520 4560
L112570 4530
L112590 4510
L112610 4460
L112610 4340
L112590 4290
L112570 4260
L112520 4240
L112420 4240
L112370 4260
L112350 4290
L112320 4340
" />
</g>
<g style="fill:#000000; fill-opacity:0.0; 
stroke:#000000; stroke-width:100; stroke-opacity:1; 
stroke-linecap:round; stroke-linejoin:round;">
</g>
<g style="fill:#000000; fill-opacity:0.0; 
stroke:#000000; stroke-width:60; stroke-opacity:1; 
stroke-linecap:round; stroke-linejoin:round;">
<path d="M23620 77960
L23620 78740
" />
</g>
<g style="fill:#000000; fill-opacity:0.0; 
stroke:#000000; stroke-width:100; stroke-opacity:1; 
stroke-linecap:round; stroke-linejoin:round;">
</g>
<g style="fill:#000000; fill-opacity:0.0; 
stroke:#000000; stroke-width:60; stroke-opacity:1; 
stroke-linecap:round; stroke-linejoin:round;">
<path d="M43310 77960
L43310 78740
" />
</g>
<g style="fill:#000000; fill-opacity:0.0; 
stroke:#000000; stroke-width:100; stroke-opacity:1; 
stroke-linecap:round; stroke-linejoin:round;">
</g>
<g style="fill:#000000; fill-opacity:0.0; 
stroke:#000000; stroke-width:60; stroke-opacity:1; 
stroke-linecap:round; stroke-linejoin:round;">
<path d="M62990 77960
L62990 78740
" />
</g>
<g style="fill:#000000; fill-opacity:0.0; 
stroke:#000000; stroke-width:100; stroke-opacity:1; 
stroke-linecap:round; stroke-linejoin:round;">
</g>
<g style="fill:#000000; fill-opacity:0.0; 
stroke:#000000; stroke-width:60; stroke-opacity:1; 
stroke-linecap:round; stroke-linejoin:round;">
<path d="M82680 77960
L82680 78740
" />
</g>
<g style="fill:#000000; fill-opacity:0.0; 
stroke:#000000; stroke-width:100; stroke-opacity:1; 
stroke-linecap:round; stroke-linejoin:round;">
</g>
<g style="fill:#000000; fill-opacity:0.0; 
stroke:#000000; stroke-width:60; stroke-opacity:1; 
stroke-linecap:round; stroke-linejoin:round;">
<path d="M102360 77960
L102360 78740
" />
</g>
<g style="fill:#000000; fill-opacity:0.0; 
stroke:#000000; stroke-width:100; stroke-opacity:1; 
stroke-linecap:round; stroke-linejoin:round;">
</g>
<g style="fill:#000000; fill-opacity:0.0; 
stroke:#000000; stroke-width:60; stroke-opacity:1; 
stroke-linecap:round; stroke-linejoin:round;">
<text x="13780" y="78600"
textLength="550" font-size="680" lengthAdjust="spacingAndGlyphs"
text-anchor="start" opacity="0">1</text>
<path d="M14190 78580
L13900 78580
" />
<path d="M14050 78580
L14050 78070
L14000 78140
L13950 78190
L13900 78210
" />
</g>
<g style="fill:#000000; fill-opacity:0.0; 
stroke:#000000; stroke-width:100; stroke-opacity:1; 
stroke-linecap:round; stroke-linejoin:round;">
</g>
<g style="fill:#000000; fill-opacity:0.0; 
stroke:#000000; stroke-width:60; stroke-opacity:1; 
stroke-linecap:round; stroke-linejoin:round;">
<text x="33460" y="78600"
textLength="550" font-size="680" lengthAdjust="spacingAndGlyphs"
text-anchor="start" opacity="0">2</text>
<path d="M33580 78110
L33610 78090
L33660 78070
L33780 78070
L33830 78090
L33850 78110
L33870 78160
L33870 78210
L33850 78280
L33560 78580
L33870 78580
" />
</g>
<g style="fill:#000000; fill-opacity:0.0; 
stroke:#000000; stroke-width:100; stroke-opacity:1; 
stroke-linecap:round; stroke-linejoin:round;">
</g>
<g style="fill:#000000; fill-opacity:0.0; 
stroke:#000000; stroke-width:60; stroke-opacity:1; 
stroke-linecap:round; stroke-linejoin:round;">
<text x="53150" y="78600"
textLength="550" font-size="680" lengthAdjust="spacingAndGlyphs"
text-anchor="start" opacity="0">3</text>
<path d="M53250 78070
L53560 78070
L53390 78260
L53470 78260
L53520 78280
L53540 78310
L53560 78360
L53560 78480
L53540 78530
L53520 78550
L53470 78580
L53320 78580
L53270 78550
L53250 78530
" />
</g>
<g style="fill:#000000; fill-opacity:0.0; 
stroke:#000000; stroke-width:100; stroke-opacity:1; 
stroke-linecap:round; stroke-linejoin:round;">
</g>
<g style="fill:#000000; fill-opacity:0.0; 
stroke:#000000; stroke-width:60; stroke-opacity:1; 
stroke-linecap:round; stroke-linejoin:round;">
<text x="72830" y="78600"
textLength="550" font-size="680" lengthAdjust="spacingAndGlyphs"
text-anchor="start" opacity="0">4</text>
<path d="M73200 78240
L73200 78580
" />
<path d="M73070 78040
L72950 78410
L73270 78410
" />
</g>
<g style="fill:#000000; fill-opacity:0.0; 
stroke:#000000; stroke-width:100; stroke-opacity:1; 
stroke-linecap:round; stroke-linejoin:round;">
</g>
<g style="fill:#000000; fill-opacity:0.0; 
stroke:#000000; stroke-width:60; stroke-opacity:1; 
stroke-linecap:round; stroke-linejoin:round;">
<text x="92520" y="78600"
textLength="550" font-size="680" lengthAdjust="spacingAndGlyphs"
text-anchor="start" opacity="0">5</text>
<path d="M92910 78070
L92670 78070
L92640 78310
L92670 78280
L92720 78260
L92840 78260
L92890 78280
L92910 78310
L92930 78360
L92930 78480
L92910 78530
L92890 78550
L92840 78580
L92720 78580
L92670 78550
L92640 78530
" />
</g>
<g style="fill:#000000; fill-opacity:0.0; 
stroke:#000000; stroke-width:100; stroke-opacity:1; 
stroke-linecap:round; stroke-linejoin:round;">
</g>
<g style="fill:#000000; fill-opacity:0.0; 
stroke:#000000; stroke-width:60; stroke-opacity:1; 
stroke-linecap:round; stroke-linejoin:round;">
<text x="112200" y="78600"
textLength="550" font-size="680" lengthAdjust="spacingAndGlyphs"
text-anchor="start" opacity="0">6</text>
<path d="M112570 78070
L112470 78070
L112420 78090
L112400 78110
L112350 78190
L112320 78280
L112320 78480
L112350 78530
L112370 78550
L112420 78580
L112520 78580
L112570 78550
L112590 78530
L112610 78480
L112610 78360
L112590 78310
L112570 78280
L112520 78260
L112420 78260
L112370 78280
L112350 78310
L112320 78360
" />
</g>
<g style="fill:#000000; fill-opacity:0.0; 
stroke:#000000; stroke-width:100; stroke-opacity:1; 
stroke-linecap:round; stroke-linejoin:round;">
</g>
<g style="fill:#000000; fill-opacity:0.0; 
stroke:#000000; stroke-width:60; stroke-opacity:1; 
stroke-linecap:round; stroke-linejoin:round;">
<path d="M3940 23620
L4720 23620
" />
</g>
<g style="fill:#000000; fill-opacity:0.0; 
stroke:#000000; stroke-width:100; stroke-opacity:1; 
stroke-linecap:round; stroke-linejoin:round;">
</g>
<g style="fill:#000000; fill-opacity:0.0; 
stroke:#000000; stroke-width:60; stroke-opacity:1; 
stroke-linecap:round; stroke-linejoin:round;">
<path d="M3940 43310
L4720 43310
" />
</g>
<g style="fill:#000000; fill-opacity:0.0; 
stroke:#000000; stroke-width:100; stroke-opacity:1; 
stroke-linecap:round; stroke-linejoin:round;">
</g>
<g style="fill:#000000; fill-opacity:0.0; 
stroke:#000000; stroke-width:60; stroke-opacity:1; 
stroke-linecap:round; stroke-linejoin:round;">
<path d="M3940 62990
L4720 62990
" />
</g>
<g style="fill:#000000; fill-opacity:0.0; 
stroke:#000000; stroke-width:100; stroke-opacity:1; 
stroke-linecap:round; stroke-linejoin:round;">
</g>
<g style="fill:#000000; fill-opacity:0.0; 
stroke:#000000; stroke-width:60; stroke-opacity:1; 
stroke-linecap:round; stroke-linejoin:round;">
<text x="4330" y="14030"
textLength="500" font-size="680" lengthAdjust="spacingAndGlyphs"
text-anchor="middle" opacity="0">A</text>
<path d="M4200 13860
L4450 13860
" />
<path d="M4160 14010
L4330 13500
L4500 14010
" />
</g>
<g style="fill:#000000; fill-opacity:0.0; 
stroke:#000000; stroke-width:100; stroke-opacity:1; 
stroke-linecap:round; stroke-linejoin:round;">
</g>
<g style="fill:#000000; fill-opacity:0.0; 
stroke:#000000; stroke-width:60; stroke-opacity:1; 
stroke-linecap:round; stroke-linejoin:round;">
<text x="4330" y="33710"
textLength="570" font-size="680" lengthAdjust="spacingAndGlyphs"
text-anchor="middle" opacity="0">B</text>
<path d="M4360 33420
L4430 33440
L4460 33470
L4480 33520
L4480 33590
L4460 33640
L4430 33660
L4390 33690
L4190 33690
L4190 33180
L4360 33180
L4410 33200
L4430 33220
L4460 33270
L4460 33320
L4430 33370
L4410 33390
L4360 33420
L4190 33420
" />
</g>
<g style="fill:#000000; fill-opacity:0.0; 
stroke:#000000; stroke-width:100; stroke-opacity:1; 
stroke-linecap:round; stroke-linejoin:round;">
</g>
<g style="fill:#000000; fill-opacity:0.0; 
stroke:#000000; stroke-width:60; stroke-opacity:1; 
stroke-linecap:round; stroke-linejoin:round;">
<text x="4330" y="53400"
textLength="570" font-size="680" lengthAdjust="spacingAndGlyphs"
text-anchor="middle" opacity="0">C</text>
<path d="M4480 53330
L4460 53350
L4390 53380
L4340 53380
L4260 53350
L4220 53300
L4190 53250
L4170 53160
L4170 53080
L4190 52990
L4220 52940
L4260 52890
L4340 52870
L4390 52870
L4460 52890
L4480 52910
" />
</g>
<g style="fill:#000000; fill-opacity:0.0; 
stroke:#000000; stroke-width:100; stroke-opacity:1; 
stroke-linecap:round; stroke-linejoin:round;">
</g>
<g style="fill:#000000; fill-opacity:0.0; 
stroke:#000000; stroke-width:60; stroke-opacity:1; 
stroke-linecap:round; stroke-linejoin:round;">
<text x="4330" y="73080"
textLength="570" font-size="680" lengthAdjust="spacingAndGlyphs"
text-anchor="middle" opacity="0">D</text>
<path d="M4190 73060
L4190 72550
L4310 72550
L4390 72570
L4430 72620
L4460 72670
L4480 72760
L4480 72840
L4460 72930
L4430 72980
L4390 73030
L4310 73060
L4190 73060
" />
</g>
<g style="fill:#000000; fill-opacity:0.0; 
stroke:#000000; stroke-width:100; stroke-opacity:1; 
stroke-linecap:round; stroke-linejoin:round;">
</g>
<g style="fill:#000000; fill-opacity:0.0; 
stroke:#000000; stroke-width:60; stroke-opacity:1; 
stroke-linecap:round; stroke-linejoin:round;">
<path d="M112990 23620
L112210 23620
" />
</g>
<g style="fill:#000000; fill-opacity:0.0; 
stroke:#000000; stroke-width:100; stroke-opacity:1; 
stroke-linecap:round; stroke-linejoin:round;">
</g>
<g style="fill:#000000; fill-opacity:0.0; 
stroke:#000000; stroke-width:60; stroke-opacity:1; 
stroke-linecap:round; stroke-linejoin:round;">
<path d="M112990 43310
L112210 43310
" />
</g>
<g style="fill:#000000; fill-opacity:0.0; 
stroke:#000000; stroke-width:100; stroke-opacity:1; 
stroke-linecap:round; stroke-linejoin:round;">
</g>
<g style="fill:#000000; fill-opacity:0.0; 
stroke:#000000; stroke-width:60; stroke-opacity:1; 
stroke-linecap:round; stroke-linejoin:round;">
<path d="M112990 62990
L112210 62990
" />
</g>
<g style="fill:#000000; fill-opacity:0.0; 
stroke:#000000; stroke-width:100; stroke-opacity:1; 
stroke-linecap:round; stroke-linejoin:round;">
</g>
<g style="fill:#000000; fill-opacity:0.0; 
stroke:#000000; stroke-width:60; stroke-opacity:1; 
stroke-linecap:round; stroke-linejoin:round;">
<text x="112600" y="14030"
textLength="500" font-size="680" lengthAdjust="spacingAndGlyphs"
text-anchor="middle" opacity="0">A</text>
<path d="M112470 13860
L112720 13860
" />
<path d="M112430 14010
L112600 13500
L112770 14010
" />
</g>
<g style="fill:#000000; fill-opacity:0.0; 
stroke:#000000; stroke-width:100; stroke-opacity:1; 
stroke-linecap:round; stroke-linejoin:round;">
</g>
<g style="fill:#000000; fill-opacity:0.0; 
stroke:#000000; stroke-width:60; stroke-opacity:1; 
stroke-linecap:round; stroke-linejoin:round;">
<text x="112600" y="33710"
textLength="570" font-size="680" lengthAdjust="spacingAndGlyphs"
text-anchor="middle" opacity="0">B</text>
<path d="M112630 33420
L112700 33440
L112730 33470
L112750 33520
L112750 33590
L112730 33640
L112700 33660
L112660 33690
L112460 33690
L112460 33180
L112630 33180
L112680 33200
L112700 33220
L112730 33270
L112730 33320
L112700 33370
L112680 33390
L112630 33420
L112460 33420
" />
</g>
<g style="fill:#000000; fill-opacity:0.0; 
stroke:#000000; stroke-width:100; stroke-opacity:1; 
stroke-linecap:round; stroke-linejoin:round;">
</g>
<g style="fill:#000000; fill-opacity:0.0; 
stroke:#000000; stroke-width:60; stroke-opacity:1; 
stroke-linecap:round; stroke-linejoin:round;">
<text x="112600" y="53400"
textLength="570" font-size="680" lengthAdjust="spacingAndGlyphs"
text-anchor="middle" opacity="0">C</text>
<path d="M112750 53330
L112730 53350
L112660 53380
L112610 53380
L112530 53350
L112490 53300
L112460 53250
L112440 53160
L112440 53080
L112460 52990
L112490 52940
L112530 52890
L112610 52870
L112660 52870
L112730 52890
L112750 52910
" />
</g>
<g style="fill:#000000; fill-opacity:0.0; 
stroke:#000000; stroke-width:100; stroke-opacity:1; 
stroke-linecap:round; stroke-linejoin:round;">
</g>
<g style="fill:#000000; fill-opacity:0.0; 
stroke:#000000; stroke-width:60; stroke-opacity:1; 
stroke-linecap:round; stroke-linejoin:round;">
<text x="112600" y="73080"
textLength="570" font-size="680" lengthAdjust="spacingAndGlyphs"
text-anchor="middle" opacity="0">D</text>
<path d="M112460 73060
L112460 72550
L112580 72550
L112660 72570
L112700 72620
L112730 72670
L112750 72760
L112750 72840
L112730 72930
L112700 72980
L112660 73030
L112580 73060
L112460 73060
" />
</g>
<g style="fill:#000000; fill-opacity:0.0; 
stroke:#000000; stroke-width:100; stroke-opacity:1; 
stroke-linecap:round; stroke-linejoin:round;">
</g>
<g style="fill:#000000; fill-opacity:0.0; 
stroke:#000000; stroke-width:60; stroke-opacity:1; 
stroke-linecap:round; stroke-linejoin:round;">
<text x="78740" y="76320"
textLength="8710" font-size="780" lengthAdjust="spacingAndGlyphs"
text-anchor="start" opacity="0">Date: 2023-10-06</text>
<path d="M78910 76290
L78910 75700
L79050 75700
L79130 75730
L79190 75790
L79210 75840
L79240 75950
L79240 76040
L79210 76150
L79190 76210
L79130 76260
L79050 76290
L78910 76290
" />
<path d="M79750 76290
L79750 75980
L79720 75930
L79660 75900
L79550 75900
L79500 75930
" />
<path d="M79750 76260
L79690 76290
L79550 76290
L79500 76260
L79470 76210
L79470 76150
L79500 76100
L79550 76070
L79690 76070
L79750 76040
" />
<path d="M79950 75900
L80170 75900
" />
<path d="M80030 75700
L80030 76210
L80060 76260
L80110 76290
L80170 76290
" />
<path d="M80590 76260
L80540 76290
L80420 76290
L80370 76260
L80340 76210
L80340 75980
L80370 75930
L80420 75900
L80540 75900
L80590 75930
L80620 75980
L80620 76040
L80340 76100
" />
<path d="M80870 76240
L80900 76260
L80870 76290
L80840 76260
L80870 76240
L80870 76290
" />
<path d="M80870 75930
L80900 75950
L80870 75980
L80840 75950
L80870 75930
L80870 75980
" />
<path d="M81570 75760
L81600 75730
L81660 75700
L81800 75700
L81860 75730
L81880 75760
L81910 75810
L81910 75870
L81880 75950
L81550 76290
L81910 76290
" />
<path d="M82280 75700
L82330 75700
L82390 75730
L82420 75760
L82450 75810
L82470 75930
L82470 76070
L82450 76180
L82420 76240
L82390 76260
L82330 76290
L82280 76290
L82220 76260
L82190 76240
L82160 76180
L82140 76070
L82140 75930
L82160 75810
L82190 75760
L82220 75730
L82280 75700
" />
<path d="M82700 75760
L82730 75730
L82780 75700
L82920 75700
L82980 75730
L83010 75760
L83040 75810
L83040 75870
L83010 75950
L82670 76290
L83040 76290
" />
<path d="M83230 75700
L83600 75700
L83400 75930
L83490 75930
L83540 75950
L83570 75980
L83600 76040
L83600 76180
L83570 76240
L83540 76260
L83490 76290
L83320 76290
L83260 76260
L83230 76240
" />
<path d="M83850 76070
L84300 76070
" />
<path d="M84890 76290
L84550 76290
" />
<path d="M84720 76290
L84720 75700
L84670 75790
L84610 75840
L84550 75870
" />
<path d="M85260 75700
L85310 75700
L85370 75730
L85400 75760
L85420 75810
L85450 75930
L85450 76070
L85420 76180
L85400 76240
L85370 76260
L85310 76290
L85260 76290
L85200 76260
L85170 76240
L85140 76180
L85110 76070
L85110 75930
L85140 75810
L85170 75760
L85200 75730
L85260 75700
" />
<path d="M85700 76070
L86150 76070
" />
<path d="M86550 75700
L86600 75700
L86660 75730
L86690 75760
L86720 75810
L86740 75930
L86740 76070
L86720 76180
L86690 76240
L86660 76260
L86600 76290
L86550 76290
L86490 76260
L86460 76240
L86440 76180
L86410 76070
L86410 75930
L86440 75810
L86460 75760
L86490 75730
L86550 75700
" />
<path d="M87250 75700
L87140 75700
L87080 75730
L87050 75760
L87000 75840
L86970 75950
L86970 76180
L87000 76240
L87030 76260
L87080 76290
L87190 76290
L87250 76260
L87280 76240
L87310 76180
L87310 76040
L87280 75980
L87250 75950
L87190 75930
L87080 75930
L87030 75950
L87000 75980
L86970 76040
" />
</g>
<g style="fill:#000000; fill-opacity:0.0; 
stroke:#000000; stroke-width:100; stroke-opacity:1; 
stroke-linecap:round; stroke-linejoin:round;">
</g>
<g style="fill:#000000; fill-opacity:0.0; 
stroke:#000000; stroke-width:60; stroke-opacity:1; 
stroke-linecap:round; stroke-linejoin:round;">
<path d="M69690 76580
L112210 76580
" />
</g>
<g style="fill:#000000; fill-opacity:0.0; 
stroke:#000000; stroke-width:100; stroke-opacity:1; 
stroke-linecap:round; stroke-linejoin:round;">
</g>
<g style="fill:#000000; fill-opacity:0.0; 
stroke:#000000; stroke-width:60; stroke-opacity:1; 
stroke-linecap:round; stroke-linejoin:round;">
<text x="70080" y="77420"
textLength="20430" font-size="780" lengthAdjust="spacingAndGlyphs"
text-anchor="start" opacity="0">KiCad E.D.A.  kicad 5.1.9+dfsg1-1+deb11u1</text>
<path d="M70250 77390
L70250 76800
" />
<path d="M70580 77390
L70330 77050
" />
<path d="M70580 76800
L70250 77140
" />
<path d="M70840 77390
L70840 77000
" />
<path d="M70840 76800
L70810 76830
L70840 76860
L70860 76830
L70840 76800
L70840 76860
" />
<path d="M71450 77340
L71430 77360
L71340 77390
L71290 77390
L71200 77360
L71140 77310
L71120 77250
L71090 77140
L71090 77050
L71120 76940
L71140 76890
L71200 76830
L71290 76800
L71340 76800
L71430 76830
L71450 76860
" />
<path d="M71960 77390
L71960 77080
L71930 77030
L71880 77000
L71760 77000
L71710 77030
" />
<path d="M71960 77360
L71900 77390
L71760 77390
L71710 77360
L71680 77310
L71680 77250
L71710 77200
L71760 77170
L71900 77170
L71960 77140
" />
<path d="M72490 77390
L72490 76800
" />
<path d="M72490 77360
L72440 77390
L72320 77390
L72270 77360
L72240 77340
L72210 77280
L72210 77110
L72240 77050
L72270 77030
L72320 77000
L72440 77000
L72490 77030
" />
<path d="M73220 77080
L73420 77080
" />
<path d="M73500 77390
L73220 77390
L73220 76800
L73500 76800
" />
<path d="M73760 77340
L73790 77360
L73760 77390
L73730 77360
L73760 77340
L73760 77390
" />
<path d="M74040 77390
L74040 76800
L74180 76800
L74260 76830
L74320 76890
L74350 76940
L74380 77050
L74380 77140
L74350 77250
L74320 77310
L74260 77360
L74180 77390
L74040 77390
" />
<path d="M74630 77340
L74660 77360
L74630 77390
L74600 77360
L74630 77340
L74630 77390
" />
<path d="M74880 77220
L75160 77220
" />
<path d="M74830 77390
L75020 76800
L75220 77390
" />
<path d="M75420 77340
L75440 77360
L75420 77390
L75390 77360
L75420 77340
L75420 77390
" />
<path d="M76600 77390
L76600 76800
" />
<path d="M76650 77170
L76820 77390
" />
<path d="M76820 77000
L76600 77220
" />
<path d="M77070 77390
L77070 77000
" />
<path d="M77070 76800
L77040 76830
L77070 76860
L77100 76830
L77070 76800
L77070 76860
" />
<path d="M77610 77360
L77550 77390
L77440 77390
L77380 77360
L77350 77340
L77330 77280
L77330 77110
L77350 77050
L77380 77030
L77440 77000
L77550 77000
L77610 77030
" />
<path d="M78110 77390
L78110 77080
L78080 77030
L78030 77000
L77920 77000
L77860 77030
" />
<path d="M78110 77360
L78060 77390
L77920 77390
L77860 77360
L77830 77310
L77830 77250
L77860 77200
L77920 77170
L78060 77170
L78110 77140
" />
<path d="M78650 77390
L78650 76800
" />
<path d="M78650 77360
L78590 77390
L78480 77390
L78420 77360
L78390 77340
L78370 77280
L78370 77110
L78390 77050
L78420 77030
L78480 77000
L78590 77000
L78650 77030
" />
<path d="M79660 76800
L79380 76800
L79350 77080
L79380 77050
L79430 77030
L79570 77030
L79630 77050
L79660 77080
L79690 77140
L79690 77280
L79660 77340
L79630 77360
L79570 77390
L79430 77390
L79380 77360
L79350 77340
" />
<path d="M79940 77340
L79970 77360
L79940 77390
L79910 77360
L79940 77340
L79940 77390
" />
<path d="M80530 77390
L80190 77390
" />
<path d="M80360 77390
L80360 76800
L80300 76890
L80250 76940
L80190 76970
" />
<path d="M80780 77340
L80810 77360
L80780 77390
L80750 77360
L80780 77340
L80780 77390
" />
<path d="M81090 77390
L81200 77390
L81260 77360
L81290 77340
L81340 77250
L81370 77140
L81370 76910
L81340 76860
L81320 76830
L81260 76800
L81150 76800
L81090 76830
L81060 76860
L81030 76910
L81030 77050
L81060 77110
L81090 77140
L81150 77170
L81260 77170
L81320 77140
L81340 77110
L81370 77050
" />
<path d="M81620 77170
L82070 77170
" />
<path d="M81850 77390
L81850 76940
" />
<path d="M82610 77390
L82610 76800
" />
<path d="M82610 77360
L82550 77390
L82440 77390
L82380 77360
L82350 77340
L82330 77280
L82330 77110
L82350 77050
L82380 77030
L82440 77000
L82550 77000
L82610 77030
" />
<path d="M82800 77000
L83030 77000
" />
<path d="M82890 77390
L82890 76890
L82920 76830
L82970 76800
L83030 76800
" />
<path d="M83200 77360
L83250 77390
L83370 77390
L83420 77360
L83450 77310
L83450 77280
L83420 77220
L83370 77200
L83280 77200
L83230 77170
L83200 77110
L83200 77080
L83230 77030
L83280 77000
L83370 77000
L83420 77030
" />
<path d="M83960 77000
L83960 77480
L83930 77530
L83900 77560
L83840 77590
L83760 77590
L83700 77560
" />
<path d="M83960 77360
L83900 77390
L83790 77390
L83730 77360
L83700 77340
L83680 77280
L83680 77110
L83700 77050
L83730 77030
L83790 77000
L83900 77000
L83960 77030
" />
<path d="M84550 77390
L84210 77390
" />
<path d="M84380 77390
L84380 76800
L84320 76890
L84270 76940
L84210 76970
" />
<path d="M84800 77170
L85250 77170
" />
<path d="M85840 77390
L85500 77390
" />
<path d="M85670 77390
L85670 76800
L85610 76890
L85560 76940
L85500 76970
" />
<path d="M86090 77170
L86540 77170
" />
<path d="M86320 77390
L86320 76940
" />
<path d="M87070 77390
L87070 76800
" />
<path d="M87070 77360
L87020 77390
L86910 77390
L86850 77360
L86820 77340
L86790 77280
L86790 77110
L86820 77050
L86850 77030
L86910 77000
L87020 77000
L87070 77030
" />
<path d="M87580 77360
L87520 77390
L87410 77390
L87360 77360
L87330 77310
L87330 77080
L87360 77030
L87410 77000
L87520 77000
L87580 77030
L87610 77080
L87610 77140
L87330 77200
" />
<path d="M87860 77390
L87860 76800
" />
<path d="M87860 77030
L87920 77000
L88030 77000
L88090 77030
L88110 77050
L88140 77110
L88140 77280
L88110 77340
L88090 77360
L88030 77390
L87920 77390
L87860 77360
" />
<path d="M88700 77390
L88370 77390
" />
<path d="M88540 77390
L88540 76800
L88480 76890
L88420 76940
L88370 76970
" />
<path d="M89270 77390
L88930 77390
" />
<path d="M89100 77390
L89100 76800
L89040 76890
L88990 76940
L88930 76970
" />
<path d="M89770 77000
L89770 77390
" />
<path d="M89520 77000
L89520 77310
L89550 77360
L89600 77390
L89690 77390
L89740 77360
L89770 77340
" />
<path d="M90360 77390
L90020 77390
" />
<path d="M90190 77390
L90190 76800
L90140 76890
L90080 76940
L90020 76970
" />
</g>
<g style="fill:#000000; fill-opacity:0.0; 
stroke:#000000; stroke-width:100; stroke-opacity:1; 
stroke-linecap:round; stroke-linejoin:round;">
</g>
<g style="fill:#000000; fill-opacity:0.0; 
stroke:#000000; stroke-width:60; stroke-opacity:1; 
stroke-linecap:round; stroke-linejoin:round;">
<path d="M69690 75400
L112210 75400
" />
</g>
<g style="fill:#000000; fill-opacity:0.0; 
stroke:#000000; stroke-width:100; stroke-opacity:1; 
stroke-linecap:round; stroke-linejoin:round;">
</g>
<g style="fill:#000000; fill-opacity:0.0; 
stroke:#000000; stroke-width:120; stroke-opacity:1; 
stroke-linecap:round; stroke-linejoin:round;">
<text x="103540" y="76320"
textLength="5710" font-size="780" lengthAdjust="spacingAndGlyphs"
text-anchor="start" opacity="0">Rev: 231006</text>
<path d="M104090 76290
L103890 76010
" />
<path d="M103750 76290
L103750 75700
L103980 75700
L104030 75730
L104060 75760
L104090 75810
L104090 75900
L104060 75950
L104030 75980
L103980 76010
L103750 76010
" />
<path d="M104570 76260
L104510 76290
L104400 76290
L104340 76260
L104320 76210
L104320 75980
L104340 75930
L104400 75900
L104510 75900
L104570 75930
L104600 75980
L104600 76040
L104320 76100
" />
<path d="M104790 75900
L104930 76290
L105070 75900
" />
<path d="M105300 76240
L105330 76260
L105300 76290
L105270 76260
L105300 76240
L105300 76290
" />
<path d="M105300 75930
L105330 75950
L105300 75980
L105270 75950
L105300 75930
L105300 75980
" />
<path d="M106000 75760
L106030 75730
L106090 75700
L106230 75700
L106280 75730
L106310 75760
L106340 75810
L106340 75870
L106310 75950
L105970 76290
L106340 76290
" />
<path d="M106530 75700
L106900 75700
L106700 75930
L106790 75930
L106840 75950
L106870 75980
L106900 76040
L106900 76180
L106870 76240
L106840 76260
L106790 76290
L106620 76290
L106560 76260
L106530 76240
" />
<path d="M107460 76290
L107120 76290
" />
<path d="M107290 76290
L107290 75700
L107240 75790
L107180 75840
L107120 75870
" />
<path d="M107830 75700
L107880 75700
L107940 75730
L107970 75760
L108000 75810
L108020 75930
L108020 76070
L108000 76180
L107970 76240
L107940 76260
L107880 76290
L107830 76290
L107770 76260
L107740 76240
L107710 76180
L107690 76070
L107690 75930
L107710 75810
L107740 75760
L107770 75730
L107830 75700
" />
<path d="M108390 75700
L108450 75700
L108500 75730
L108530 75760
L108560 75810
L108590 75930
L108590 76070
L108560 76180
L108530 76240
L108500 76260
L108450 76290
L108390 76290
L108330 76260
L108300 76240
L108280 76180
L108250 76070
L108250 75930
L108280 75810
L108300 75760
L108330 75730
L108390 75700
" />
<path d="M109090 75700
L108980 75700
L108920 75730
L108890 75760
L108840 75840
L108810 75950
L108810 76180
L108840 76240
L108870 76260
L108920 76290
L109040 76290
L109090 76260
L109120 76240
L109150 76180
L109150 76040
L109120 75980
L109090 75950
L109040 75930
L108920 75930
L108870 75950
L108840 75980
L108810 76040
" />
</g>
<g style="fill:#000000; fill-opacity:0.0; 
stroke:#000000; stroke-width:100; stroke-opacity:1; 
stroke-linecap:round; stroke-linejoin:round;">
</g>
<g style="fill:#000000; fill-opacity:0.0; 
stroke:#000000; stroke-width:60; stroke-opacity:1; 
stroke-linecap:round; stroke-linejoin:round;">
<text x="70080" y="76320"
textLength="3780" font-size="780" lengthAdjust="spacingAndGlyphs"
text-anchor="start" opacity="0">Size: A4</text>
<path d="M70220 76260
L70300 76290
L70440 76290
L70500 76260
L70530 76240
L70550 76180
L70550 76120
L70530 76070
L70500 76040
L70440 76010
L70330 75980
L70270 75950
L70250 75930
L70220 75870
L70220 75810
L70250 75760
L70270 75730
L70330 75700
L70470 75700
L70550 75730
" />
<path d="M70810 76290
L70810 75900
" />
<path d="M70810 75700
L70780 75730
L70810 75760
L70840 75730
L70810 75700
L70810 75760
" />
<path d="M71030 75900
L71340 75900
L71030 76290
L71340 76290
" />
<path d="M71790 76260
L71730 76290
L71620 76290
L71570 76260
L71540 76210
L71540 75980
L71570 75930
L71620 75900
L71730 75900
L71790 75930
L71820 75980
L71820 76040
L71540 76100
" />
<path d="M72070 76240
L72100 76260
L72070 76290
L72040 76260
L72070 76240
L72070 76290
" />
<path d="M72070 75930
L72100 75950
L72070 75980
L72040 75950
L72070 75930
L72070 75980
" />
<path d="M72770 76120
L73060 76120
" />
<path d="M72720 76290
L72910 75700
L73110 76290
" />
<path d="M73560 75900
L73560 76290
" />
<path d="M73420 75670
L73280 76100
L73650 76100
" />
</g>
<g style="fill:#000000; fill-opacity:0.0; 
stroke:#000000; stroke-width:100; stroke-opacity:1; 
stroke-linecap:round; stroke-linejoin:round;">
</g>
<g style="fill:#000000; fill-opacity:0.0; 
stroke:#000000; stroke-width:60; stroke-opacity:1; 
stroke-linecap:round; stroke-linejoin:round;">
<text x="103540" y="77420"
textLength="3350" font-size="780" lengthAdjust="spacingAndGlyphs"
text-anchor="start" opacity="0">Id: 1/1</text>
<path d="M103710 77390
L103710 76800
" />
<path d="M104240 77390
L104240 76800
" />
<path d="M104240 77360
L104180 77390
L104070 77390
L104010 77360
L103990 77340
L103960 77280
L103960 77110
L103990 77050
L104010 77030
L104070 77000
L104180 77000
L104240 77030
" />
<path d="M104520 77340
L104550 77360
L104520 77390
L104490 77360
L104520 77340
L104520 77390
" />
<path d="M104520 77030
L104550 77050
L104520 77080
L104490 77050
L104520 77030
L104520 77080
" />
<path d="M105560 77390
L105220 77390
" />
<path d="M105390 77390
L105390 76800
L105340 76890
L105280 76940
L105220 76970
" />
<path d="M106230 76770
L105730 77530
" />
<path d="M106740 77390
L106400 77390
" />
<path d="M106570 77390
L106570 76800
L106520 76890
L106460 76940
L106400 76970
" />
</g>
<g style="fill:#000000; fill-opacity:0.0; 
stroke:#000000; stroke-width:100; stroke-opacity:1; 
stroke-linecap:round; stroke-linejoin:round;">
</g>
<g style="fill:#000000; fill-opacity:0.0; 
stroke:#000000; stroke-width:60; stroke-opacity:1; 
stroke-linecap:round; stroke-linejoin:round;">
<path d="M69690 73820
L112210 73820
" />
</g>
<g style="fill:#000000; fill-opacity:0.0; 
stroke:#000000; stroke-width:100; stroke-opacity:1; 
stroke-linecap:round; stroke-linejoin:round;">
</g>
<g style="fill:#000000; fill-opacity:0.0; 
stroke:#000000; stroke-width:160; stroke-opacity:1; 
stroke-linecap:round; stroke-linejoin:round;">
<text x="70080" y="74920"
textLength="22490" font-size="1050" lengthAdjust="spacingAndGlyphs"
text-anchor="start" opacity="0">Title: MM17D RH/T measuring device</text>
<path d="M70360 74090
L70810 74090
" />
<path d="M70480 74880
L70580 74090
" />
<path d="M70970 74880
L71040 74360
" />
<path d="M71070 74090
L71030 74130
L71060 74170
L71110 74130
L71070 74090
L71060 74170
" />
<path d="M71300 74360
L71600 74360
" />
<path d="M71450 74090
L71360 74770
L71390 74840
L71460 74880
L71540 74880
" />
<path d="M71910 74880
L71840 74840
L71820 74770
L71900 74090
" />
<path d="M72520 74840
L72440 74880
L72290 74880
L72220 74840
L72190 74770
L72230 74470
L72280 74390
L72360 74360
L72510 74360
L72580 74390
L72610 74470
L72600 74540
L72210 74620
" />
<path d="M72900 74810
L72930 74840
L72890 74880
L72860 74840
L72900 74810
L72890 74880
" />
<path d="M72950 74390
L72990 74430
L72940 74470
L72910 74430
L72950 74390
L72940 74470
" />
<path d="M73870 74880
L73970 74090
L74160 74660
L74500 74090
L74400 74880
" />
<path d="M74770 74880
L74870 74090
L75060 74660
L75400 74090
L75300 74880
" />
<path d="M76090 74880
L75640 74880
" />
<path d="M75860 74880
L75960 74090
L75870 74210
L75790 74280
L75710 74320
" />
<path d="M76450 74090
L76980 74090
L76540 74880
" />
<path d="M77180 74880
L77280 74090
L77470 74090
L77580 74130
L77640 74210
L77670 74280
L77690 74430
L77670 74540
L77620 74690
L77570 74770
L77490 74840
L77370 74880
L77180 74880
" />
<path d="M79020 74880
L78810 74510
" />
<path d="M78570 74880
L78670 74090
L78970 74090
L79040 74130
L79080 74170
L79100 74240
L79090 74360
L79040 74430
L79000 74470
L78920 74510
L78620 74510
" />
<path d="M79360 74880
L79460 74090
" />
<path d="M79410 74470
L79870 74470
" />
<path d="M79810 74880
L79910 74090
" />
<path d="M80860 74050
L80050 75070
" />
<path d="M81000 74090
L81460 74090
" />
<path d="M81130 74880
L81230 74090
" />
<path d="M82220 74880
L82290 74360
" />
<path d="M82280 74430
L82320 74390
L82400 74360
L82510 74360
L82580 74390
L82610 74470
L82560 74880
" />
<path d="M82610 74470
L82660 74390
L82740 74360
L82850 74360
L82920 74390
L82950 74470
L82900 74880
" />
<path d="M83580 74840
L83500 74880
L83350 74880
L83280 74840
L83250 74770
L83290 74470
L83340 74390
L83420 74360
L83570 74360
L83640 74390
L83670 74470
L83660 74540
L83270 74620
" />
<path d="M84290 74880
L84340 74470
L84310 74390
L84240 74360
L84090 74360
L84010 74390
" />
<path d="M84300 74840
L84220 74880
L84030 74880
L83960 74840
L83930 74770
L83940 74690
L83990 74620
L84070 74580
L84250 74580
L84330 74540
" />
<path d="M84630 74840
L84700 74880
L84860 74880
L84940 74840
L84980 74770
L84990 74730
L84960 74660
L84890 74620
L84780 74620
L84700 74580
L84680 74510
L84680 74470
L84730 74390
L84810 74360
L84920 74360
L84990 74390
" />
<path d="M85710 74360
L85650 74880
" />
<path d="M85370 74360
L85320 74770
L85350 74840
L85420 74880
L85530 74880
L85610 74840
L85650 74810
" />
<path d="M86020 74880
L86090 74360
" />
<path d="M86070 74510
L86120 74430
L86160 74390
L86240 74360
L86310 74360
" />
<path d="M86510 74880
L86580 74360
" />
<path d="M86610 74090
L86570 74130
L86600 74170
L86640 74130
L86610 74090
L86600 74170
" />
<path d="M86950 74360
L86890 74880
" />
<path d="M86940 74430
L86990 74390
L87070 74360
L87180 74360
L87250 74390
L87280 74470
L87230 74880
" />
<path d="M88010 74360
L87930 75000
L87880 75070
L87840 75110
L87760 75150
L87640 75150
L87570 75110
" />
<path d="M87940 74840
L87860 74880
L87710 74880
L87640 74840
L87610 74810
L87580 74730
L87610 74510
L87660 74430
L87700 74390
L87780 74360
L87930 74360
L88000 74390
" />
<path d="M89260 74880
L89360 74090
" />
<path d="M89260 74840
L89180 74880
L89030 74880
L88960 74840
L88930 74810
L88900 74730
L88930 74510
L88970 74430
L89020 74390
L89100 74360
L89250 74360
L89320 74390
" />
<path d="M89940 74840
L89860 74880
L89710 74880
L89640 74840
L89610 74770
L89650 74470
L89690 74390
L89770 74360
L89920 74360
L89990 74390
L90020 74470
L90010 74540
L89630 74620
" />
<path d="M90300 74360
L90420 74880
L90680 74360
" />
<path d="M90910 74880
L90980 74360
" />
<path d="M91010 74090
L90970 74130
L91000 74170
L91040 74130
L91010 74090
L91000 74170
" />
<path d="M91630 74840
L91550 74880
L91400 74880
L91330 74840
L91300 74810
L91270 74730
L91300 74510
L91340 74430
L91390 74390
L91470 74360
L91620 74360
L91690 74390
" />
<path d="M92270 74840
L92190 74880
L92040 74880
L91970 74840
L91940 74770
L91980 74470
L92030 74390
L92110 74360
L92260 74360
L92330 74390
L92360 74470
L92350 74540
L91960 74620
" />
</g>
<g style="fill:#000000; fill-opacity:0.0; 
stroke:#000000; stroke-width:100; stroke-opacity:1; 
stroke-linecap:round; stroke-linejoin:round;">
</g>
<g style="fill:#000000; fill-opacity:0.0; 
stroke:#000000; stroke-width:60; stroke-opacity:1; 
stroke-linecap:round; stroke-linejoin:round;">
<text x="70080" y="73400"
textLength="6950" font-size="780" lengthAdjust="spacingAndGlyphs"
text-anchor="start" opacity="0">File: wiring.sch</text>
<path d="M70440 73060
L70250 73060
" />
<path d="M70250 73370
L70250 72780
L70530 72780
" />
<path d="M70750 73370
L70750 72980
" />
<path d="M70750 72780
L70720 72810
L70750 72840
L70780 72810
L70750 72780
L70750 72840
" />
<path d="M71120 73370
L71060 73340
L71030 73290
L71030 72780
" />
<path d="M71570 73340
L71510 73370
L71400 73370
L71340 73340
L71310 73290
L71310 73060
L71340 73010
L71400 72980
L71510 72980
L71570 73010
L71590 73060
L71590 73120
L71310 73180
" />
<path d="M71850 73320
L71880 73340
L71850 73370
L71820 73340
L71850 73320
L71850 73370
" />
<path d="M71850 73010
L71880 73030
L71850 73060
L71820 73030
L71850 73010
L71850 73060
" />
<path d="M72520 72980
L72630 73370
L72750 73090
L72860 73370
L72970 72980
" />
<path d="M73200 73370
L73200 72980
" />
<path d="M73200 72780
L73170 72810
L73200 72840
L73220 72810
L73200 72780
L73200 72840
" />
<path d="M73480 73370
L73480 72980
" />
<path d="M73480 73090
L73500 73030
L73530 73010
L73590 72980
L73650 72980
" />
<path d="M73840 73370
L73840 72980
" />
<path d="M73840 72780
L73810 72810
L73840 72840
L73870 72810
L73840 72780
L73840 72840
" />
<path d="M74120 72980
L74120 73370
" />
<path d="M74120 73030
L74150 73010
L74210 72980
L74290 72980
L74350 73010
L74380 73060
L74380 73370
" />
<path d="M74910 72980
L74910 73460
L74880 73510
L74850 73540
L74800 73570
L74710 73570
L74660 73540
" />
<path d="M74910 73340
L74850 73370
L74740 73370
L74680 73340
L74660 73320
L74630 73260
L74630 73090
L74660 73030
L74680 73010
L74740 72980
L74850 72980
L74910 73010
" />
<path d="M75190 73320
L75220 73340
L75190 73370
L75160 73340
L75190 73320
L75190 73370
" />
<path d="M75440 73340
L75500 73370
L75610 73370
L75670 73340
L75700 73290
L75700 73260
L75670 73200
L75610 73180
L75530 73180
L75470 73150
L75440 73090
L75440 73060
L75470 73010
L75530 72980
L75610 72980
L75670 73010
" />
<path d="M76200 73340
L76150 73370
L76030 73370
L75980 73340
L75950 73320
L75920 73260
L75920 73090
L75950 73030
L75980 73010
L76030 72980
L76150 72980
L76200 73010
" />
<path d="M76450 73370
L76450 72780
" />
<path d="M76710 73370
L76710 73060
L76680 73010
L76620 72980
L76540 72980
L76480 73010
L76450 73030
" />
</g>
<g style="fill:#000000; fill-opacity:0.0; 
stroke:#000000; stroke-width:100; stroke-opacity:1; 
stroke-linecap:round; stroke-linejoin:round;">
</g>
<g style="fill:#000000; fill-opacity:0.0; 
stroke:#000000; stroke-width:60; stroke-opacity:1; 
stroke-linecap:round; stroke-linejoin:round;">
<path d="M69690 71460
L112210 71460
" />
</g>
<g style="fill:#000000; fill-opacity:0.0; 
stroke:#000000; stroke-width:100; stroke-opacity:1; 
stroke-linecap:round; stroke-linejoin:round;">
</g>
<g style="fill:#000000; fill-opacity:0.0; 
stroke:#000000; stroke-width:60; stroke-opacity:1; 
stroke-linecap:round; stroke-linejoin:round;">
<text x="70080" y="72340"
textLength="3850" font-size="780" lengthAdjust="spacingAndGlyphs"
text-anchor="start" opacity="0">Sheet: /</text>
<path d="M70220 72280
L70300 72310
L70440 72310
L70500 72280
L70530 72260
L70550 72200
L70550 72140
L70530 72090
L70500 72060
L70440 72030
L70330 72000
L70270 71970
L70250 71950
L70220 71890
L70220 71830
L70250 71780
L70270 71750
L70330 71720
L70470 71720
L70550 71750
" />
<path d="M70810 72310
L70810 71720
" />
<path d="M71060 72310
L71060 72000
L71030 71950
L70980 71920
L70890 71920
L70840 71950
L70810 71970
" />
<path d="M71570 72280
L71510 72310
L71400 72310
L71340 72280
L71310 72230
L71310 72000
L71340 71950
L71400 71920
L71510 71920
L71570 71950
L71590 72000
L71590 72060
L71310 72120
" />
<path d="M72070 72280
L72020 72310
L71900 72310
L71850 72280
L71820 72230
L71820 72000
L71850 71950
L71900 71920
L72020 71920
L72070 71950
L72100 72000
L72100 72060
L71820 72120
" />
<path d="M72270 71920
L72490 71920
" />
<path d="M72350 71720
L72350 72230
L72380 72280
L72440 72310
L72490 72310
" />
<path d="M72690 72260
L72720 72280
L72690 72310
L72660 72280
L72690 72260
L72690 72310
" />
<path d="M72690 71950
L72720 71970
L72690 72000
L72660 71970
L72690 71950
L72690 72000
" />
<path d="M73840 71690
L73340 72450
" />
</g>
<g style="fill:#000000; fill-opacity:0.0; 
stroke:#000000; stroke-width:100; stroke-opacity:1; 
stroke-linecap:round; stroke-linejoin:round;">
</g>
<g style="fill:#000000; fill-opacity:0.0; 
stroke:#000000; stroke-width:120; stroke-opacity:1; 
stroke-linecap:round; stroke-linejoin:round;">
<text x="70080" y="71160"
textLength="17960" font-size="780" lengthAdjust="spacingAndGlyphs"
text-anchor="start" opacity="0">Pozsar Zsolt - http://www.pozsarzs.hu</text>
<path d="M70290 71130
L70290 70540
L70520 70540
L70570 70570
L70600 70600
L70630 70650
L70630 70740
L70600 70790
L70570 70820
L70520 70850
L70290 70850
" />
<path d="M70970 71130
L70910 71100
L70880 71080
L70860 71020
L70860 70850
L70880 70790
L70910 70770
L70970 70740
L71050 70740
L71110 70770
L71140 70790
L71160 70850
L71160 71020
L71140 71080
L71110 71100
L71050 71130
L70970 71130
" />
<path d="M71360 70740
L71670 70740
L71360 71130
L71670 71130
" />
<path d="M71870 71100
L71920 71130
L72040 71130
L72090 71100
L72120 71050
L72120 71020
L72090 70960
L72040 70940
L71950 70940
L71890 70910
L71870 70850
L71870 70820
L71890 70770
L71950 70740
L72040 70740
L72090 70770
" />
<path d="M72630 71130
L72630 70820
L72600 70770
L72540 70740
L72430 70740
L72370 70770
" />
<path d="M72630 71100
L72570 71130
L72430 71130
L72370 71100
L72340 71050
L72340 70990
L72370 70940
L72430 70910
L72570 70910
L72630 70880
" />
<path d="M72910 71130
L72910 70740
" />
<path d="M72910 70850
L72930 70790
L72960 70770
L73020 70740
L73070 70740
" />
<path d="M73660 70540
L74060 70540
L73660 71130
L74060 71130
" />
<path d="M74250 71100
L74310 71130
L74420 71130
L74480 71100
L74510 71050
L74510 71020
L74480 70960
L74420 70940
L74340 70940
L74280 70910
L74250 70850
L74250 70820
L74280 70770
L74340 70740
L74420 70740
L74480 70770
" />
<path d="M74840 71130
L74790 71100
L74760 71080
L74730 71020
L74730 70850
L74760 70790
L74790 70770
L74840 70740
L74930 70740
L74990 70770
L75010 70790
L75040 70850
L75040 71020
L75010 71080
L74990 71100
L74930 71130
L74840 71130
" />
<path d="M75380 71130
L75320 71100
L75290 71050
L75290 70540
" />
<path d="M75520 70740
L75740 70740
" />
<path d="M75600 70540
L75600 71050
L75630 71100
L75690 71130
L75740 71130
" />
<path d="M76390 70910
L76840 70910
" />
<path d="M77570 71130
L77570 70540
" />
<path d="M77820 71130
L77820 70820
L77790 70770
L77740 70740
L77650 70740
L77600 70770
L77570 70790
" />
<path d="M78020 70740
L78240 70740
" />
<path d="M78100 70540
L78100 71050
L78130 71100
L78190 71130
L78240 71130
" />
<path d="M78360 70740
L78580 70740
" />
<path d="M78440 70540
L78440 71050
L78470 71100
L78530 71130
L78580 71130
" />
<path d="M78780 70740
L78780 71330
" />
<path d="M78780 70770
L78830 70740
L78950 70740
L79000 70770
L79030 70790
L79060 70850
L79060 71020
L79030 71080
L79000 71100
L78950 71130
L78830 71130
L78780 71100
" />
<path d="M79310 71080
L79340 71100
L79310 71130
L79280 71100
L79310 71080
L79310 71130
" />
<path d="M79310 70770
L79340 70790
L79310 70820
L79280 70790
L79310 70770
L79310 70820
" />
<path d="M80010 70510
L79510 71270
" />
<path d="M80630 70510
L80130 71270
" />
<path d="M80770 70740
L80890 71130
L81000 70850
L81110 71130
L81220 70740
" />
<path d="M81390 70740
L81500 71130
L81620 70850
L81730 71130
L81840 70740
" />
<path d="M82010 70740
L82120 71130
L82230 70850
L82350 71130
L82460 70740
" />
<path d="M82680 71080
L82710 71100
L82680 71130
L82660 71100
L82680 71080
L82680 71130
" />
<path d="M82960 70740
L82960 71330
" />
<path d="M82960 70770
L83020 70740
L83130 70740
L83190 70770
L83220 70790
L83250 70850
L83250 71020
L83220 71080
L83190 71100
L83130 71130
L83020 71130
L82960 71100
" />
<path d="M83580 71130
L83530 71100
L83500 71080
L83470 71020
L83470 70850
L83500 70790
L83530 70770
L83580 70740
L83670 70740
L83720 70770
L83750 70790
L83780 70850
L83780 71020
L83750 71080
L83720 71100
L83670 71130
L83580 71130
" />
<path d="M83980 70740
L84280 70740
L83980 71130
L84280 71130
" />
<path d="M84480 71100
L84540 71130
L84650 71130
L84710 71100
L84730 71050
L84730 71020
L84710 70960
L84650 70940
L84570 70940
L84510 70910
L84480 70850
L84480 70820
L84510 70770
L84570 70740
L84650 70740
L84710 70770
" />
<path d="M85240 71130
L85240 70820
L85210 70770
L85160 70740
L85040 70740
L84990 70770
" />
<path d="M85240 71100
L85180 71130
L85040 71130
L84990 71100
L84960 71050
L84960 70990
L84990 70940
L85040 70910
L85180 70910
L85240 70880
" />
<path d="M85520 71130
L85520 70740
" />
<path d="M85520 70850
L85550 70790
L85580 70770
L85630 70740
L85690 70740
" />
<path d="M85830 70740
L86140 70740
L85830 71130
L86140 71130
" />
<path d="M86340 71100
L86390 71130
L86500 71130
L86560 71100
L86590 71050
L86590 71020
L86560 70960
L86500 70940
L86420 70940
L86360 70910
L86340 70850
L86340 70820
L86360 70770
L86420 70740
L86500 70740
L86560 70770
" />
<path d="M86840 71080
L86870 71100
L86840 71130
L86810 71100
L86840 71080
L86840 71130
" />
<path d="M87120 71130
L87120 70540
" />
<path d="M87380 71130
L87380 70820
L87350 70770
L87290 70740
L87210 70740
L87150 70770
L87120 70790
" />
<path d="M87910 70740
L87910 71130
" />
<path d="M87660 70740
L87660 71050
L87680 71100
L87740 71130
L87820 71130
L87880 71100
L87910 71080
" />
</g>
<g style="fill:#000000; fill-opacity:0.0; 
stroke:#000000; stroke-width:100; stroke-opacity:1; 
stroke-linecap:round; stroke-linejoin:round;">
</g>
<g style="fill:#000000; fill-opacity:0.0; 
stroke:#000000; stroke-width:60; stroke-opacity:1; 
stroke-linecap:round; stroke-linejoin:round;">
<text x="70080" y="69980"
textLength="6620" font-size="780" lengthAdjust="spacingAndGlyphs"
text-anchor="start" opacity="0">Internal wiring</text>
<path d="M70250 69950
L70250 69360
" />
<path d="M70530 69560
L70530 69950
" />
<path d="M70530 69610
L70550 69590
L70610 69560
L70700 69560
L70750 69590
L70780 69640
L70780 69950
" />
<path d="M70980 69560
L71200 69560
" />
<path d="M71060 69360
L71060 69870
L71090 69920
L71140 69950
L71200 69950
" />
<path d="M71620 69920
L71570 69950
L71450 69950
L71400 69920
L71370 69870
L71370 69640
L71400 69590
L71450 69560
L71570 69560
L71620 69590
L71650 69640
L71650 69700
L71370 69760
" />
<path d="M71900 69950
L71900 69560
" />
<path d="M71900 69670
L71930 69610
L71960 69590
L72020 69560
L72070 69560
" />
<path d="M72270 69560
L72270 69950
" />
<path d="M72270 69610
L72300 69590
L72350 69560
L72440 69560
L72490 69590
L72520 69640
L72520 69950
" />
<path d="M73060 69950
L73060 69640
L73030 69590
L72970 69560
L72860 69560
L72800 69590
" />
<path d="M73060 69920
L73000 69950
L72860 69950
L72800 69920
L72770 69870
L72770 69810
L72800 69760
L72860 69730
L73000 69730
L73060 69700
" />
<path d="M73420 69950
L73360 69920
L73340 69870
L73340 69360
" />
<path d="M74040 69560
L74150 69950
L74260 69670
L74380 69950
L74490 69560
" />
<path d="M74710 69950
L74710 69560
" />
<path d="M74710 69360
L74680 69390
L74710 69420
L74740 69390
L74710 69360
L74710 69420
" />
<path d="M74990 69950
L74990 69560
" />
<path d="M74990 69670
L75020 69610
L75050 69590
L75110 69560
L75160 69560
" />
<path d="M75360 69950
L75360 69560
" />
<path d="M75360 69360
L75330 69390
L75360 69420
L75390 69390
L75360 69360
L75360 69420
" />
<path d="M75640 69560
L75640 69950
" />
<path d="M75640 69610
L75670 69590
L75720 69560
L75810 69560
L75860 69590
L75890 69640
L75890 69950
" />
<path d="M76430 69560
L76430 70040
L76400 70090
L76370 70120
L76310 70150
L76230 70150
L76170 70120
" />
<path d="M76430 69920
L76370 69950
L76260 69950
L76200 69920
L76170 69900
L76150 69840
L76150 69670
L76170 69610
L76200 69590
L76260 69560
L76370 69560
L76430 69590
" />
</g>
<g style="fill:#000000; fill-opacity:0.0; 
stroke:#000000; stroke-width:100; stroke-opacity:1; 
stroke-linecap:round; stroke-linejoin:round;">
</g>
<g style="fill:#000000; fill-opacity:0.0; 
stroke:#000000; stroke-width:60; stroke-opacity:1; 
stroke-linecap:round; stroke-linejoin:round;">
<path d="M77560 75400
L77560 76580
" />
</g>
<g style="fill:#000000; fill-opacity:0.0; 
stroke:#000000; stroke-width:100; stroke-opacity:1; 
stroke-linecap:round; stroke-linejoin:round;">
</g>
<g style="fill:#000000; fill-opacity:0.0; 
stroke:#000000; stroke-width:60; stroke-opacity:1; 
stroke-linecap:round; stroke-linejoin:round;">
<path d="M102760 75400
L102760 77960
" />
</g>
<g style="fill:#000000; fill-opacity:0.0; 
stroke:#000000; stroke-width:0; stroke-opacity:1; 
stroke-linecap:round; stroke-linejoin:round;">
<g >
</g>
<g style="fill:#000000; fill-opacity:0.0; 
stroke:#000000; stroke-width:200; stroke-opacity:1; 
stroke-linecap:round; stroke-linejoin:round;">
<path style="fill:#000000; fill-opacity:0.0; 
stroke:#000000; stroke-width:200; stroke-opacity:1; 
stroke-linecap:round; stroke-linejoin:round;fill:none"
d="M 40700,36700
40700,38300
" /> 
<path style="fill:#000000; fill-opacity:0.0; 
stroke:#000000; stroke-width:200; stroke-opacity:1; 
stroke-linecap:round; stroke-linejoin:round;fill:none"
d="M 41300,36700
41300,38300
" /> 
</g>
<g style="fill:#000000; fill-opacity:0.0; 
stroke:#000000; stroke-width:60; stroke-opacity:1; 
stroke-linecap:round; stroke-linejoin:round;">
<path d="M41400 37500
L42500 37500
" />
<path d="M40600 37500
L39500 37500
" />
<text x="41020" y="35770"
textLength="1040" font-size="660" lengthAdjust="spacingAndGlyphs"
text-anchor="middle" opacity="0">C1</text>
<path d="M40930 35690
L40910 35720
L40840 35740
L40790 35740
L40720 35720
L40670 35670
L40650 35620
L40620 35530
L40620 35460
L40650 35360
L40670 35310
L40720 35270
L40790 35240
L40840 35240
L40910 35270
L40930 35290
" />
<path d="M41410 35740
L41120 35740
" />
<path d="M41270 35740
L41270 35240
L41220 35310
L41170 35360
L41120 35380
" />
<text x="40970" y="39770"
textLength="1940" font-size="660" lengthAdjust="spacingAndGlyphs"
text-anchor="middle" opacity="0">100n</text>
<path d="M40410 39740
L40120 39740
" />
<path d="M40260 39740
L40260 39240
L40220 39310
L40170 39360
L40120 39380
" />
<path d="M40720 39240
L40760 39240
L40810 39270
L40830 39290
L40860 39340
L40880 39430
L40880 39550
L40860 39650
L40830 39690
L40810 39720
L40760 39740
L40720 39740
L40670 39720
L40640 39690
L40620 39650
L40600 39550
L40600 39430
L40620 39340
L40640 39290
L40670 39270
L40720 39240
" />
<path d="M41190 39240
L41240 39240
L41290 39270
L41310 39290
L41330 39340
L41360 39430
L41360 39550
L41330 39650
L41310 39690
L41290 39720
L41240 39740
L41190 39740
L41140 39720
L41120 39690
L41100 39650
L41070 39550
L41070 39430
L41100 39340
L41120 39290
L41140 39270
L41190 39240
" />
<path d="M41570 39410
L41570 39740
" />
<path d="M41570 39460
L41600 39430
L41640 39410
L41720 39410
L41760 39430
L41790 39480
L41790 39740
" />
</g>
</g>
<g style="fill:#000000; fill-opacity:0.0; 
stroke:#000000; stroke-width:0; stroke-opacity:1; 
stroke-linecap:round; stroke-linejoin:round;">
<g >
</g>
<g style="fill:#000000; fill-opacity:0.0; 
stroke:#000000; stroke-width:60; stroke-opacity:1; 
stroke-linecap:round; stroke-linejoin:round;">
<circle cx="77500" cy="33700" r="300" /> 
<circle cx="75500" cy="33700" r="300" /> 
<circle cx="73500" cy="33700" r="300" /> 
<circle cx="71500" cy="33700" r="300" /> 
<circle cx="69500" cy="33700" r="300" /> 
<circle cx="76500" cy="32500" r="300" /> 
<circle cx="74500" cy="32500" r="300" /> 
<circle cx="72500" cy="32500" r="300" /> 
<circle cx="70500" cy="32500" r="300" /> 
</g>
<g style="fill:#000000; fill-opacity:0.0; 
stroke:#000000; stroke-width:80; stroke-opacity:1; 
stroke-linecap:round; stroke-linejoin:round;">
<path style="fill:#000000; fill-opacity:0.0; 
stroke:#000000; stroke-width:80; stroke-opacity:1; 
stroke-linecap:round; stroke-linejoin:round;fill:none"
d="M 78100,34500
68900,34500
" /> 
<path style="fill:#000000; fill-opacity:0.0; 
stroke:#000000; stroke-width:80; stroke-opacity:1; 
stroke-linecap:round; stroke-linejoin:round;fill:none"
d="M 78090,34500
78200,34400
" /> 
</g>
<g style="fill:#000000; fill-opacity:0.0; 
stroke:#000000; stroke-width:60; stroke-opacity:1; 
stroke-linecap:round; stroke-linejoin:round;">
<path style="fill:#000000; fill-opacity:0.0; 
stroke:#000000; stroke-width:60; stroke-opacity:1; 
stroke-linecap:round; stroke-linejoin:round;fill:none"
d="M 77500,34500
77500,34000
" /> 
<path style="fill:#000000; fill-opacity:0.0; 
stroke:#000000; stroke-width:60; stroke-opacity:1; 
stroke-linecap:round; stroke-linejoin:round;fill:none"
d="M 76500,34500
76500,32800
" /> 
<path style="fill:#000000; fill-opacity:0.0; 
stroke:#000000; stroke-width:60; stroke-opacity:1; 
stroke-linecap:round; stroke-linejoin:round;fill:none"
d="M 75500,34500
75500,34000
" /> 
<path style="fill:#000000; fill-opacity:0.0; 
stroke:#000000; stroke-width:60; stroke-opacity:1; 
stroke-linecap:round; stroke-linejoin:round;fill:none"
d="M 74500,34500
74500,32800
" /> 
<path style="fill:#000000; fill-opacity:0.0; 
stroke:#000000; stroke-width:60; stroke-opacity:1; 
stroke-linecap:round; stroke-linejoin:round;fill:none"
d="M 73500,34500
73500,34000
" /> 
<path style="fill:#000000; fill-opacity:0.0; 
stroke:#000000; stroke-width:60; stroke-opacity:1; 
stroke-linecap:round; stroke-linejoin:round;fill:none"
d="M 72500,34500
72500,32800
" /> 
<path style="fill:#000000; fill-opacity:0.0; 
stroke:#000000; stroke-width:60; stroke-opacity:1; 
stroke-linecap:round; stroke-linejoin:round;fill:none"
d="M 71500,34500
71500,34000
" /> 
<path style="fill:#000000; fill-opacity:0.0; 
stroke:#000000; stroke-width:60; stroke-opacity:1; 
stroke-linecap:round; stroke-linejoin:round;fill:none"
d="M 70500,34500
70500,32800
" /> 
<path style="fill:#000000; fill-opacity:0.0; 
stroke:#000000; stroke-width:60; stroke-opacity:1; 
stroke-linecap:round; stroke-linejoin:round;fill:none"
d="M 69500,34500
69500,34000
" /> 
</g>
<g style="fill:#000000; fill-opacity:0.0; 
stroke:#000000; stroke-width:80; stroke-opacity:1; 
stroke-linecap:round; stroke-linejoin:round;">
<path style="fill:#000000; fill-opacity:0.0; 
stroke:#000000; stroke-width:80; stroke-opacity:1; 
stroke-linecap:round; stroke-linejoin:round;fill:none"
d="M 78200,34400
78400,34100
" /> 
<path style="fill:#000000; fill-opacity:0.0; 
stroke:#000000; stroke-width:80; stroke-opacity:1; 
stroke-linecap:round; stroke-linejoin:round;fill:none"
d="M 68800,34400
68900,34500
" /> 
<path style="fill:#000000; fill-opacity:0.0; 
stroke:#000000; stroke-width:80; stroke-opacity:1; 
stroke-linecap:round; stroke-linejoin:round;fill:none"
d="M 68800,34400
68600,34000
" /> 
<path style="fill:#000000; fill-opacity:0.0; 
stroke:#000000; stroke-width:80; stroke-opacity:1; 
stroke-linecap:round; stroke-linejoin:round;fill:none"
d="M 78400,34100
78400,33500
" /> 
<path style="fill:#000000; fill-opacity:0.0; 
stroke:#000000; stroke-width:80; stroke-opacity:1; 
stroke-linecap:round; stroke-linejoin:round;fill:none"
d="M 68600,34000
68600,33700
" /> 
<path style="fill:#000000; fill-opacity:0.0; 
stroke:#000000; stroke-width:80; stroke-opacity:1; 
stroke-linecap:round; stroke-linejoin:round;fill:none"
d="M 69600,31710
68600,33700
" /> 
<path style="fill:#000000; fill-opacity:0.0; 
stroke:#000000; stroke-width:80; stroke-opacity:1; 
stroke-linecap:round; stroke-linejoin:round;fill:none"
d="M 69600,31710
69800,31500
" /> 
<path style="fill:#000000; fill-opacity:0.0; 
stroke:#000000; stroke-width:80; stroke-opacity:1; 
stroke-linecap:round; stroke-linejoin:round;fill:none"
d="M 77590,31600
78400,33500
" /> 
<path style="fill:#000000; fill-opacity:0.0; 
stroke:#000000; stroke-width:80; stroke-opacity:1; 
stroke-linecap:round; stroke-linejoin:round;fill:none"
d="M 77400,31500
77590,31600
" /> 
<path style="fill:#000000; fill-opacity:0.0; 
stroke:#000000; stroke-width:80; stroke-opacity:1; 
stroke-linecap:round; stroke-linejoin:round;fill:none"
d="M 69800,31500
77400,31500
" /> 
</g>
<g style="fill:#000000; fill-opacity:0.0; 
stroke:#000000; stroke-width:60; stroke-opacity:1; 
stroke-linecap:round; stroke-linejoin:round;">
<path d="M77500 34500
L77500 37500
" />
<g transform="rotate(-90 77400 36000)">
<text x="77400" y="36000"
textLength="540" font-size="660" lengthAdjust="spacingAndGlyphs"
text-anchor="middle" opacity="0">1</text>
</g>
<path d="M77370 35850
L77370 36140
" />
<path d="M77370 36000
L76870 36000
L76940 36040
L76990 36090
L77010 36140
" />
<path d="M75500 34500
L75500 37500
" />
<g transform="rotate(-90 75400 36000)">
<text x="75400" y="36000"
textLength="540" font-size="660" lengthAdjust="spacingAndGlyphs"
text-anchor="middle" opacity="0">2</text>
</g>
<path d="M74920 36140
L74900 36110
L74870 36070
L74870 35950
L74900 35900
L74920 35880
L74970 35850
L75010 35850
L75090 35880
L75370 36160
L75370 35850
" />
<path d="M73500 34500
L73500 37500
" />
<g transform="rotate(-90 73400 36000)">
<text x="73400" y="36000"
textLength="540" font-size="660" lengthAdjust="spacingAndGlyphs"
text-anchor="middle" opacity="0">3</text>
</g>
<path d="M72870 36160
L72870 35850
L73060 36020
L73060 35950
L73090 35900
L73110 35880
L73160 35850
L73280 35850
L73320 35880
L73350 35900
L73370 35950
L73370 36090
L73350 36140
L73320 36160
" />
<path d="M71500 34500
L71500 37500
" />
<g transform="rotate(-90 71400 36000)">
<text x="71400" y="36000"
textLength="540" font-size="660" lengthAdjust="spacingAndGlyphs"
text-anchor="middle" opacity="0">4</text>
</g>
<path d="M71040 35900
L71370 35900
" />
<path d="M70850 36020
L71200 36140
L71200 35830
" />
<path d="M69500 34500
L69500 37500
" />
<g transform="rotate(-90 69400 36000)">
<text x="69400" y="36000"
textLength="540" font-size="660" lengthAdjust="spacingAndGlyphs"
text-anchor="middle" opacity="0">5</text>
</g>
<path d="M68870 35880
L68870 36110
L69110 36140
L69090 36110
L69060 36070
L69060 35950
L69090 35900
L69110 35880
L69160 35850
L69280 35850
L69320 35880
L69350 35900
L69370 35950
L69370 36070
L69350 36110
L69320 36140
" />
<path d="M76500 34500
L76500 37500
" />
<g transform="rotate(-90 76400 36000)">
<text x="76400" y="36000"
textLength="540" font-size="660" lengthAdjust="spacingAndGlyphs"
text-anchor="middle" opacity="0">6</text>
</g>
<path d="M75870 35900
L75870 36000
L75900 36040
L75920 36070
L75990 36110
L76090 36140
L76280 36140
L76320 36110
L76350 36090
L76370 36040
L76370 35950
L76350 35900
L76320 35880
L76280 35850
L76160 35850
L76110 35880
L76090 35900
L76060 35950
L76060 36040
L76090 36090
L76110 36110
L76160 36140
" />
<path d="M74500 34500
L74500 37500
" />
<g transform="rotate(-90 74400 36000)">
<text x="74400" y="36000"
textLength="540" font-size="660" lengthAdjust="spacingAndGlyphs"
text-anchor="middle" opacity="0">7</text>
</g>
<path d="M73870 36160
L73870 35830
L74370 36040
" />
<path d="M72500 34500
L72500 37500
" />
<g transform="rotate(-90 72400 36000)">
<text x="72400" y="36000"
textLength="540" font-size="660" lengthAdjust="spacingAndGlyphs"
text-anchor="middle" opacity="0">8</text>
</g>
<path d="M72090 36040
L72060 36090
L72040 36110
L71990 36140
L71970 36140
L71920 36110
L71900 36090
L71870 36040
L71870 35950
L71900 35900
L71920 35880
L71970 35850
L71990 35850
L72040 35880
L72060 35900
L72090 35950
L72090 36040
L72110 36090
L72130 36110
L72180 36140
L72280 36140
L72320 36110
L72350 36090
L72370 36040
L72370 35950
L72350 35900
L72320 35880
L72280 35850
L72180 35850
L72130 35880
L72110 35900
L72090 35950
" />
<path d="M70500 34500
L70500 37500
" />
<g transform="rotate(-90 70400 36000)">
<text x="70400" y="36000"
textLength="540" font-size="660" lengthAdjust="spacingAndGlyphs"
text-anchor="middle" opacity="0">9</text>
</g>
<path d="M70370 36090
L70370 36000
L70350 35950
L70320 35920
L70250 35880
L70160 35850
L69970 35850
L69920 35880
L69900 35900
L69870 35950
L69870 36040
L69900 36090
L69920 36110
L69970 36140
L70090 36140
L70130 36110
L70160 36090
L70180 36040
L70180 35950
L70160 35900
L70130 35880
L70090 35850
" />
<text x="67000" y="33220"
textLength="1040" font-size="660" lengthAdjust="spacingAndGlyphs"
text-anchor="middle" opacity="0">P2</text>
<path d="M66630 33190
L66630 32690
L66820 32690
L66860 32720
L66890 32740
L66910 32790
L66910 32860
L66890 32910
L66860 32930
L66820 32950
L66630 32950
" />
<path d="M67100 32740
L67130 32720
L67170 32690
L67290 32690
L67340 32720
L67360 32740
L67390 32790
L67390 32830
L67360 32910
L67080 33190
L67390 33190
" />
</g>
</g>
<g style="fill:#000000; fill-opacity:0.0; 
stroke:#000000; stroke-width:0; stroke-opacity:1; 
stroke-linecap:round; stroke-linejoin:round;">
<g >
</g>
<g style="fill:#000000; fill-opacity:0.0; 
stroke:#000000; stroke-width:100; stroke-opacity:1; 
stroke-linecap:round; stroke-linejoin:round;">
<rect x="49000" y="39050" width="2000" height="1450" rx="0" />
<rect x="49750" y="39250" width="500" height="1050" rx="0" />
</g>
<g style="fill:#000000; fill-opacity:0.0; 
stroke:#000000; stroke-width:60; stroke-opacity:1; 
stroke-linecap:round; stroke-linejoin:round;">
<path style="fill:#000000; fill-opacity:0.0; 
stroke:#000000; stroke-width:60; stroke-opacity:1; 
stroke-linecap:round; stroke-linejoin:round;fill:none"
d="M 50400,40150
50400,39350
" /> 
<path style="fill:#000000; fill-opacity:0.0; 
stroke:#000000; stroke-width:60; stroke-opacity:1; 
stroke-linecap:round; stroke-linejoin:round;fill:none"
d="M 49600,40150
49600,39350
" /> 
<path style="fill:#000000; fill-opacity:0.0; 
stroke:#000000; stroke-width:60; stroke-opacity:1; 
stroke-linecap:round; stroke-linejoin:round;fill:none"
d="M 50400,39750
50700,39750
" /> 
<path style="fill:#000000; fill-opacity:0.0; 
stroke:#000000; stroke-width:60; stroke-opacity:1; 
stroke-linecap:round; stroke-linejoin:round;fill:none"
d="M 49600,39750
49300,39750
" /> 
</g>
<g style="fill:#000000; fill-opacity:0.0; 
stroke:#000000; stroke-width:100; stroke-opacity:1; 
stroke-linecap:round; stroke-linejoin:round;">
<path style="fill:#000000; fill-opacity:0.0; 
stroke:#000000; stroke-width:100; stroke-opacity:1; 
stroke-linecap:round; stroke-linejoin:round;fill:none"
d="M 49000,39050
48000,38050
52000,38050
51000,39050
" /> 
</g>
<g style="fill:#000000; fill-opacity:0.0; 
stroke:#000000; stroke-width:60; stroke-opacity:1; 
stroke-linecap:round; stroke-linejoin:round;">
<path d="M49500 40500
L49500 41500
" />
<g transform="rotate(-90 49600 41000)">
<text x="49600" y="41500"
textLength="540" font-size="660" lengthAdjust="spacingAndGlyphs"
text-anchor="middle" opacity="0">1</text>
</g>
<path d="M50070 40850
L50070 41140
" />
<path d="M50070 41000
L49570 41000
L49640 41040
L49690 41090
L49710 41140
" />
<path d="M50500 40500
L50500 41500
" />
<g transform="rotate(-90 50600 41000)">
<text x="50600" y="41500"
textLength="540" font-size="660" lengthAdjust="spacingAndGlyphs"
text-anchor="middle" opacity="0">2</text>
</g>
<path d="M50620 41140
L50600 41110
L50570 41070
L50570 40950
L50600 40900
L50620 40880
L50670 40850
L50710 40850
L50790 40880
L51070 41160
L51070 40850
" />
<text x="49960" y="37470"
textLength="1420" font-size="660" lengthAdjust="spacingAndGlyphs"
text-anchor="middle" opacity="0">LS1</text>
<path d="M49630 37440
L49400 37440
L49400 36940
" />
<path d="M49780 37420
L49850 37440
L49970 37440
L50010 37420
L50040 37390
L50060 37350
L50060 37300
L50040 37250
L50010 37230
L49970 37200
L49870 37180
L49820 37160
L49800 37130
L49780 37080
L49780 37040
L49800 36990
L49820 36970
L49870 36940
L49990 36940
L50060 36970
" />
<path d="M50540 37440
L50250 37440
" />
<path d="M50400 37440
L50400 36940
L50350 37010
L50300 37060
L50250 37080
" />
</g>
</g>
<g style="fill:#000000; fill-opacity:0.0; 
stroke:#000000; stroke-width:0; stroke-opacity:1; 
stroke-linecap:round; stroke-linejoin:round;">
<g >
</g>
<g style="fill:#000000; fill-opacity:0.0; 
stroke:#000000; stroke-width:60; stroke-opacity:1; 
stroke-linecap:round; stroke-linejoin:round;">
<path d="M58802.6 37151.2 A70 70 0.0 0 0 58750 37050.7" />
<path d="M58800 37150 A100 100 0.0 0 0 58900 37250" />
<path d="M58900 37250 A100 100 0.0 0 0 59000 37150" />
<path d="M59000 36900 A100 100 0.0 0 0 58900 36800" />
<path d="M58900 36800 A100 100 0.0 0 0 58800 36900" />
<path d="M58800 36900 A100 100 0.0 0 0 58900 37000" />
<path d="M58899.9 37000.7 A200 200 0.0 0 0 59140.8 36895.5" />
</g>
<g style="fill:#000000; fill-opacity:0.0; 
stroke:#000000; stroke-width:100; stroke-opacity:1; 
stroke-linecap:round; stroke-linejoin:round;">
<rect x="59600" y="37000" width="800" height="2000" rx="0" />
</g>
<g style="fill:#000000; fill-opacity:0.0; 
stroke:#000000; stroke-width:60; stroke-opacity:1; 
stroke-linecap:round; stroke-linejoin:round;">
<path style="fill:#000000; fill-opacity:0.0; 
stroke:#000000; stroke-width:60; stroke-opacity:1; 
stroke-linecap:round; stroke-linejoin:round;fill:none"
d="M 59000,37150
59000,36900
" /> 
<path style="fill:#000000; fill-opacity:0.0; 
stroke:#000000; stroke-width:60; stroke-opacity:1; 
stroke-linecap:round; stroke-linejoin:round;fill:none"
d="M 59300,37000
59300,37400
60700,38600
60700,39000
" /> 
</g>
<g style="fill:#000000; fill-opacity:1.0; 
stroke:#000000; stroke-width:60; stroke-opacity:1; 
stroke-linecap:round; stroke-linejoin:round;">
<path style="fill:#000000; fill-opacity:1.0; 
stroke:#000000; stroke-width:60; stroke-opacity:1; 
stroke-linecap:round; stroke-linejoin:round;fill-rule:evenodd;"
d="M 59000,39450
59000,38550
58900,38850
59100,38850
59000,38550
59000,38650
" /> 
<path style="fill:#000000; fill-opacity:1.0; 
stroke:#000000; stroke-width:60; stroke-opacity:1; 
stroke-linecap:round; stroke-linejoin:round;fill-rule:evenodd;"
d="M 59300,39450
59300,38550
59200,38850
59400,38850
59300,38550
59300,38650
" /> 
</g>
<g style="fill:#000000; fill-opacity:0.0; 
stroke:#000000; stroke-width:60; stroke-opacity:1; 
stroke-linecap:round; stroke-linejoin:round;">
<path d="M60000 37000
L60000 36500
" />
<path d="M60000 39000
L60000 39500
" />
<text x="62220" y="37770"
textLength="1440" font-size="660" lengthAdjust="spacingAndGlyphs"
text-anchor="middle" opacity="0">TH1</text>
<path d="M61570 37240
L61860 37240
" />
<path d="M61720 37740
L61720 37240
" />
<path d="M62020 37740
L62020 37240
" />
<path d="M62020 37480
L62310 37480
" />
<path d="M62310 37740
L62310 37240
" />
<path d="M62810 37740
L62520 37740
" />
<path d="M62670 37740
L62670 37240
L62620 37310
L62570 37360
L62520 37380
" />
<text x="62680" y="38770"
textLength="2370" font-size="660" lengthAdjust="spacingAndGlyphs"
text-anchor="middle" opacity="0">PT100</text>
<path d="M61640 38740
L61640 38240
L61830 38240
L61880 38270
L61900 38290
L61930 38340
L61930 38410
L61900 38460
L61880 38480
L61830 38500
L61640 38500
" />
<path d="M62070 38240
L62350 38240
" />
<path d="M62210 38740
L62210 38240
" />
<path d="M62780 38740
L62500 38740
" />
<path d="M62640 38740
L62640 38240
L62590 38310
L62540 38360
L62500 38380
" />
<path d="M63090 38240
L63140 38240
L63190 38270
L63210 38290
L63230 38340
L63260 38430
L63260 38550
L63230 38650
L63210 38690
L63190 38720
L63140 38740
L63090 38740
L63040 38720
L63020 38690
L63000 38650
L62970 38550
L62970 38430
L63000 38340
L63020 38290
L63040 38270
L63090 38240
" />
<path d="M63570 38240
L63620 38240
L63660 38270
L63690 38290
L63710 38340
L63730 38430
L63730 38550
L63710 38650
L63690 38690
L63660 38720
L63620 38740
L63570 38740
L63520 38720
L63500 38690
L63470 38650
L63450 38550
L63450 38430
L63470 38340
L63500 38290
L63520 38270
L63570 38240
" />
</g>
</g>
<g style="fill:#000000; fill-opacity:0.0; 
stroke:#000000; stroke-width:0; stroke-opacity:1; 
stroke-linecap:round; stroke-linejoin:round;">
<g >
</g>
<g style="fill:#000000; fill-opacity:0.0; 
stroke:#000000; stroke-width:100; stroke-opacity:1; 
stroke-linecap:round; stroke-linejoin:round;">
<rect x="59600" y="41000" width="800" height="2000" rx="0" />
</g>
<g style="fill:#000000; fill-opacity:0.0; 
stroke:#000000; stroke-width:60; stroke-opacity:1; 
stroke-linecap:round; stroke-linejoin:round;">
<path d="M60000 41000
L60000 40500
" />
<path d="M60000 43000
L60000 43500
" />
<text x="58780" y="41810"
textLength="1040" font-size="660" lengthAdjust="spacingAndGlyphs"
text-anchor="middle" opacity="0">R1</text>
<path d="M58690 41780
L58530 41540
" />
<path d="M58410 41780
L58410 41280
L58600 41280
L58640 41310
L58670 41330
L58690 41380
L58690 41450
L58670 41500
L58640 41520
L58600 41540
L58410 41540
" />
<path d="M59170 41780
L58880 41780
" />
<path d="M59030 41780
L59030 41280
L58980 41350
L58930 41400
L58880 41420
" />
<text x="58550" y="42720"
textLength="1490" font-size="660" lengthAdjust="spacingAndGlyphs"
text-anchor="middle" opacity="0">560</text>
<path d="M58190 42190
L57950 42190
L57930 42430
L57950 42410
L58000 42380
L58120 42380
L58160 42410
L58190 42430
L58210 42480
L58210 42600
L58190 42640
L58160 42670
L58120 42690
L58000 42690
L57950 42670
L57930 42640
" />
<path d="M58640 42190
L58550 42190
L58500 42220
L58470 42240
L58430 42310
L58400 42410
L58400 42600
L58430 42640
L58450 42670
L58500 42690
L58590 42690
L58640 42670
L58660 42640
L58690 42600
L58690 42480
L58660 42430
L58640 42410
L58590 42380
L58500 42380
L58450 42410
L58430 42430
L58400 42480
" />
<path d="M59000 42190
L59050 42190
L59090 42220
L59120 42240
L59140 42290
L59160 42380
L59160 42500
L59140 42600
L59120 42640
L59090 42670
L59050 42690
L59000 42690
L58950 42670
L58930 42640
L58900 42600
L58880 42500
L58880 42380
L58900 42290
L58930 42240
L58950 42220
L59000 42190
" />
</g>
</g>
<g style="fill:#000000; fill-opacity:0.0; 
stroke:#000000; stroke-width:0; stroke-opacity:1; 
stroke-linecap:round; stroke-linejoin:round;">
<g >
</g>
<g style="fill:#000000; fill-opacity:0.0; 
stroke:#000000; stroke-width:60; stroke-opacity:1; 
stroke-linecap:round; stroke-linejoin:round;">
<path d="M77700 46499.7 A200 200 0.0 0 0 77300 46499.7" />
<path d="M76700 46499.7 A200 200 0.0 0 0 76300 46499.7" />
<path d="M75700 46499.7 A200 200 0.0 0 0 75300 46499.7" />
<path d="M74700 46499.7 A200 200 0.0 0 0 74300 46499.7" />
<path d="M73700 46499.7 A200 200 0.0 0 0 73300 46499.7" />
<path d="M72700 46499.7 A200 200 0.0 0 0 72300 46499.7" />
<path style="fill:#000000; fill-opacity:0.0; 
stroke:#000000; stroke-width:60; stroke-opacity:1; 
stroke-linecap:round; stroke-linejoin:round;fill:none"
d="M 77500,46000
77500,46300
" /> 
<path style="fill:#000000; fill-opacity:0.0; 
stroke:#000000; stroke-width:60; stroke-opacity:1; 
stroke-linecap:round; stroke-linejoin:round;fill:none"
d="M 76500,46000
76500,46300
" /> 
<path style="fill:#000000; fill-opacity:0.0; 
stroke:#000000; stroke-width:60; stroke-opacity:1; 
stroke-linecap:round; stroke-linejoin:round;fill:none"
d="M 75500,46000
75500,46300
" /> 
<path style="fill:#000000; fill-opacity:0.0; 
stroke:#000000; stroke-width:60; stroke-opacity:1; 
stroke-linecap:round; stroke-linejoin:round;fill:none"
d="M 74500,46000
74500,46300
" /> 
<path style="fill:#000000; fill-opacity:0.0; 
stroke:#000000; stroke-width:60; stroke-opacity:1; 
stroke-linecap:round; stroke-linejoin:round;fill:none"
d="M 73500,46000
73500,46300
" /> 
<path style="fill:#000000; fill-opacity:0.0; 
stroke:#000000; stroke-width:60; stroke-opacity:1; 
stroke-linecap:round; stroke-linejoin:round;fill:none"
d="M 72500,46000
72500,46300
" /> 
<path d="M72500 46000
L72500 44500
" />
<g transform="rotate(-90 72400 45250)">
<text x="72400" y="45250"
textLength="540" font-size="660" lengthAdjust="spacingAndGlyphs"
text-anchor="middle" opacity="0">1</text>
</g>
<path d="M72370 45100
L72370 45390
" />
<path d="M72370 45250
L71870 45250
L71940 45290
L71990 45340
L72010 45390
" />
<path d="M73500 46000
L73500 44500
" />
<g transform="rotate(-90 73400 45250)">
<text x="73400" y="45250"
textLength="540" font-size="660" lengthAdjust="spacingAndGlyphs"
text-anchor="middle" opacity="0">2</text>
</g>
<path d="M72920 45390
L72900 45360
L72870 45320
L72870 45200
L72900 45150
L72920 45130
L72970 45100
L73010 45100
L73090 45130
L73370 45410
L73370 45100
" />
<path d="M74500 46000
L74500 44500
" />
<g transform="rotate(-90 74400 45250)">
<text x="74400" y="45250"
textLength="540" font-size="660" lengthAdjust="spacingAndGlyphs"
text-anchor="middle" opacity="0">3</text>
</g>
<path d="M73870 45410
L73870 45100
L74060 45270
L74060 45200
L74090 45150
L74110 45130
L74160 45100
L74280 45100
L74320 45130
L74350 45150
L74370 45200
L74370 45340
L74350 45390
L74320 45410
" />
<path d="M75500 46000
L75500 44500
" />
<g transform="rotate(-90 75400 45250)">
<text x="75400" y="45250"
textLength="540" font-size="660" lengthAdjust="spacingAndGlyphs"
text-anchor="middle" opacity="0">4</text>
</g>
<path d="M75040 45150
L75370 45150
" />
<path d="M74850 45270
L75200 45390
L75200 45080
" />
<path d="M76500 46000
L76500 44500
" />
<g transform="rotate(-90 76400 45250)">
<text x="76400" y="45250"
textLength="540" font-size="660" lengthAdjust="spacingAndGlyphs"
text-anchor="middle" opacity="0">5</text>
</g>
<path d="M75870 45130
L75870 45360
L76110 45390
L76090 45360
L76060 45320
L76060 45200
L76090 45150
L76110 45130
L76160 45100
L76280 45100
L76320 45130
L76350 45150
L76370 45200
L76370 45320
L76350 45360
L76320 45390
" />
<path d="M77500 46000
L77500 44500
" />
<g transform="rotate(-90 77400 45250)">
<text x="77400" y="45250"
textLength="540" font-size="660" lengthAdjust="spacingAndGlyphs"
text-anchor="middle" opacity="0">6</text>
</g>
<path d="M76870 45150
L76870 45250
L76900 45290
L76920 45320
L76990 45360
L77090 45390
L77280 45390
L77320 45360
L77350 45340
L77370 45290
L77370 45200
L77350 45150
L77320 45130
L77280 45100
L77160 45100
L77110 45130
L77090 45150
L77060 45200
L77060 45290
L77090 45340
L77110 45360
L77160 45390
" />
<text x="74830" y="47770"
textLength="1660" font-size="660" lengthAdjust="spacingAndGlyphs"
text-anchor="middle" opacity="0">MCU</text>
<path d="M74150 47740
L74150 47240
L74310 47600
L74480 47240
L74480 47740
" />
<path d="M75000 47690
L74980 47720
L74910 47740
L74860 47740
L74790 47720
L74740 47670
L74720 47620
L74690 47530
L74690 47460
L74720 47360
L74740 47310
L74790 47270
L74860 47240
L74910 47240
L74980 47270
L75000 47290
" />
<path d="M75220 47240
L75220 47650
L75240 47690
L75270 47720
L75310 47740
L75410 47740
L75460 47720
L75480 47690
L75500 47650
L75500 47240
" />
</g>
</g>
<g style="fill:#000000; fill-opacity:0.0; 
stroke:#000000; stroke-width:0; stroke-opacity:1; 
stroke-linecap:round; stroke-linejoin:round;">
<g >
</g>
<g style="fill:#000000; fill-opacity:0.0; 
stroke:#000000; stroke-width:60; stroke-opacity:1; 
stroke-linecap:round; stroke-linejoin:round;">
<path d="M50700 46499.7 A200 200 0.0 0 0 50300 46499.7" />
<path d="M49700 46499.7 A200 200 0.0 0 0 49300 46499.7" />
<path style="fill:#000000; fill-opacity:0.0; 
stroke:#000000; stroke-width:60; stroke-opacity:1; 
stroke-linecap:round; stroke-linejoin:round;fill:none"
d="M 50500,46000
50500,46300
" /> 
<path style="fill:#000000; fill-opacity:0.0; 
stroke:#000000; stroke-width:60; stroke-opacity:1; 
stroke-linecap:round; stroke-linejoin:round;fill:none"
d="M 49500,46000
49500,46300
" /> 
<path d="M49500 46000
L49500 44500
" />
<g transform="rotate(-90 49400 45250)">
<text x="49400" y="45250"
textLength="540" font-size="660" lengthAdjust="spacingAndGlyphs"
text-anchor="middle" opacity="0">1</text>
</g>
<path d="M49370 45100
L49370 45390
" />
<path d="M49370 45250
L48870 45250
L48940 45290
L48990 45340
L49010 45390
" />
<path d="M50500 46000
L50500 44500
" />
<g transform="rotate(-90 50400 45250)">
<text x="50400" y="45250"
textLength="540" font-size="660" lengthAdjust="spacingAndGlyphs"
text-anchor="middle" opacity="0">2</text>
</g>
<path d="M49920 45390
L49900 45360
L49870 45320
L49870 45200
L49900 45150
L49920 45130
L49970 45100
L50010 45100
L50090 45130
L50370 45410
L50370 45100
" />
<text x="49990" y="47770"
textLength="1990" font-size="660" lengthAdjust="spacingAndGlyphs"
text-anchor="middle" opacity="0">P102</text>
<path d="M49140 47740
L49140 47240
L49330 47240
L49380 47270
L49400 47290
L49430 47340
L49430 47410
L49400 47460
L49380 47480
L49330 47500
L49140 47500
" />
<path d="M49900 47740
L49620 47740
" />
<path d="M49760 47740
L49760 47240
L49710 47310
L49660 47360
L49620 47380
" />
<path d="M50210 47240
L50260 47240
L50310 47270
L50330 47290
L50350 47340
L50380 47430
L50380 47550
L50350 47650
L50330 47690
L50310 47720
L50260 47740
L50210 47740
L50160 47720
L50140 47690
L50120 47650
L50090 47550
L50090 47430
L50120 47340
L50140 47290
L50160 47270
L50210 47240
" />
<path d="M50570 47290
L50590 47270
L50640 47240
L50760 47240
L50810 47270
L50830 47290
L50850 47340
L50850 47380
L50830 47460
L50540 47740
L50850 47740
" />
</g>
</g>
<g style="fill:#000000; fill-opacity:0.0; 
stroke:#000000; stroke-width:0; stroke-opacity:1; 
stroke-linecap:round; stroke-linejoin:round;">
<g >
</g>
<g style="fill:#000000; fill-opacity:0.0; 
stroke:#000000; stroke-width:60; stroke-opacity:1; 
stroke-linecap:round; stroke-linejoin:round;">
<path d="M40200 46499.7 A200 200 0.0 0 0 39800 46499.7" />
<path d="M39200 46499.7 A200 200 0.0 0 0 38800 46499.7" />
<path style="fill:#000000; fill-opacity:0.0; 
stroke:#000000; stroke-width:60; stroke-opacity:1; 
stroke-linecap:round; stroke-linejoin:round;fill:none"
d="M 40000,46000
40000,46300
" /> 
<path style="fill:#000000; fill-opacity:0.0; 
stroke:#000000; stroke-width:60; stroke-opacity:1; 
stroke-linecap:round; stroke-linejoin:round;fill:none"
d="M 39000,46000
39000,46300
" /> 
<path d="M39000 46000
L39000 44500
" />
<g transform="rotate(-90 38900 45250)">
<text x="38900" y="45250"
textLength="540" font-size="660" lengthAdjust="spacingAndGlyphs"
text-anchor="middle" opacity="0">1</text>
</g>
<path d="M38870 45100
L38870 45390
" />
<path d="M38870 45250
L38370 45250
L38440 45290
L38490 45340
L38510 45390
" />
<path d="M40000 46000
L40000 44500
" />
<g transform="rotate(-90 39900 45250)">
<text x="39900" y="45250"
textLength="540" font-size="660" lengthAdjust="spacingAndGlyphs"
text-anchor="middle" opacity="0">2</text>
</g>
<path d="M39420 45390
L39400 45360
L39370 45320
L39370 45200
L39400 45150
L39420 45130
L39470 45100
L39510 45100
L39590 45130
L39870 45410
L39870 45100
" />
<text x="39490" y="47770"
textLength="1990" font-size="660" lengthAdjust="spacingAndGlyphs"
text-anchor="middle" opacity="0">P101</text>
<path d="M38640 47740
L38640 47240
L38830 47240
L38880 47270
L38900 47290
L38930 47340
L38930 47410
L38900 47460
L38880 47480
L38830 47500
L38640 47500
" />
<path d="M39400 47740
L39120 47740
" />
<path d="M39260 47740
L39260 47240
L39210 47310
L39160 47360
L39120 47380
" />
<path d="M39710 47240
L39760 47240
L39810 47270
L39830 47290
L39850 47340
L39880 47430
L39880 47550
L39850 47650
L39830 47690
L39810 47720
L39760 47740
L39710 47740
L39660 47720
L39640 47690
L39620 47650
L39590 47550
L39590 47430
L39620 47340
L39640 47290
L39660 47270
L39710 47240
" />
<path d="M40350 47740
L40070 47740
" />
<path d="M40210 47740
L40210 47240
L40160 47310
L40120 47360
L40070 47380
" />
</g>
</g>
<g style="fill:#000000; fill-opacity:0.0; 
stroke:#000000; stroke-width:0; stroke-opacity:1; 
stroke-linecap:round; stroke-linejoin:round;">
<g >
</g>
<g style="fill:#000000; fill-opacity:0.0; 
stroke:#000000; stroke-width:60; stroke-opacity:1; 
stroke-linecap:round; stroke-linejoin:round;">
<path d="M63200 46499.7 A200 200 0.0 0 0 62800 46499.7" />
<path d="M62200 46499.7 A200 200 0.0 0 0 61800 46499.7" />
<path d="M61200 46499.7 A200 200 0.0 0 0 60800 46499.7" />
<path d="M60200 46499.7 A200 200 0.0 0 0 59800 46499.7" />
<path style="fill:#000000; fill-opacity:0.0; 
stroke:#000000; stroke-width:60; stroke-opacity:1; 
stroke-linecap:round; stroke-linejoin:round;fill:none"
d="M 63000,46000
63000,46300
" /> 
<path style="fill:#000000; fill-opacity:0.0; 
stroke:#000000; stroke-width:60; stroke-opacity:1; 
stroke-linecap:round; stroke-linejoin:round;fill:none"
d="M 62000,46000
62000,46300
" /> 
<path style="fill:#000000; fill-opacity:0.0; 
stroke:#000000; stroke-width:60; stroke-opacity:1; 
stroke-linecap:round; stroke-linejoin:round;fill:none"
d="M 61000,46000
61000,46300
" /> 
<path style="fill:#000000; fill-opacity:0.0; 
stroke:#000000; stroke-width:60; stroke-opacity:1; 
stroke-linecap:round; stroke-linejoin:round;fill:none"
d="M 60000,46000
60000,46300
" /> 
<path d="M60000 46000
L60000 44500
" />
<g transform="rotate(-90 59900 45250)">
<text x="59900" y="45250"
textLength="540" font-size="660" lengthAdjust="spacingAndGlyphs"
text-anchor="middle" opacity="0">1</text>
</g>
<path d="M59870 45100
L59870 45390
" />
<path d="M59870 45250
L59370 45250
L59440 45290
L59490 45340
L59510 45390
" />
<path d="M61000 46000
L61000 44500
" />
<g transform="rotate(-90 60900 45250)">
<text x="60900" y="45250"
textLength="540" font-size="660" lengthAdjust="spacingAndGlyphs"
text-anchor="middle" opacity="0">2</text>
</g>
<path d="M60420 45390
L60400 45360
L60370 45320
L60370 45200
L60400 45150
L60420 45130
L60470 45100
L60510 45100
L60590 45130
L60870 45410
L60870 45100
" />
<path d="M62000 46000
L62000 44500
" />
<g transform="rotate(-90 61900 45250)">
<text x="61900" y="45250"
textLength="540" font-size="660" lengthAdjust="spacingAndGlyphs"
text-anchor="middle" opacity="0">3</text>
</g>
<path d="M61370 45410
L61370 45100
L61560 45270
L61560 45200
L61590 45150
L61610 45130
L61660 45100
L61780 45100
L61820 45130
L61850 45150
L61870 45200
L61870 45340
L61850 45390
L61820 45410
" />
<path d="M63000 46000
L63000 44500
" />
<g transform="rotate(-90 62900 45250)">
<text x="62900" y="45250"
textLength="540" font-size="660" lengthAdjust="spacingAndGlyphs"
text-anchor="middle" opacity="0">4</text>
</g>
<path d="M62540 45150
L62870 45150
" />
<path d="M62350 45270
L62700 45390
L62700 45080
" />
<text x="61490" y="47770"
textLength="1990" font-size="660" lengthAdjust="spacingAndGlyphs"
text-anchor="middle" opacity="0">P103</text>
<path d="M60640 47740
L60640 47240
L60830 47240
L60880 47270
L60900 47290
L60930 47340
L60930 47410
L60900 47460
L60880 47480
L60830 47500
L60640 47500
" />
<path d="M61400 47740
L61120 47740
" />
<path d="M61260 47740
L61260 47240
L61210 47310
L61160 47360
L61120 47380
" />
<path d="M61710 47240
L61760 47240
L61810 47270
L61830 47290
L61850 47340
L61880 47430
L61880 47550
L61850 47650
L61830 47690
L61810 47720
L61760 47740
L61710 47740
L61660 47720
L61640 47690
L61620 47650
L61590 47550
L61590 47430
L61620 47340
L61640 47290
L61660 47270
L61710 47240
" />
<path d="M62040 47240
L62350 47240
L62190 47430
L62260 47430
L62310 47460
L62330 47480
L62350 47530
L62350 47650
L62330 47690
L62310 47720
L62260 47740
L62120 47740
L62070 47720
L62040 47690
" />
</g>
</g>
<g style="fill:#000000; fill-opacity:0.0; 
stroke:#000000; stroke-width:0; stroke-opacity:1; 
stroke-linecap:round; stroke-linejoin:round;">
<g >
</g>
<g style="fill:#000000; fill-opacity:0.0; 
stroke:#000000; stroke-width:80; stroke-opacity:1; 
stroke-linecap:round; stroke-linejoin:round;">
<circle cx="39000" cy="33000" r="200" /> 
</g>
<g style="fill:#000000; fill-opacity:0.0; 
stroke:#000000; stroke-width:120; stroke-opacity:1; 
stroke-linecap:round; stroke-linejoin:round;">
<circle cx="39000" cy="33000" r="700" /> 
</g>
<g style="fill:#000000; fill-opacity:0.0; 
stroke:#000000; stroke-width:60; stroke-opacity:1; 
stroke-linecap:round; stroke-linejoin:round;">
<path d="M39200 33000
L40500 33000
" />
<text x="39850" y="32900"
textLength="440" font-size="530" lengthAdjust="spacingAndGlyphs"
text-anchor="middle" opacity="0">1</text>
<path d="M39960 32880
L39730 32880
" />
<path d="M39850 32880
L39850 32480
L39810 32530
L39770 32570
L39730 32590
" />
<path d="M39000 33700
L39000 35000
" />
<g transform="rotate(-90 38900 34350)">
<text x="38900" y="34350"
textLength="440" font-size="530" lengthAdjust="spacingAndGlyphs"
text-anchor="middle" opacity="0">2</text>
</g>
<path d="M38510 34460
L38500 34440
L38480 34400
L38480 34310
L38500 34270
L38510 34250
L38550 34230
L38590 34230
L38650 34250
L38880 34480
L38880 34230
" />
<text x="39000" y="31270"
textLength="1040" font-size="660" lengthAdjust="spacingAndGlyphs"
text-anchor="middle" opacity="0">P1</text>
<path d="M38630 31240
L38630 30740
L38820 30740
L38860 30770
L38890 30790
L38910 30840
L38910 30910
L38890 30960
L38860 30980
L38820 31000
L38630 31000
" />
<path d="M39390 31240
L39100 31240
" />
<path d="M39250 31240
L39250 30740
L39200 30810
L39150 30860
L39100 30880
" />
</g>
</g>
<g style="fill:#000000; fill-opacity:0.0; 
stroke:#000000; stroke-width:60; stroke-opacity:1; 
stroke-linecap:round; stroke-linejoin:round;">
<path d="M69500 41000
L69500 37500
" />
<path d="M60000 44500
L60000 43500
" />
<path d="M60000 40000
L60000 39500
" />
<path d="M63000 40000
L63000 44500
" />
<path d="M60000 40000
L63000 40000
" />
<path d="M60000 40500
L60000 40000
" />
<path d="M60000 36000
L60000 36500
" />
<path d="M61000 36000
L60000 36000
" />
<path d="M61000 44500
L61000 36000
" />
<path d="M39000 37500
L39000 44500
" />
<path d="M43000 37500
L43000 44000
" />
<path d="M72500 44500
L72500 41000
" />
<path d="M75500 37500
L75500 44500
" />
<path d="M39000 35000
L39000 37500
" />
<path d="M73500 41000
L73500 37500
" />
<path d="M76500 41000
L73500 41000
" />
<path d="M76500 44500
L76500 41000
" />
<path d="M50500 41500
L50500 44500
" />
<path d="M49500 44500
L49500 41500
" />
<path d="M39500 37500
L39000 37500
" />
<path d="M40000 44500
L40000 44000
" />
<path d="M72500 41000
L69500 41000
" />
<path d="M43000 44000
L40000 44000
" />
<path d="M43000 33000
L40500 33000
" />
<path d="M43000 37500
L42500 37500
" />
<path d="M43000 33000
L43000 37500
" />
<text x="71500" y="29900"
textLength="5550" font-size="800" lengthAdjust="spacingAndGlyphs"
text-anchor="start" opacity="0">RS-232 TTL</text>
<path d="M72010 29870
L71810 29580
" />
<path d="M71670 29870
L71670 29270
L71900 29270
L71950 29300
L71980 29320
L72010 29380
L72010 29470
L71980 29520
L71950 29550
L71900 29580
L71670 29580
" />
<path d="M72240 29840
L72330 29870
L72470 29870
L72530 29840
L72550 29810
L72580 29750
L72580 29700
L72550 29640
L72530 29610
L72470 29580
L72350 29550
L72300 29520
L72270 29500
L72240 29440
L72240 29380
L72270 29320
L72300 29300
L72350 29270
L72500 29270
L72580 29300
" />
<path d="M72840 29640
L73300 29640
" />
<path d="M73550 29320
L73580 29300
L73640 29270
L73780 29270
L73840 29300
L73870 29320
L73900 29380
L73900 29440
L73870 29520
L73530 29870
L73900 29870
" />
<path d="M74100 29270
L74470 29270
L74270 29500
L74350 29500
L74410 29520
L74440 29550
L74470 29610
L74470 29750
L74440 29810
L74410 29840
L74350 29870
L74180 29870
L74130 29840
L74100 29810
" />
<path d="M74700 29320
L74730 29300
L74780 29270
L74930 29270
L74980 29300
L75010 29320
L75040 29380
L75040 29440
L75010 29520
L74670 29870
L75040 29870
" />
<path d="M75670 29270
L76010 29270
" />
<path d="M75840 29870
L75840 29270
" />
<path d="M76130 29270
L76470 29270
" />
<path d="M76300 29870
L76300 29270
" />
<path d="M76950 29870
L76670 29870
L76670 29270
" />
<text x="40500" y="32900"
textLength="800" font-size="800" lengthAdjust="spacingAndGlyphs"
text-anchor="start" opacity="0">+</text>
<path d="M40670 32640
L41130 32640
" />
<path d="M40900 32870
L40900 32410
" />
<text x="38000" y="29900"
textLength="2800" font-size="800" lengthAdjust="spacingAndGlyphs"
text-anchor="start" opacity="0">5V DC</text>
<path d="M38450 29270
L38170 29270
L38140 29550
L38170 29520
L38230 29500
L38370 29500
L38430 29520
L38450 29550
L38480 29610
L38480 29750
L38450 29810
L38430 29840
L38370 29870
L38230 29870
L38170 29840
L38140 29810
" />
<path d="M38650 29270
L38850 29870
L39050 29270
" />
<path d="M39710 29870
L39710 29270
L39850 29270
L39940 29300
L40000 29350
L40030 29410
L40050 29520
L40050 29610
L40030 29720
L40000 29780
L39940 29840
L39850 29870
L39710 29870
" />
<path d="M40650 29810
L40630 29840
L40540 29870
L40480 29870
L40400 29840
L40340 29780
L40310 29720
L40280 29610
L40280 29520
L40310 29410
L40340 29350
L40400 29300
L40480 29270
L40540 29270
L40630 29300
L40650 29320
" />
</g>
<g style="fill:#000000; fill-opacity:0.0; 
stroke:#000000; stroke-width:0; stroke-opacity:1; 
stroke-linecap:round; stroke-linejoin:round;">
</g>
<g style="fill:#000000; fill-opacity:1.0; 
stroke:#000000; stroke-width:100; stroke-opacity:1; 
stroke-linecap:round; stroke-linejoin:round;">
<circle cx="39000" cy="37500" r="200" /> 
</g>
<g style="fill:#000000; fill-opacity:1.0; 
stroke:#000000; stroke-width:0; stroke-opacity:1; 
stroke-linecap:round; stroke-linejoin:round;">
</g>
<g style="fill:#000000; fill-opacity:1.0; 
stroke:#000000; stroke-width:100; stroke-opacity:1; 
stroke-linecap:round; stroke-linejoin:round;">
<circle cx="43000" cy="37500" r="200" /> 
</g>
<g style="fill:#000000; fill-opacity:1.0; 
stroke:#000000; stroke-width:0; stroke-opacity:1; 
stroke-linecap:round; stroke-linejoin:round;">
</g>
<g style="fill:#000000; fill-opacity:1.0; 
stroke:#000000; stroke-width:100; stroke-opacity:1; 
stroke-linecap:round; stroke-linejoin:round;">
<circle cx="60000" cy="40000" r="200" /> 
</g>
<g style="fill:#000000; fill-opacity:1.0; 
stroke:#000000; stroke-width:60; stroke-opacity:1; 
stroke-linecap:round; stroke-linejoin:round;">
</g>
<g style="fill:#000000; fill-opacity:0.0; 
stroke:#000000; stroke-width:60; stroke-opacity:1; 
stroke-linecap:round; stroke-linejoin:round;">
<path d="M61760 44260
L62240 44740
" />
<path d="M62240 44260
L61760 44740
" />
<path d="M77260 37260
L77740 37740
" />
<path d="M77740 37260
L77260 37740
" />
<path d="M76260 37260
L76740 37740
" />
<path d="M76740 37260
L76260 37740
" />
<path d="M74260 37260
L74740 37740
" />
<path d="M74740 37260
L74260 37740
" />
<path d="M72260 37260
L72740 37740
" />
<path d="M72740 37260
L72260 37740
" />
<path d="M71260 37260
L71740 37740
" />
<path d="M71740 37260
L71260 37740
" />
<path d="M70260 37260
L70740 37740
" />
<path d="M70740 37260
L70260 37740
" />
<path d="M77260 44260
L77740 44740
" />
<path d="M77740 44260
L77260 44740
" />
<path d="M74260 44260
L74740 44740
" />
<path d="M74740 44260
L74260 44740
" />
<path d="M73260 44260
L73740 44740
" />
<path d="M73740 44260
L73260 44740
" />
</g> 
</svg>
